<?xml version="1.0" encoding="utf-8"?>
<!-- Generator: Adobe Illustrator 24.1.3, SVG Export Plug-In . SVG Version: 6.00 Build 0)  -->
<svg version="1.1" id="Layer_1" xmlns="http://www.w3.org/2000/svg" xmlns:xlink="http://www.w3.org/1999/xlink" x="0px" y="0px"
	 viewBox="0 0 228 100" style="enable-background:new 0 0 228 100;" xml:space="preserve">
<style type="text/css">
	.st0{fill:#FFFFFF;}
	.st1{fill-rule:evenodd;clip-rule:evenodd;fill:#FFFFFF;}
</style>
<g>
	<g>
		<path class="st0" d="M57.4,63.3c0.5,0,0.9,0.1,1.3,0.1c1.7,0,1.7-0.2,1.7-0.9l0.4,0c0,0.3,0,0.6,0,1c0,0.5,0,1,0,1.3l-0.4,0
			c0-0.8,0-0.8-0.8-0.9c-0.6-0.1-1.2-0.1-2.2-0.1l0,1.8v0.6c0,1,0,1.2,1.4,1.3v0.3c-0.6,0-1.3,0-1.9,0c-0.5,0-1.3,0-1.9,0v-0.3
			c0.3-0.1,0.7-0.2,0.8-0.5c0.2-0.6,0.2-2.6,0.2-3.4c0-0.7,0-3.1-0.2-3.5c-0.2-0.3-0.6-0.3-0.9-0.4v-0.3c0.3,0,1,0,1.8,0
			c0.8,0,1.6,0,1.9,0c2.1,0,2.4,0,3-0.1c-0.1,0.5-0.1,0.8-0.1,1.7l-0.4,0c-0.1-0.4-0.1-0.7-0.3-0.8C60.4,60,59.2,60,58.6,60
			c-0.4,0-0.7,0-1.1,0.1c0,0.4,0,1,0,1.4L57.4,63.3z"/>
		<path class="st0" d="M65.2,64.4c0.4,0.1,0.9,0.1,1.5,0.1c0.5,0,0.7,0,0.9-0.1c-0.4-1-0.8-2-1.2-2.9L65.2,64.4z M64.5,66
			c-0.1,0.2-0.3,0.8-0.3,1c0,0.5,0.7,0.6,1,0.6v0.3c-0.1,0-0.5,0-0.9,0c-0.4,0-0.8,0-0.8,0c-0.2,0-0.7,0-1,0v-0.3
			c0.2,0,0.6-0.1,0.8-0.5c0.5-0.8,2.9-6.5,3.1-6.9c0.1-0.3,0.2-0.6,0.3-0.8h0.4c0.1,0.3,0.2,0.6,0.3,1c0.3,0.8,1.7,4.3,1.9,5
			c0.8,2.2,1,2.2,1.6,2.3v0.3c-0.3,0-0.6-0.1-1.2-0.1c-0.9,0-1.5,0.1-1.9,0.1v-0.3c0.4-0.1,0.7-0.2,0.7-0.5c0-0.2-0.7-1.9-0.7-2.1
			c-0.2,0-0.4,0-1,0c-0.5,0-1.2,0-1.8,0.1L64.5,66z"/>
		<path class="st0" d="M79.3,67.6C78,67.9,76.7,68,76.6,68c-2.7,0-4.7-1.8-4.7-4.3c0-2.9,2.4-4.3,5-4.3c0.6,0,1.1,0.1,1.7,0.3
			c0.2,0.1,0.4,0.1,0.6,0.1c0.1,0,0.2-0.1,0.4-0.1l0.2,0.1c-0.1,0.3-0.3,1.5-0.4,1.8l-0.2-0.1c-0.1-0.6-0.1-0.7-0.3-0.9
			c-0.2-0.2-1-0.8-2.2-0.8c-3.1,0-3.1,3.1-3.1,3.8c0,3.7,2.7,3.9,3.3,3.9c1.2,0,2.2-0.6,2.6-1.8l0.3,0c0,0.2,0,0.3-0.1,0.6
			c0,0.1-0.2,0.5-0.2,0.6L79.3,67.6z"/>
		<path class="st0" d="M82.4,61.3c0-1.4-0.2-1.4-1-1.5v-0.3h3.7l0.1,0.3c0,0-0.2,0-0.2,0c-1.1,0.2-1.2,0.2-1.2,3.6
			c0,2.3,0.2,3,0.7,3.4c0.6,0.5,1.3,0.5,1.8,0.5c0.2,0,2,0,2.5-1.3c0.3-0.8,0.4-2.3,0.4-4c0-2.2-0.3-2.2-1.2-2.3l-0.1-0.4l0.7,0
			c0.2,0,0.5,0,0.7,0h1.4v0.4c-0.3,0-0.7,0-0.8,0.3c-0.1,0.2-0.1,1.6-0.1,2c0,1.2-0.2,3.5-0.6,4.4c-0.6,1.2-2.4,1.4-3.4,1.4
			c-1.3,0-3.4-0.3-3.4-2.6c0-0.3,0.1-2.1,0.1-2.5L82.4,61.3z"/>
		<path class="st0" d="M99.3,66.1c-0.1,0.4-0.1,0.5-0.5,1.9c-0.3-0.1-0.5-0.1-0.9-0.1c-0.4,0-0.9,0-1.9,0h-3.8l0-0.3
			c0.2,0,0.6-0.1,0.8-0.3c0.2-0.3,0.2-0.4,0.2-3.7c0-2.5,0-2.7,0-3c-0.1-0.6-0.5-0.6-0.9-0.6v-0.3c0.5,0,0.7,0,1.7,0
			c1.1,0,1.3,0,1.8,0v0.3c-0.4,0.1-0.8,0.1-1,0.4c-0.2,0.3-0.2,2.8-0.2,3.4l0,2.1c0,0.8,0,1.2,0.1,1.4c0.1,0.2,0.4,0.2,1.1,0.2
			c2.7,0,3-0.6,3.2-1.2L99.3,66.1z"/>
		<path class="st0" d="M108.5,60.5c-0.5-0.3-1.5-0.3-2-0.3c-0.5,0-0.6,0-0.9,0c-0.1,1.2-0.1,3.4-0.1,5.8c0,1.4,0.1,1.4,0.7,1.6
			c0.5,0.1,0.6,0.1,0.7,0.1l0,0.3c-0.2,0-1.2-0.1-1.4-0.1c-1.3,0-1.5,0-2.9,0.2l-0.1-0.3c0.2-0.1,1.2-0.3,1.4-0.5
			c0.2-0.2,0.2-3,0.2-3.4c0-1.2,0-3.1-0.1-3.7c-0.4,0-0.6,0-1.3,0c-1.8,0-1.9,0.2-2.1,0.8l-0.3-0.1c0.3-0.8,0.5-1.3,0.6-1.5h0.2
			c0.1,0.1,0.4,0.1,0.6,0.2c0.6,0.1,2.6,0.1,3.3,0.1c1,0,3,0,3.9-0.1c0.2,0,0.2,0,0.3-0.1l0.2,0.1c-0.1,0.3-0.3,0.8-0.4,1.4
			l-0.4,0.1L108.5,60.5z"/>
		<path class="st0" d="M116.2,63.9c0,0.5,0,3,0.1,3.2c0.1,0.3,0.8,0.4,1.1,0.5l0,0.3c-0.5,0-1.2-0.1-1.8-0.1c-0.3,0-1.7,0.1-2,0.1
			l0-0.3c0.9-0.1,1-0.3,1.1-0.5c0.1-0.3,0.1-2.1,0.1-2.6c0-0.2,0-0.2,0-0.5c-0.4-0.7-0.8-1.2-2.2-3.1c-0.5-0.6-0.9-1.1-1.8-1.1
			l-0.1-0.3c0.1,0,0.5,0,0.9,0c0.4,0,0.8,0,0.9,0l1.9,0l-0.1,0.4c-0.1,0-0.7,0-0.7,0.2c0,0.2,1.5,2.3,2.3,3.3
			c1.7-2.6,1.8-2.8,1.8-3.1c0-0.4-0.5-0.4-0.9-0.4l0-0.4c0.1,0,0.4,0,0.7,0c0.3,0,0.6,0,0.8,0c0.2,0,1.2,0,1.4,0l0,0.4
			c-1,0-1.5,0.4-3.1,3.1L116.2,63.9z"/>
		<path class="st0" d="M126.8,66.4c0.5,0,1.7-0.3,1.7-1.9c0-1.1-0.5-3-2-3c-0.4,0-1.7,0.2-1.7,1.9C124.7,64.8,125.4,66.4,126.8,66.4
			z M126.6,61.2c1.5,0,2.8,1.2,2.8,2.7c0,1.4-1.1,2.8-2.8,2.8c-1.8,0-2.8-1.3-2.8-2.8C123.8,62.2,125.2,61.2,126.6,61.2z"/>
		<path class="st0" d="M131.7,63.6c0.3,0,0.6,0,0.8,0c1.1,0,1.1-0.1,1.1-0.6l0.2,0c0,0.2,0,0.4,0,0.7c0,0.3,0,0.6,0,0.9l-0.2,0
			c0-0.5,0-0.5-0.5-0.6c-0.4-0.1-0.8-0.1-1.4-0.1l0,1.2v0.4c0,0.6,0,0.8,0.9,0.9v0.2c-0.4,0-0.8,0-1.2,0c-0.3,0-0.8,0-1.2,0v-0.2
			c0.2,0,0.4-0.1,0.5-0.3c0.1-0.4,0.1-1.7,0.1-2.2c0-0.4,0-2-0.1-2.3c-0.1-0.2-0.4-0.2-0.6-0.2v-0.2c0.2,0,0.7,0,1.2,0
			c0.5,0,1,0,1.2,0c1.3,0,1.5,0,1.9-0.1c0,0.3-0.1,0.5-0.1,1.1l-0.2,0c0-0.3-0.1-0.5-0.2-0.5c-0.3-0.2-1.1-0.2-1.4-0.2
			c-0.3,0-0.4,0-0.7,0c0,0.2,0,0.7,0,0.9L131.7,63.6z"/>
		<path class="st0" d="M148.2,65.5c0-0.4,0-2.3,0-2.7c0-2.9-0.1-3-1.4-3.1l0.1-0.3c0.1,0,0.2,0,0.3,0c0.1,0,0.4,0,0.7,0
			c0.3,0,0.6,0.1,0.8,0.1c0.1,0,1,0,1.1,0v0.3c-0.2,0-0.6,0-0.7,0.3c-0.3,0.5-0.3,2.8-0.3,3.5c0,0.5,0,2.5,0,2.9c0,0.1,0,0.7,0,1.1
			l0,0.5h-0.4c-0.5-0.9-1.2-1.6-1.9-2.2l-4.2-4c-0.2-0.2-0.4-0.4-0.6-0.5c0,0.3,0,0.9,0,1.2l-0.1,3.1c0,1.2,0,1.7,1.5,2
			c0,0.2,0,0.3,0,0.4c-0.2,0-0.3,0-0.6-0.1c-0.2,0-0.4,0-0.8,0c-0.3,0-1.6,0.1-1.9,0.1c0-0.1,0-0.2,0-0.4c0.9,0,1-0.5,1-1.6L141,62
			c0-1.1,0-2-1.2-2.2c0-0.1,0-0.2,0-0.4c0.1,0,0.4,0,0.6,0c0.3,0,0.6,0,0.7,0h0.6c0.9,1,0.9,1,3.2,3.2c0.6,0.6,1.3,1.2,1.9,1.8
			L148.2,65.5z"/>
		<path class="st0" d="M152.7,61.3c0-1.4-0.2-1.4-1-1.5v-0.3h3.7l0.1,0.3c0,0-0.2,0-0.2,0c-1.1,0.2-1.2,0.2-1.2,3.6
			c0,2.3,0.2,3,0.7,3.4c0.6,0.5,1.3,0.5,1.8,0.5c0.2,0,2,0,2.5-1.3c0.3-0.8,0.4-2.3,0.4-4c0-2.2-0.3-2.2-1.2-2.3l-0.1-0.4l0.7,0
			c0.2,0,0.5,0,0.7,0h1.4v0.4c-0.3,0-0.7,0-0.8,0.3c-0.1,0.2-0.1,1.6-0.1,2c0,1.2-0.2,3.5-0.6,4.4c-0.6,1.2-2.4,1.4-3.4,1.4
			c-1.3,0-3.4-0.3-3.4-2.6c0-0.3,0.1-2.1,0.1-2.5L152.7,61.3z"/>
		<path class="st0" d="M166.7,59.8c-0.7,0-0.7,0.2-0.8,1c-0.1,1.3-0.1,1.4,0,2.6c0.2,0,0.3,0.1,0.6,0.1c0.7,0,2.1,0,2.1-1.7
			C168.6,61.3,168.3,59.8,166.7,59.8z M163.4,67.6c0.6-0.2,0.8-0.3,0.9-0.7c0.1-0.4,0.1-3.4,0.1-4.1c0-1.7,0-2-0.1-2.3
			c-0.1-0.6-0.6-0.6-0.9-0.6l0.1-0.3c0.2,0,1,0,1.2,0c0.2,0,0.7,0,1.1-0.1c0.5,0,1-0.1,1.1-0.1c2.3,0,3.1,1.2,3.1,2.2
			c0,1-0.8,1.8-1.9,2.2c1.5,2.9,2.6,4.1,4,4.2v0.3c-1.3,0-3.3,0-5.5-4.4c-0.4,0-0.5,0-0.8-0.1c0,0.3,0,0.5,0,1.3
			c0,0.4,0,1.8,0.2,2.1c0.2,0.3,0.7,0.4,0.9,0.4l-0.1,0.3c-0.4-0.1-0.7-0.1-0.9-0.1c-0.2,0-0.4,0-0.8,0c-0.6,0-0.7,0-1.7,0.1V67.6z"
			/>
		<path class="st0" d="M173.7,65.6c0.2,0.7,0.3,1.1,1.4,1.5c0.6,0.3,1.3,0.4,1.9,0.4c0.3,0,1.4-0.1,1.4-1.4c0-1.1-1-1.5-2.2-1.9
			c-1.2-0.4-2.3-1-2.3-2.4c0-1.4,1.2-2.4,2.9-2.4c0.3,0,1.7,0.2,1.9,0.2c0.1,0,0.3,0,0.4-0.1l0.2,0.1c0,0.1-0.1,0.8-0.1,0.8
			c0,0.1,0,0.8,0,0.8v0.4h-0.3c-0.3-1.7-2.2-1.7-2.4-1.7c-1.3,0-1.6,0.9-1.6,1.5c0,0.7,0.3,1.2,1.9,1.7c1.1,0.4,2.6,1,2.6,2.6
			c0,0.9-0.5,2.3-3.1,2.3c-0.7,0-1.3-0.1-2-0.2c0,0-0.1,0-0.2,0c-0.1,0-0.1,0.1-0.1,0.1h-0.4c0-0.7-0.1-1.2-0.4-2.2L173.7,65.6z"/>
		<path class="st0" d="M181.4,67.5c0.5-0.1,1.1-0.1,1.3-0.4c0.3-0.5,0.3-2.7,0.3-3.4c0-0.6,0-3.1-0.2-3.5c-0.1-0.1-0.2-0.4-1.2-0.4
			l0-0.4c0.2,0,0.7,0,1.2,0c0.5,0,1,0,1.1,0c0.3,0,1.6,0,1.9-0.1v0.4c-0.7,0-0.9,0-1.1,0.2c-0.3,0.4-0.3,2.7-0.3,3.4
			c0,0.6,0,3.2,0.1,3.5c0.1,0.4,0.2,0.5,1.2,0.6l0,0.3l-2.2,0c-1,0-1.6,0-2,0V67.5z"/>
		<path class="st0" d="M196.4,65.5c0-0.4,0-2.3,0-2.7c0-2.9-0.1-3-1.4-3.1l0.1-0.3c0.1,0,0.2,0,0.3,0c0.1,0,0.4,0,0.7,0
			c0.3,0,0.6,0.1,0.8,0.1c0.1,0,1,0,1.1,0v0.3c-0.2,0-0.6,0-0.7,0.3c-0.3,0.5-0.3,2.8-0.3,3.5c0,0.5,0,2.5,0,2.9c0,0.1,0,0.7,0,1.1
			l0,0.5h-0.4c-0.5-0.9-1.2-1.6-1.9-2.2l-4.2-4c-0.2-0.2-0.4-0.4-0.6-0.5c0,0.3,0,0.9,0,1.2l-0.1,3.1c0,1.2,0,1.7,1.5,2
			c0,0.2,0,0.3,0,0.4c-0.2,0-0.3,0-0.6-0.1c-0.2,0-0.4,0-0.8,0c-0.3,0-1.6,0.1-1.9,0.1c0-0.1,0-0.2,0-0.4c0.9,0,1-0.5,1-1.6l0.1-3.9
			c0-1.1,0-2-1.2-2.2c0-0.1,0-0.2,0-0.4c0.1,0,0.4,0,0.6,0c0.3,0,0.6,0,0.7,0h0.6c0.9,1,0.9,1,3.2,3.2c0.6,0.6,1.3,1.2,1.9,1.8
			L196.4,65.5z"/>
		<path class="st0" d="M207.4,61.5c-0.2-0.4-0.8-1.7-2.8-1.7c-1.8,0-3.4,1.3-3.4,3.8c0,2.5,1.8,3.9,3.6,3.9c0.6,0,1.4-0.2,1.6-0.6
			c0.1-0.2,0.1-0.7,0.1-0.9c0-1.8,0-1.8-1.5-1.8l0-0.4c0.4,0,2.1,0,2.5,0l1,0V64c-0.5,0.1-0.5,0.2-0.5,1.7c0,1.4,0.1,1.5,0.3,1.6
			v0.2c-0.7,0.1-2.8,0.4-3.6,0.4c-3.8,0-5-2.5-5-4.3c0-3,2.8-4.3,5.2-4.3c0.8,0,1.3,0.1,1.9,0.3c0.2,0,0.2,0,0.5-0.3h0.2
			c0.1,1.3,0.2,1.7,0.2,2.1H207.4z"/>
	</g>
	<g>
		<path class="st0" d="M129.7,76.4c0.4,0,0.6,0,0.9,0c1.2,0,1.2-0.1,1.2-0.6l0.3,0c0,0.2,0,0.4,0,0.7c0,0.3,0,0.6,0,0.9l-0.3,0
			c0-0.5,0-0.5-0.6-0.6c-0.4-0.1-0.8-0.1-1.5-0.1l0,1.2v0.4c0,0.6,0,0.8,1,0.9v0.2c-0.4,0-0.9,0-1.3,0c-0.3,0-0.9,0-1.3,0v-0.2
			c0.2,0,0.5-0.1,0.6-0.3c0.1-0.4,0.1-1.7,0.1-2.2c0-0.4,0-2.1-0.1-2.3c-0.1-0.2-0.4-0.2-0.6-0.2v-0.2c0.2,0,0.7,0,1.3,0
			c0.6,0,1.1,0,1.3,0c1.4,0,1.6,0,2.1-0.1c0,0.3-0.1,0.5-0.1,1.1l-0.2,0c0-0.3-0.1-0.5-0.2-0.6c-0.3-0.2-1.2-0.2-1.6-0.2
			c-0.3,0-0.5,0-0.8,0c0,0.2,0,0.7,0,0.9L129.7,76.4z"/>
		<path class="st0" d="M56,75.1c0-0.9-0.1-0.9-0.7-1v-0.2h2.5l0.1,0.2c0,0-0.1,0-0.2,0c-0.8,0.1-0.8,0.1-0.8,2.4
			c0,1.5,0.1,1.9,0.5,2.2c0.4,0.3,0.9,0.4,1.2,0.4c0.2,0,1.4,0,1.7-0.8c0.2-0.5,0.3-1.5,0.3-2.6c0-1.4-0.2-1.4-0.8-1.5l0-0.2l0.5,0
			c0.1,0,0.3,0,0.5,0h0.9v0.2c-0.2,0-0.5,0-0.6,0.2c-0.1,0.2-0.1,1.1-0.1,1.3c0,0.8-0.1,2.3-0.4,2.9c-0.4,0.8-1.7,0.9-2.4,0.9
			c-0.9,0-2.4-0.2-2.4-1.7c0-0.2,0-1.4,0-1.6L56,75.1z"/>
		<path class="st0" d="M68.2,77.9c0-0.3,0-1.5,0-1.8c0-1.9-0.1-2-1-2l0.1-0.2c0.1,0,0.1,0,0.2,0c0.1,0,0.3,0,0.5,0
			c0.2,0,0.4,0,0.5,0c0,0,0.7,0,0.8,0v0.2c-0.1,0-0.4,0-0.5,0.2c-0.2,0.3-0.2,1.8-0.2,2.3c0,0.3,0,1.6,0,1.9c0,0.1,0,0.5,0,0.7
			l0,0.3h-0.3c-0.3-0.6-0.8-1-1.3-1.5l-2.9-2.6c-0.1-0.1-0.3-0.2-0.4-0.3c0,0.2,0,0.6,0,0.8l0,2c0,0.8,0,1.1,1.1,1.3
			c0,0.1,0,0.2,0,0.2c-0.1,0-0.2,0-0.4,0c-0.1,0-0.3,0-0.5,0c-0.2,0-1.1,0.1-1.3,0.1c0-0.1,0-0.1,0-0.2c0.6,0,0.7-0.3,0.7-1.1l0-2.6
			c0-0.7,0-1.3-0.8-1.4c0-0.1,0-0.1,0-0.3c0,0,0.2,0,0.4,0c0.2,0,0.4,0,0.5,0h0.4c0.6,0.6,0.6,0.7,2.2,2.1c0.4,0.4,0.9,0.8,1.3,1.2
			L68.2,77.9z"/>
		<path class="st0" d="M70,79.2c0.3,0,0.8-0.1,0.9-0.3c0.2-0.3,0.2-1.8,0.2-2.2c0-0.4,0-2.1-0.1-2.3c0-0.1-0.1-0.2-0.9-0.2l0-0.2
			c0.1,0,0.5,0,0.8,0c0.4,0,0.7,0,0.7,0c0.2,0,1.1,0,1.3,0v0.3c-0.5,0-0.6,0-0.7,0.1c-0.2,0.2-0.2,1.8-0.2,2.2c0,0.4,0,2.1,0.1,2.3
			c0.1,0.3,0.1,0.3,0.8,0.4l0,0.2l-1.5,0c-0.7,0-1.1,0-1.4,0V79.2z"/>
		<path class="st0" d="M74.9,75.4c-0.7-1.2-0.7-1.2-1.2-1.2v-0.2h2.5v0.2c-0.5,0-0.6,0-0.6,0.2c0,0.2,0.3,0.9,1.7,3.9
			c0.1-0.2,0.1-0.3,0.4-0.8c0.2-0.5,1.3-2.6,1.3-3c0-0.2-0.3-0.3-0.5-0.3l0-0.2c0.7,0,1,0,1.8,0l0,0.2c-0.5,0.1-0.7,0.3-1.1,1.1
			l-1.3,2.4c-0.2,0.4-0.6,1.2-0.8,1.9l-0.2,0c-0.1-0.3-0.5-1.2-0.5-1.2L74.9,75.4z"/>
		<path class="st0" d="M85.3,77.5h-0.2c-0.1-0.8-0.1-0.8-1.6-0.8c-0.4,0-0.5,0-0.7,0.1c0,0.1,0,1.1,0,1.2c0,0.5,0.1,0.8,0.1,1
			c0.3,0.1,0.8,0.1,1.3,0.1c1.4,0,1.7-0.7,1.8-1h0.2c0,0.5-0.1,0.8-0.4,1.3c-1.3-0.1-1.6-0.1-2.5-0.1c-0.9,0-1.3,0-2.2,0.1l0-0.2
			c0.3-0.1,0.5-0.1,0.6-0.4c0.1-0.5,0.1-2,0.1-2.6c0-0.2-0.1-1.3-0.1-1.6c0-0.5-0.1-0.5-0.5-0.6c0,0-0.1,0-0.1,0v-0.2h3
			c0.7,0,1,0,1.6,0c0,0.6-0.1,1.2-0.2,1.2c0,0-0.1,0-0.2,0c0-0.1,0.1-0.2,0.1-0.3c0-0.3-0.4-0.5-1.3-0.5c-0.4,0-0.8,0-1.2,0.1
			c-0.1,0.5-0.1,0.9-0.1,1.4c0,0.2,0,0.4,0,0.8c0.2,0,0.5,0,0.9,0c0.7,0,1.2-0.1,1.2-0.1c0.2-0.1,0.2-0.5,0.2-0.5h0.2V77.5z"/>
		<path class="st0" d="M89.7,74.1c-0.5,0-0.5,0.1-0.5,0.7c0,0.8,0,0.9,0,1.7c0.1,0,0.2,0,0.4,0c0.5,0,1.4,0,1.4-1.1
			C91.1,75.1,90.9,74.1,89.7,74.1z M87.5,79.3c0.4-0.1,0.6-0.2,0.6-0.5c0.1-0.2,0.1-2.3,0.1-2.7c0-1.1,0-1.3,0-1.5
			c-0.1-0.4-0.4-0.4-0.6-0.4l0-0.2c0.1,0,0.7,0,0.8,0c0.1,0,0.5,0,0.8,0c0.3,0,0.7-0.1,0.8-0.1c1.6,0,2.2,0.8,2.2,1.5
			c0,0.7-0.6,1.2-1.3,1.4c1.1,1.9,1.8,2.7,2.8,2.8v0.2c-0.9,0-2.3,0-3.8-2.9c-0.3,0-0.3,0-0.6,0c0,0.2,0,0.4,0,0.8
			c0,0.3,0,1.2,0.1,1.4c0.1,0.2,0.5,0.2,0.6,0.3l0,0.2c-0.3,0-0.5,0-0.6-0.1c-0.2,0-0.3,0-0.6,0c-0.4,0-0.5,0-1.2,0.1V79.3z"/>
		<path class="st0" d="M94.5,77.9c0.1,0.4,0.2,0.7,0.9,1c0.4,0.2,0.9,0.3,1.3,0.3c0.2,0,0.9-0.1,0.9-0.9c0-0.7-0.7-1-1.5-1.3
			c-0.9-0.3-1.6-0.6-1.6-1.6c0-0.9,0.8-1.6,2-1.6c0.2,0,1.2,0.1,1.3,0.1c0.1,0,0.2,0,0.3-0.1l0.2,0c0,0.1,0,0.5,0,0.5
			c0,0.1,0,0.5,0,0.5v0.3h-0.2c-0.2-1.1-1.5-1.1-1.6-1.1c-0.9,0-1.1,0.6-1.1,1c0,0.4,0.2,0.8,1.3,1.1c0.8,0.3,1.8,0.6,1.8,1.7
			c0,0.6-0.3,1.5-2.2,1.5c-0.5,0-0.9-0.1-1.4-0.1c0,0-0.1,0-0.1,0c-0.1,0-0.1,0-0.1,0.1h-0.3c0-0.5-0.1-0.8-0.3-1.5L94.5,77.9z"/>
		<path class="st0" d="M99.8,79.2c0.3,0,0.8-0.1,0.9-0.3c0.2-0.3,0.2-1.8,0.2-2.2c0-0.4,0-2.1-0.1-2.3c0-0.1-0.1-0.2-0.8-0.2l0-0.2
			c0.1,0,0.5,0,0.8,0c0.4,0,0.7,0,0.7,0c0.2,0,1.1,0,1.3,0v0.3c-0.5,0-0.6,0-0.7,0.1c-0.2,0.2-0.2,1.8-0.2,2.2c0,0.4,0,2.1,0.1,2.3
			c0.1,0.3,0.1,0.3,0.8,0.4l0,0.2l-1.5,0c-0.7,0-1.1,0-1.4,0V79.2z"/>
		<path class="st0" d="M109.3,74.6c-0.3-0.2-1-0.2-1.4-0.2c-0.4,0-0.4,0-0.6,0c0,0.8-0.1,2.3-0.1,3.8c0,0.9,0.1,1,0.5,1
			c0.3,0,0.4,0,0.5,0.1l0,0.2c-0.2,0-0.8-0.1-0.9-0.1c-0.9,0-1,0-2,0.1l-0.1-0.2c0.2,0,0.9-0.2,0.9-0.3c0.1-0.2,0.1-1.9,0.1-2.2
			c0-0.8,0-2.1-0.1-2.4c-0.3,0-0.4,0-0.9,0c-1.2,0-1.3,0.2-1.4,0.5l-0.2-0.1c0.2-0.5,0.3-0.8,0.4-1h0.2c0.1,0.1,0.3,0.1,0.4,0.1
			c0.4,0,1.8,0,2.3,0c0.7,0,2.1,0,2.7,0c0.1,0,0.2,0,0.2-0.1l0.1,0.1c-0.1,0.2-0.2,0.5-0.3,0.9l-0.3,0L109.3,74.6z"/>
		<path class="st0" d="M114.5,76.8c0,0.3,0,1.9,0,2.1c0,0.2,0.6,0.3,0.8,0.3l0,0.2c-0.3,0-0.8-0.1-1.2-0.1c-0.2,0-1.2,0.1-1.4,0.1
			l0-0.2c0.6,0,0.7-0.2,0.7-0.3c0.1-0.2,0.1-1.4,0.1-1.7c0-0.1,0-0.2,0-0.3c-0.3-0.4-0.5-0.8-1.5-2c-0.4-0.4-0.6-0.7-1.3-0.7l0-0.2
			c0.1,0,0.4,0,0.6,0c0.3,0,0.6,0,0.6,0l1.3,0l0,0.2c-0.1,0-0.5,0-0.5,0.2c0,0.2,1.1,1.5,1.6,2.1c1.2-1.7,1.3-1.8,1.3-2
			c0-0.3-0.3-0.3-0.6-0.3l0-0.3c0.1,0,0.3,0,0.5,0c0.2,0,0.4,0,0.6,0c0.2,0,0.8,0,1,0l0,0.3c-0.7,0-1,0.2-2.1,2L114.5,76.8z"/>
		<path class="st0" d="M142.2,74.6c-0.3-0.2-1-0.2-1.4-0.2c-0.4,0-0.4,0-0.6,0c0,0.8-0.1,2.3-0.1,3.8c0,0.9,0.1,1,0.5,1
			c0.3,0,0.4,0,0.5,0.1l0,0.2c-0.2,0-0.8-0.1-0.9-0.1c-0.9,0-1,0-2,0.1l-0.1-0.2c0.2,0,0.9-0.2,0.9-0.3c0.1-0.2,0.1-1.9,0.1-2.2
			c0-0.8,0-2.1-0.1-2.4c-0.3,0-0.4,0-0.9,0c-1.2,0-1.3,0.2-1.4,0.5l-0.2-0.1c0.2-0.5,0.3-0.8,0.4-1h0.2c0.1,0.1,0.3,0.1,0.4,0.1
			c0.4,0,1.8,0,2.3,0c0.7,0,2.1,0,2.7,0c0.1,0,0.2,0,0.2-0.1l0.1,0.1c-0.1,0.2-0.2,0.5-0.3,0.9l-0.3,0L142.2,74.6z"/>
		<path class="st0" d="M146.9,79.2c0.6,0,1.9-0.3,1.9-2c0-1.1-0.6-3.1-2.3-3.1c-0.5,0-1.9,0.2-1.9,2
			C144.6,77.6,145.3,79.2,146.9,79.2z M146.7,73.8c1.7,0,3.1,1.3,3.1,2.9c0,1.5-1.3,2.9-3.2,2.9c-2,0-3.2-1.4-3.2-2.9
			C143.5,74.9,145.1,73.8,146.7,73.8z"/>
		<path class="st0" d="M124.2,79.2c0.6,0,1.9-0.3,1.9-2c0-1.1-0.6-3.1-2.3-3.1c-0.5,0-1.9,0.2-1.9,2
			C121.9,77.6,122.6,79.2,124.2,79.2z M124,73.8c1.7,0,3.1,1.3,3.1,2.9c0,1.5-1.3,2.9-3.2,2.9c-2,0-3.2-1.4-3.2-2.9
			C120.8,74.9,122.4,73.8,124,73.8z"/>
		<path class="st0" d="M153.1,74.1c-0.5,0-0.5,0.1-0.5,0.7c0,0.8,0,0.9,0,1.7c0.1,0,0.2,0,0.4,0c0.5,0,1.4,0,1.4-1.1
			C154.5,75.1,154.3,74.1,153.1,74.1z M150.9,79.3c0.4-0.1,0.6-0.2,0.6-0.5c0.1-0.2,0.1-2.3,0.1-2.7c0-1.1,0-1.3,0-1.5
			c-0.1-0.4-0.4-0.4-0.6-0.4l0-0.2c0.1,0,0.7,0,0.8,0c0.1,0,0.5,0,0.8,0c0.3,0,0.7-0.1,0.8-0.1c1.6,0,2.2,0.8,2.2,1.5
			c0,0.7-0.6,1.2-1.3,1.4c1.1,1.9,1.8,2.7,2.8,2.8v0.2c-0.9,0-2.3,0-3.8-2.9c-0.3,0-0.3,0-0.6,0c0,0.2,0,0.4,0,0.8
			c0,0.3,0,1.2,0.1,1.4c0.1,0.2,0.5,0.2,0.6,0.3l0,0.2c-0.3,0-0.5,0-0.6-0.1c-0.2,0-0.3,0-0.6,0c-0.4,0-0.5,0-1.2,0.1V79.3z"/>
		<path class="st0" d="M160.8,79.2c0.6,0,1.9-0.3,1.9-2c0-1.1-0.6-3.1-2.3-3.1c-0.5,0-1.9,0.2-1.9,2
			C158.5,77.6,159.2,79.2,160.8,79.2z M160.6,73.8c1.7,0,3.2,1.3,3.2,2.9c0,1.5-1.3,2.9-3.2,2.9c-2,0-3.2-1.4-3.2-2.9
			C157.4,74.9,159,73.8,160.6,73.8z"/>
		<path class="st0" d="M170.5,77.9c0-0.3,0-1.5,0-1.8c0-1.9-0.1-2-1-2l0.1-0.2c0.1,0,0.1,0,0.2,0c0.1,0,0.3,0,0.5,0
			c0.2,0,0.4,0,0.5,0c0,0,0.7,0,0.8,0v0.2c-0.1,0-0.4,0-0.5,0.2c-0.2,0.3-0.2,1.8-0.2,2.3c0,0.3,0,1.6,0,1.9c0,0.1,0,0.5,0,0.7
			l0,0.3h-0.3c-0.3-0.6-0.8-1-1.3-1.5l-2.9-2.6c-0.1-0.1-0.3-0.2-0.4-0.3c0,0.2,0,0.6,0,0.8l0,2c0,0.8,0,1.1,1.1,1.3
			c0,0.1,0,0.2,0,0.2c-0.1,0-0.2,0-0.4,0c-0.1,0-0.3,0-0.5,0c-0.2,0-1.1,0.1-1.3,0.1c0-0.1,0-0.1,0-0.2c0.6,0,0.7-0.3,0.7-1.1l0-2.6
			c0-0.7,0-1.3-0.8-1.4c0-0.1,0-0.1,0-0.3c0,0,0.2,0,0.4,0c0.2,0,0.4,0,0.5,0h0.4c0.6,0.6,0.6,0.7,2.2,2.1c0.4,0.4,0.9,0.8,1.3,1.2
			L170.5,77.9z"/>
		<path class="st0" d="M178.1,74.6c-0.3-0.2-1-0.2-1.4-0.2c-0.4,0-0.4,0-0.6,0c0,0.8-0.1,2.3-0.1,3.8c0,0.9,0.1,1,0.5,1
			c0.3,0,0.4,0,0.5,0.1l0,0.2c-0.2,0-0.8-0.1-0.9-0.1c-0.9,0-1,0-2,0.1l-0.1-0.2c0.2,0,0.9-0.2,0.9-0.3c0.1-0.2,0.1-1.9,0.1-2.2
			c0-0.8,0-2.1-0.1-2.4c-0.3,0-0.4,0-0.9,0c-1.2,0-1.3,0.2-1.4,0.5l-0.2-0.1c0.2-0.5,0.3-0.8,0.4-1h0.2c0.1,0.1,0.3,0.1,0.4,0.1
			c0.4,0,1.8,0,2.3,0c0.7,0,2.1,0,2.7,0c0.1,0,0.2,0,0.2-0.1l0.1,0.1c-0.1,0.2-0.2,0.5-0.3,0.9l-0.3,0L178.1,74.6z"/>
		<path class="st0" d="M182.8,79.2c0.6,0,1.9-0.3,1.9-2c0-1.1-0.6-3.1-2.3-3.1c-0.5,0-1.9,0.2-1.9,2
			C180.5,77.6,181.3,79.2,182.8,79.2z M182.7,73.8c1.7,0,3.1,1.3,3.1,2.9c0,1.5-1.3,2.9-3.2,2.9c-2,0-3.2-1.4-3.2-2.9
			C179.4,74.9,181,73.8,182.7,73.8z"/>
	</g>
	<rect x="55.3" y="47.2" class="st0" width="152.5" height="0.3"/>
	<rect x="55.3" y="70.7" class="st0" width="152.6" height="0.3"/>
	<g>
		<path class="st0" d="M60.3,40.1h2.1c1.5,0,3,0,3-2.2c0-2.1-1.4-2.1-2.7-2.1h-2.3V40.1z M60.3,32h1.4c1.4,0,3.1,0.1,3.1-2.3
			c0-1.6-1.6-1.6-2.7-1.6h-1.8V32z M55.2,24.1h10.5c1.5,0,4.1,1.3,4.1,4.9c0,2.4-0.9,4.2-3,4.8v0.1c2.1,0.3,3.6,2.1,3.6,4.9
			c0,4.4-2.7,5.3-6.4,5.3h-8.8V24.1z"/>
		<polygon class="st0" points="72.2,24.1 76.9,24.1 76.9,40.1 82.7,40.1 82.7,44 72.2,44 		"/>
		<path class="st0" d="M86.9,34.1c0,3.1,1.4,6,4.4,6c2.9,0,4.4-2.9,4.4-6c0-3.1-1.4-6-4.4-6C88.3,28.1,86.9,31,86.9,34.1z M82,34.1
			c0-6.6,3.8-10.3,9.3-10.3c5.5,0,9.3,3.7,9.3,10.3c0,6.6-3.8,10.4-9.3,10.4C85.8,44.4,82,40.7,82,34.1z"/>
		<path class="st0" d="M106.4,34.1c0,3.1,1.4,6,4.4,6c2.9,0,4.4-2.9,4.4-6c0-3.1-1.4-6-4.4-6C107.8,28.1,106.4,31,106.4,34.1z
			 M101.5,34.1c0-6.6,3.8-10.3,9.3-10.3c5.5,0,9.3,3.7,9.3,10.3c0,6.6-3.8,10.4-9.3,10.4C105.3,44.4,101.5,40.7,101.5,34.1z"/>
		<polygon class="st0" points="128.5,24.1 131.4,36.6 131.5,36.6 134.5,24.1 141.4,24.1 141.4,44 137,44 137,29.7 137,29.7 
			133.5,44 129,44 125.6,29.8 125.6,29.8 125.6,44 121.5,44 121.5,24.1 		"/>
		<path class="st0" d="M148.7,40.1h2.1c1.5,0,3,0,3-2.2c0-2.1-1.4-2.1-2.7-2.1h-2.3V40.1z M148.7,32h1.4c1.4,0,3.1,0.1,3.1-2.3
			c0-1.6-1.6-1.6-2.7-1.6h-1.8V32z M143.6,24.1h10.5c1.5,0,4.1,1.3,4.1,4.9c0,2.4-0.9,4.2-3,4.8v0.1c2.1,0.3,3.6,2.1,3.6,4.9
			c0,4.4-2.7,5.3-6.4,5.3h-8.8V24.1z"/>
		<polygon class="st0" points="172.7,31.9 172.7,36.1 165.7,36.1 165.7,39.8 174,39.8 174,44 160.4,44 160.4,24.1 174,24.1 
			174,28.4 165.7,28.4 165.7,31.9 		"/>
		<path class="st0" d="M202.8,27.9c-1.7,0-3,0.5-4,1.7c-1,1.1-1.5,2.8-1.5,4.6c0,1.7,0.4,3,1.3,4.2c0.9,1.2,2.1,1.6,3.4,1.6
			c0.2,0,0.5,0,1-0.1v-5h5v8.5c-2,0.7-3.8,1-5.4,1c-3,0-5.5-1-7.5-3c-2-2-3-4.5-3-7.6c0-3,1-5.4,2.9-7.3c1.9-1.9,4.4-2.8,7.4-2.8
			c2.6,0,4.4,0.9,5.8,1.8l-1.9,3.2C204.4,28,203.7,27.9,202.8,27.9z"/>
		<path class="st0" d="M182,33.4c-0.1-0.2-0.2-0.4,0.3-0.4c0.3,0,0.5,0,0.8,0c1.5,0,3-0.7,3-2.6c0-2.1-1.6-2.1-2.4-2.1h-2.6V44h-5.1
			v-20h9c4.4,0,6.1,2.1,6.1,6.1c0,2.4-1.4,4.1-3.7,5.1c1.2,3,2.4,6.1,3.7,8.8h-5.7C184.4,40.4,183.3,36.9,182,33.4z"/>
	</g>
	<g>
		<path class="st0" d="M60.5,54.8c0,0.3-0.1,0.4-0.4,1.4c-0.2,0-0.4-0.1-0.7-0.1c-0.3,0-0.7,0-1.4,0h-2.8l0-0.3
			c0.2,0,0.4-0.1,0.6-0.2c0.2-0.2,0.2-0.3,0.2-2.8c0-1.9,0-2,0-2.3c-0.1-0.4-0.3-0.5-0.6-0.5v-0.2c0.4,0,0.5,0,1.2,0
			c0.8,0,1,0,1.3,0v0.3c-0.3,0-0.6,0.1-0.7,0.3c-0.1,0.3-0.2,2.1-0.2,2.5l0,1.5c0,0.6,0,0.9,0.1,1.1c0.1,0.2,0.3,0.2,0.8,0.2
			c2,0,2.2-0.4,2.4-0.9L60.5,54.8z"/>
		<path class="st0" d="M63.6,54.7c-0.1,0.2-0.2,0.6-0.2,0.7c0,0.4,0.5,0.4,0.8,0.5v0.2c-0.1,0-0.4,0-0.7,0c-0.3,0-0.6,0-0.6,0
			c-0.1,0-0.5,0-0.7,0v-0.2c0.2,0,0.4-0.1,0.6-0.4c0.4-0.6,2.1-4.8,2.2-5.2c0.1-0.3,0.2-0.4,0.2-0.6h0.3c0.1,0.2,0.1,0.4,0.2,0.8
			c0.2,0.6,1.2,3.2,1.4,3.7c0.6,1.6,0.8,1.6,1.2,1.7v0.2c-0.2,0-0.5,0-0.9,0c-0.6,0-1.1,0.1-1.4,0.1v-0.2c0.3,0,0.5-0.1,0.5-0.4
			c0-0.1-0.5-1.5-0.5-1.6c-0.2,0-0.3,0-0.7,0c-0.4,0-0.9,0-1.3,0.1L63.6,54.7z M64.1,53.5c0.3,0,0.7,0.1,1.1,0.1c0.3,0,0.5,0,0.7,0
			c-0.3-0.7-0.6-1.5-0.9-2.2L64.1,53.5z"/>
		<path class="st0" d="M78.4,50.1c-0.5,0.1-0.7,0.2-0.9,0.6c-0.4,0.6-1.8,4.8-2.2,5.7h-0.2c0-0.1-0.1-0.4-0.2-0.5
			c-0.4-1.2-0.8-2.4-1.3-3.6c-1.2,2.6-1.4,3.2-1.7,4.1h-0.2c-0.3-0.5-1.7-5.6-2.3-6c-0.2-0.2-0.4-0.2-0.7-0.2v-0.3
			c0.2,0,0.5,0,0.8,0c0.3,0,0.6,0,0.7,0c0.1,0,0.4,0,0.7,0c0.3,0,0.6,0,0.7,0l0,0.3c-0.8,0.1-0.8,0.2-0.8,0.4c0,0.2,0.9,2.8,1.4,4
			c0.5-1.1,0.7-1.6,1.2-2.8c-0.6-1.5-0.7-1.6-1.2-1.6l0-0.3h0.8c0.8,0,1.6,0,1.9,0l0,0.3c-0.6,0.1-0.7,0.2-0.7,0.4
			c0,0.5,1.2,3.6,1.4,4.1c0.5-1.2,1.3-3.4,1.3-3.9c0-0.6-0.6-0.6-0.9-0.6L76,49.9c0.4,0,0.9,0,1.3,0c0.5,0,0.9,0,1.2-0.1L78.4,50.1z
			"/>
		<path class="st0" d="M80.3,56c0.4-0.1,0.6-0.2,0.7-0.5c0.1-0.3,0.1-2.6,0.1-3.1c0-1.3,0-1.5,0-1.7c-0.1-0.5-0.5-0.5-0.7-0.5l0-0.3
			c0.1,0,0.7,0,0.9,0c0.1,0,0.5,0,0.8-0.1c0.4,0,0.7-0.1,0.8-0.1c1.6,0,2.3,0.9,2.3,1.7c0,0.7-0.6,1.4-1.4,1.6
			c1.1,2.2,1.9,3.1,2.9,3.1v0.3c-1,0-2.4,0-4-3.3c-0.3,0-0.4,0-0.6,0c0,0.2,0,0.4,0,1c0,0.3,0,1.3,0.1,1.5c0.1,0.2,0.5,0.3,0.7,0.3
			l0,0.2c-0.3,0-0.5-0.1-0.7-0.1c-0.2,0-0.3,0-0.6,0c-0.4,0-0.5,0-1.2,0.1V56z M82.6,50.1c-0.5,0-0.5,0.1-0.6,0.8c0,1,0,1.1,0,1.9
			c0.2,0,0.2,0,0.5,0c0.5,0,1.5,0,1.5-1.3C84,51.2,83.8,50.1,82.6,50.1z"/>
		<path class="st0" d="M92.8,54h-0.2c-0.1-0.9-0.1-0.9-1.7-0.9c-0.4,0-0.5,0-0.8,0.1c0,0.1,0,1.3,0,1.3c0,0.6,0.1,0.9,0.1,1.2
			c0.3,0.1,0.8,0.1,1.4,0.1c1.5,0,1.8-0.8,1.9-1.1h0.2c-0.1,0.6-0.1,0.9-0.4,1.5c-1.3-0.1-1.7-0.1-2.6-0.1c-0.9,0-1.4,0-2.3,0.1
			l0-0.3c0.4-0.1,0.6-0.1,0.6-0.5c0.1-0.6,0.1-2.3,0.1-3c0-0.3-0.1-1.5-0.1-1.8c0-0.6-0.1-0.6-0.5-0.7c0,0-0.1,0-0.1,0v-0.2h3.2
			c0.7,0,1.1,0,1.7-0.1c0,0.7-0.1,1.3-0.3,1.3c-0.1,0-0.1,0-0.2,0c0-0.1,0.1-0.3,0.1-0.4c0-0.4-0.4-0.6-1.4-0.6
			c-0.4,0-0.8,0.1-1.3,0.1c-0.1,0.6-0.1,1-0.1,1.6c0,0.2,0,0.4,0,0.9c0.2,0,0.6,0,0.9,0c0.7,0,1.2-0.1,1.3-0.1
			c0.2-0.1,0.3-0.6,0.3-0.6h0.2V54z"/>
		<path class="st0" d="M101.6,54.4c0-0.3,0-1.7,0-2c0-2.1-0.1-2.2-1-2.3l0.1-0.2c0.1,0,0.2,0,0.3,0c0.1,0,0.3,0,0.5,0
			c0.2,0,0.5,0,0.6,0c0.1,0,0.7,0,0.8,0v0.3c-0.1,0-0.4,0-0.5,0.2c-0.2,0.4-0.2,2.1-0.2,2.6c0,0.3,0,1.8,0,2.1c0,0.1,0,0.5,0,0.8
			l0,0.4h-0.3c-0.3-0.6-0.9-1.2-1.4-1.7l-3.1-3c-0.1-0.1-0.3-0.3-0.4-0.4c0,0.2,0,0.7,0,0.9l0,2.3c0,0.9,0,1.3,1.1,1.5
			c0,0.1,0,0.2,0,0.3c-0.1,0-0.3,0-0.4-0.1c-0.1,0-0.3,0-0.6,0c-0.2,0-1.2,0.1-1.4,0.1c0-0.1,0-0.1,0-0.3c0.6,0,0.7-0.4,0.7-1.2
			l0.1-2.9c0-0.8,0-1.5-0.8-1.6c0-0.1,0-0.2,0-0.3c0.1,0,0.3,0,0.5,0c0.2,0,0.4,0,0.5,0H97c0.6,0.7,0.7,0.7,2.4,2.4
			c0.5,0.5,0.9,0.9,1.4,1.4L101.6,54.4z"/>
		<path class="st0" d="M110.2,55.9c-0.9,0.3-1.9,0.3-2,0.3c-1.9,0-3.4-1.4-3.4-3.2c0-2.2,1.8-3.2,3.6-3.2c0.4,0,0.8,0.1,1.2,0.2
			c0.1,0,0.3,0.1,0.4,0.1s0.2,0,0.3-0.1l0.1,0c0,0.2-0.3,1.1-0.3,1.4l-0.2,0c-0.1-0.4-0.1-0.6-0.2-0.7c-0.1-0.2-0.7-0.6-1.6-0.6
			c-2.2,0-2.2,2.3-2.2,2.8c0,2.8,2,3,2.4,3c0.9,0,1.6-0.5,1.9-1.3l0.2,0c0,0.1,0,0.2-0.1,0.5c0,0.1-0.1,0.4-0.1,0.5L110.2,55.9z"/>
		<path class="st0" d="M117.1,54h-0.2c-0.1-0.9-0.1-0.9-1.7-0.9c-0.4,0-0.5,0-0.8,0.1c0,0.1,0,1.3,0,1.3c0,0.6,0.1,0.9,0.1,1.2
			c0.3,0.1,0.8,0.1,1.4,0.1c1.5,0,1.8-0.8,1.9-1.1h0.2c-0.1,0.6-0.1,0.9-0.4,1.5c-1.3-0.1-1.7-0.1-2.6-0.1c-0.9,0-1.4,0-2.3,0.1
			l0-0.3c0.4-0.1,0.6-0.1,0.6-0.5c0.1-0.6,0.1-2.3,0.1-3c0-0.3-0.1-1.5-0.1-1.8c0-0.6-0.1-0.6-0.5-0.7c0,0-0.1,0-0.1,0v-0.2h3.2
			c0.7,0,1.1,0,1.7-0.1c0,0.7-0.1,1.3-0.3,1.3c-0.1,0-0.1,0-0.2,0c0-0.1,0.1-0.3,0.1-0.4c0-0.4-0.4-0.6-1.4-0.6
			c-0.4,0-0.8,0.1-1.3,0.1c-0.1,0.6-0.1,1-0.1,1.6c0,0.2,0,0.4,0,0.9c0.2,0,0.6,0,0.9,0c0.7,0,1.2-0.1,1.3-0.1
			c0.2-0.1,0.3-0.6,0.3-0.6h0.2V54z"/>
		<path class="st0" d="M124.9,54.4c0.1,0.5,0.3,0.8,1,1.2c0.4,0.2,1,0.3,1.4,0.3c0.2,0,1-0.1,1-1c0-0.8-0.7-1.1-1.6-1.4
			c-0.9-0.3-1.7-0.7-1.7-1.8c0-1,0.9-1.8,2.1-1.8c0.2,0,1.2,0.1,1.4,0.1c0.1,0,0.2,0,0.3-0.1l0.2,0c0,0.1,0,0.6,0,0.6
			c0,0.1,0,0.6,0,0.6v0.3h-0.2c-0.2-1.3-1.6-1.3-1.7-1.3c-0.9,0-1.1,0.7-1.1,1.1c0,0.5,0.2,0.9,1.4,1.3c0.8,0.3,1.9,0.7,1.9,2
			c0,0.7-0.4,1.8-2.3,1.8c-0.5,0-1-0.1-1.4-0.2c0,0-0.1,0-0.1,0c-0.1,0-0.1,0.1-0.1,0.1h-0.3c0-0.5-0.1-0.9-0.3-1.7L124.9,54.4z"/>
		<path class="st0" d="M132.3,55.8c-0.1,0.1-0.3,0.2-0.4,0.4c-0.1,0.2-0.2,0.2-0.3,0.2c-0.1,0-0.1-0.1-0.2-0.2
			c-0.1-0.2-0.2-0.2-0.3-0.3c-0.1,0-0.2-0.1-0.2-0.2c0-0.1,0.1-0.1,0.2-0.2c0.1-0.1,0.4-0.5,0.6-0.5c0.1,0,0.1,0,0.2,0.2
			c0,0,0.2,0.3,0.3,0.3c0,0,0.1,0.1,0.2,0.1L132.3,55.8z"/>
		<path class="st0" d="M138.3,55.9c0.7,0,0.8-0.1,0.8-2.8c0-2.5,0-2.6-0.2-2.8c-0.1-0.2-0.4-0.2-0.5-0.2v-0.3c0.3,0,0.5,0,1,0
			c0.1,0,0.4,0,0.7,0c0.3,0,0.6,0,0.7,0c1.3,0,1.9,0.7,1.9,1.5c0,0.6-0.3,1.2-1.3,1.4v0c1.7,0.2,1.9,1.3,1.9,1.8
			c0,0.7-0.5,1.7-2.4,1.7c-0.1,0-0.4,0-0.7,0c-0.3,0-0.6,0-0.8,0c-0.6,0-0.7,0-1,0.1V55.9z M140.4,50.2c-0.2,0-0.3,0-0.3,0.2
			c-0.1,0.4-0.1,1.8-0.1,2.3c1.1,0.1,1.4-0.4,1.4-1.1C141.4,50.9,141.2,50.2,140.4,50.2z M140.4,52.9c-0.1,0-0.2,0-0.3,0
			c0,2.2,0,2.5,0,2.7c0,0.2,0.1,0.2,0.5,0.2c1.3,0,1.5-0.6,1.5-1.3C142.1,53,140.7,52.9,140.4,52.9z"/>
		<path class="st0" d="M150.4,54.8c0,0.3-0.1,0.4-0.4,1.4c-0.2,0-0.4-0.1-0.7-0.1c-0.3,0-0.7,0-1.4,0h-2.8l0-0.3
			c0.2,0,0.4-0.1,0.6-0.2c0.2-0.2,0.2-0.3,0.2-2.8c0-1.9,0-2,0-2.3c-0.1-0.4-0.3-0.5-0.6-0.5v-0.2c0.4,0,0.5,0,1.2,0
			c0.8,0,1,0,1.3,0v0.3c-0.3,0-0.6,0.1-0.7,0.3c-0.1,0.3-0.2,2.1-0.2,2.5l0,1.5c0,0.6,0,0.9,0.1,1.1c0.1,0.2,0.3,0.2,0.8,0.2
			c2,0,2.2-0.4,2.4-0.9L150.4,54.8z"/>
		<path class="st0" d="M155.5,49.8c1.8,0,3.3,1.4,3.3,3.3c0,1.7-1.3,3.3-3.4,3.3c-2.1,0-3.4-1.6-3.4-3.3
			C152.1,51,153.7,49.8,155.5,49.8z M155.7,55.9c0.6,0,2-0.4,2-2.3c0-1.3-0.6-3.5-2.4-3.5c-0.5,0-2,0.2-2,2.3
			C153.2,54.1,154,55.9,155.7,55.9z"/>
		<path class="st0" d="M164.4,49.8c1.8,0,3.3,1.4,3.3,3.3c0,1.7-1.3,3.3-3.4,3.3c-2.1,0-3.4-1.6-3.4-3.3
			C161,51,162.7,49.8,164.4,49.8z M164.6,55.9c0.6,0,2-0.4,2-2.3c0-1.3-0.6-3.5-2.4-3.5c-0.5,0-2,0.2-2,2.3
			C162.2,54.1,163,55.9,164.6,55.9z"/>
		<path class="st0" d="M170.9,51.9c0-0.3,0-0.6,0-0.7c0-0.8-0.3-1-1.1-1.1l0-0.3c0.1,0,0.3,0,0.5,0c1,0.1,1,0.1,1.5,0
			c0.8,1.6,0.9,2,1.7,3.3c0.1,0.2,0.7,1.3,0.7,1.3c0.2-0.5,0.2-0.5,0.6-1.2l0.5-1l1.2-2.4h1.7v0.3c-0.7,0.1-0.9,0.2-0.9,1.2
			c0,0.3,0,3.4,0.2,4c0.1,0.3,0.2,0.4,0.8,0.4v0.3H177c-0.9,0-1.1,0-1.5,0l0-0.3c0.7-0.2,0.9-0.3,0.9-1.4c0-1-0.1-2.4-0.1-3.3h0
			c-1.3,2.4-1.7,3.4-2.4,4.9h-0.2c-0.3-0.9-0.4-1.1-1.5-3.1c-0.3-0.5-0.7-1.3-0.8-1.5h0c0,0.3,0,0.4-0.1,0.8c-0.1,1-0.2,1.9-0.2,2.8
			c0,0.7,0,0.8,0.9,0.9l0,0.2c-0.3,0-0.5,0-0.7,0c-0.2,0-0.4,0-0.5,0c-0.2,0-0.5,0-0.6,0c-0.2,0-0.4,0-0.5,0l0-0.2
			c1-0.1,1-0.6,1-1.8L170.9,51.9z"/>
		<path class="st0" d="M180.2,55.9c0.7,0,0.8-0.1,0.8-2.8c0-2.5,0-2.6-0.2-2.8c-0.1-0.2-0.4-0.2-0.5-0.2v-0.3c0.3,0,0.5,0,1,0
			c0.1,0,0.4,0,0.7,0c0.3,0,0.6,0,0.7,0c1.3,0,1.9,0.7,1.9,1.5c0,0.6-0.3,1.2-1.3,1.4v0c1.7,0.2,1.9,1.3,1.9,1.8
			c0,0.7-0.5,1.7-2.4,1.7c-0.1,0-0.4,0-0.7,0c-0.3,0-0.6,0-0.8,0c-0.6,0-0.7,0-1,0.1V55.9z M182.3,50.2c-0.2,0-0.3,0-0.3,0.2
			c-0.1,0.4-0.1,1.8-0.1,2.3c1.1,0.1,1.4-0.4,1.4-1.1C183.4,50.9,183.1,50.2,182.3,50.2z M182.3,52.9c-0.1,0-0.2,0-0.3,0
			c0,2.2,0,2.5,0,2.7c0,0.2,0.1,0.2,0.5,0.2c1.3,0,1.5-0.6,1.5-1.3C184,53,182.6,52.9,182.3,52.9z"/>
		<path class="st0" d="M191.6,54h-0.2c-0.1-0.9-0.1-0.9-1.7-0.9c-0.4,0-0.5,0-0.8,0.1c0,0.1,0,1.3,0,1.3c0,0.6,0.1,0.9,0.1,1.2
			c0.3,0.1,0.8,0.1,1.4,0.1c1.5,0,1.8-0.8,1.9-1.1h0.2c-0.1,0.6-0.1,0.9-0.4,1.5c-1.3-0.1-1.7-0.1-2.6-0.1c-0.9,0-1.4,0-2.3,0.1
			l0-0.3c0.4-0.1,0.6-0.1,0.6-0.5c0.1-0.6,0.1-2.3,0.1-3c0-0.3-0.1-1.5-0.1-1.8c0-0.6-0.1-0.6-0.5-0.7c0,0-0.1,0-0.1,0v-0.2h3.2
			c0.7,0,1.1,0,1.7-0.1c0,0.7-0.1,1.3-0.3,1.3c-0.1,0-0.1,0-0.2,0c0-0.1,0.1-0.3,0.1-0.4c0-0.4-0.4-0.6-1.4-0.6
			c-0.4,0-0.8,0.1-1.3,0.1c-0.1,0.6-0.1,1-0.1,1.6c0,0.2,0,0.4,0,0.9c0.2,0,0.6,0,0.9,0c0.7,0,1.2-0.1,1.3-0.1
			c0.2-0.1,0.3-0.6,0.3-0.6h0.2V54z"/>
		<path class="st0" d="M194.3,56c0.4-0.1,0.6-0.2,0.7-0.5c0.1-0.3,0.1-2.6,0.1-3.1c0-1.3,0-1.5,0-1.7c-0.1-0.5-0.5-0.5-0.7-0.5
			l0-0.3c0.1,0,0.7,0,0.9,0c0.1,0,0.5,0,0.8-0.1c0.4,0,0.7-0.1,0.8-0.1c1.6,0,2.3,0.9,2.3,1.7c0,0.7-0.6,1.4-1.4,1.6
			c1.1,2.2,1.9,3.1,2.9,3.1v0.3c-1,0-2.4,0-4-3.3c-0.3,0-0.4,0-0.6,0c0,0.2,0,0.4,0,1c0,0.3,0,1.3,0.1,1.5c0.1,0.2,0.5,0.3,0.7,0.3
			l0,0.2c-0.3,0-0.5-0.1-0.7-0.1c-0.2,0-0.3,0-0.6,0c-0.4,0-0.5,0-1.2,0.1V56z M196.7,50.1c-0.5,0-0.5,0.1-0.6,0.8c0,1,0,1.1,0,1.9
			c0.2,0,0.2,0,0.5,0c0.5,0,1.5,0,1.5-1.3C198.1,51.2,197.9,50.1,196.7,50.1z"/>
		<path class="st0" d="M207.3,51.4c-0.1-0.3-0.6-1.2-2.1-1.2c-1.3,0-2.5,1-2.5,2.8c0,1.8,1.3,2.9,2.6,2.9c0.4,0,1-0.1,1.2-0.5
			c0.1-0.2,0.1-0.5,0.1-0.7c0-1.4,0-1.4-1.1-1.4l0-0.3c0.3,0,1.5,0,1.8,0l0.7,0v0.3c-0.4,0.1-0.4,0.2-0.4,1.3c0,1,0.1,1.1,0.2,1.2
			v0.1c-0.5,0.1-2,0.3-2.6,0.3c-2.8,0-3.6-1.9-3.6-3.2c0-2.2,2-3.2,3.8-3.2c0.6,0,0.9,0.1,1.4,0.2c0.2,0,0.2,0,0.4-0.2h0.2
			c0.1,0.9,0.1,1.3,0.2,1.6H207.3z"/>
	</g>
	<g>
		<g>
			<g>
				<path class="st0" d="M24.4,28.2c-0.2,0.1-0.4,0.3-0.5,0.5c-0.2,0-0.3,0-0.5,0.1c-0.2,0.1-0.3,0.3-0.3,0.5c0,0,0,0.2,0,0.2
					c0,0.3,0.1,0.6,0.5,0.8c0,0,0,0.1,0,0.1c0,0.1,0,0.3,0.2,0.5c0.1,0.1,0.2,0.1,0.3,0.2c0,0.1-0.1,0.2-0.1,0.2l0,0.3
					c0.1,0.3,0.3,0.6,0.8,0.6c0,0.1,0.1,0.2,0.2,0.3c0.2,0.2,0.4,0.3,0.8,0.2c0,0.1-0.1,0.2-0.1,0.3c0,0.2,0.1,0.3,0.2,0.5
					c0.3,0.5,0.9,0.2,1.2,0.1c0.2,0.2,0.4,0.3,0.7,0.2c0.5-0.1,0.7-0.4,0.8-0.7c0,0,0.3-0.1,0.3-0.1l0.1,0c0.2-0.1,0.3-0.4,0.5-0.7
					c0.3,0.3,0.6,0.7,0.7,0.8c0.1,0.1,0.2,0.4,0.6,1c0,0,0.3,0.5,0.4,0.6c-0.1,0.6-0.4,1.1-0.8,1.3l-0.2,0.1
					c-0.6,0.3-1.2,0.6-1.6,0.9c0,0,0,0,0,0c-0.3,0-0.5,0.1-0.6,0.1C28,37.1,27.8,37,27.5,37c-0.8,0-1.1,0.4-1.2,0.7
					c-0.3,0.5-0.2,1.1,0,1.4c0.3,0.4,0.7,0.6,1.2,0.6c0.2,0,0.4-0.1,0.5-0.1c0.2,0.1,0.3,0.1,0.5,0.1c0.2,0,0.4-0.1,0.6-0.1
					c0.2,0.1,0.3,0.1,0.5,0.1c0.2,0,0.4-0.1,0.5-0.1c0.1,0.1,0.3,0.1,0.5,0.1c0.3,0,0.4-0.1,0.6-0.1c0.2,0.1,0.3,0.1,0.5,0.1
					c0.2,0,0.4-0.1,0.5-0.1c0.1,0.1,0.3,0.1,0.5,0.1c0.3,0,0.4-0.1,0.6-0.1c0.2,0.1,0.3,0.1,0.5,0.1c0.2,0,0.4-0.1,0.5-0.1
					c0.1,0.1,0.3,0.1,0.5,0.1c0.3,0,0.4-0.1,0.6-0.1c0.2,0.1,0.3,0.1,0.5,0.1c0.2,0,0.4-0.1,0.5-0.1c0.1,0.1,0.3,0.1,0.5,0.1
					c0.3,0,0.5-0.1,0.6-0.1c0.2,0.1,0.4,0.1,0.6,0.1c0.6,0,1-0.2,1.2-0.7c0.2-0.5,0.1-1.1-0.1-1.4C39,37.2,38.7,37,38.2,37
					c-0.2,0-0.4,0.1-0.5,0.1c0,0-0.1,0-0.2-0.1c-0.2-0.3-0.6-0.5-1.4-0.8l-0.1,0c-0.8-0.3-1-0.6-1.1-0.9l0,0c0-0.1-0.2-0.6-0.2-1.1
					c0-0.4,0.1-1,0.3-1.4c0.2-0.2,0.4-0.4,0.6-0.6c0.1,0.2,0.1,0.4,0.2,0.5l0,0l0,0l0.4,0.2l0-0.1c0.2,0.4,0.4,0.7,0.8,0.8
					c0.2,0,0.3,0,0.4-0.1c0.1,0.1,0.3,0.3,0.6,0.2c0.2,0,0.4-0.1,0.5-0.2c0.5,0.1,0.7-0.1,0.9-0.3l0.1-0.4v0c0-0.2-0.1-0.3-0.1-0.4
					c0,0,0.1,0,0.1,0c0.1-0.1,0.2-0.2,0.3-0.3c0.4,0,0.6-0.2,0.6-0.4c0,0,0-0.1,0-0.1c0,0,0,0,0,0c0.2,0.1,0.4,0.1,0.7,0
					c0.2-0.1,0.3-0.2,0.3-0.4c0.2,0,0.4,0,0.6-0.1c0.2-0.1,0.3-0.3,0.3-0.6c0,0,0-0.1,0-0.1c0-0.3-0.1-0.7-0.8-0.9
					c0-0.2-0.1-0.3-0.2-0.5c-0.3-0.3-0.7-0.3-1-0.2c0.1-0.1,0.2-0.1,0.2-0.2c0.4,0.1,1,0.2,1.3-0.4c0,0,0.1-0.3,0.1-0.3
					c0,0,0-0.2-0.1-0.3c0.3-0.3,0.4-0.6,0.4-0.8l-0.1-0.4c-0.2-0.4-0.5-0.5-0.9-0.5c0-0.1,0-0.2-0.1-0.2c0,0,0,0,0,0
					c0-0.1,0.1-0.3,0.1-0.3l-0.1-0.3c-0.1-0.2-0.2-0.4-0.4-0.5c-0.2-0.1-0.4-0.1-0.6,0c0.2-0.2,0.3-0.3,0.3-0.5c0,0,0-0.1,0-0.1
					c0,0,0,0,0,0c0-0.2-0.1-0.4-0.2-0.5c-0.2-0.3-0.6-0.4-1-0.3c-0.1-0.1-0.2-0.2-0.4-0.2c-0.4-0.1-0.7,0.1-0.9,0.3
					c-0.1,0-0.2-0.1-0.2-0.1l0,0c0,0-0.1,0-0.1,0c0-0.2-0.1-0.4-0.3-0.6c-0.2-0.2-0.4-0.3-0.7-0.3c-0.1,0-0.2,0-0.3,0.1
					c0.1-0.2,0.2-0.3,0.2-0.4l-0.1-0.3c-0.1-0.2-0.3-0.3-0.4-0.4c0,0,0,0,0,0c0-0.7-0.4-0.8-0.6-0.9c-0.3-0.1-0.7,0-0.9,0.3
					c-0.1,0-0.1-0.1-0.2-0.1c-0.2-0.2-0.3-0.3-0.5-0.3c-0.6-0.1-0.8,0.4-0.9,0.8c-0.1,0-0.2,0-0.4,0.1c0,0-0.1,0.1-0.2,0.2
					c0,0-0.1,0-0.1,0c-0.1-0.6-0.4-0.8-0.6-0.8c-0.2,0-0.3,0-0.4,0c-0.5-0.5-0.9-0.5-1.1-0.4l0,0c-0.3,0.1-0.4,0.4-0.4,0.7
					c0,0,0.1,0.3,0.1,0.4c-0.1,0.1-0.1,0.1-0.2,0.2c-0.3-0.1-0.6,0-0.8,0.1c-0.2,0.2-0.4,0.4-0.4,0.7c0,0.2,0.1,0.4,0.1,0.6
					c-0.1,0.1-0.2,0.3-0.3,0.4c0,0,0,0.1,0,0.1c0,0,0,0.1,0.1,0.2c-0.2,0-0.4,0.1-0.6,0.3c-0.1,0.1-0.2,0.3-0.2,0.4
					c-0.1-0.4-0.4-0.6-0.7-0.6c-0.2,0-0.3,0.1-0.4,0.2c-0.3-0.2-0.5-0.2-0.7-0.1c-0.2,0.1-0.5,0.3-0.5,0.8c0,0,0,0.2,0,0.3
					c-0.1,0.1-0.2,0.2-0.3,0.3c0,0,0,0,0,0c0,0,0,0,0,0c0,0,0,0,0,0c0,0,0,0.1-0.1,0.2c0,0,0,0,0,0c0,0.2,0.1,0.3,0.2,0.4
					c0,0,0,0,0,0c-0.1,0-0.3,0.2-0.4,0.4c-0.3,0-0.5,0.2-0.7,0.5c0,0-0.1,0.4-0.1,0.4l0,0l0.1,0.4c0.1,0.2,0.2,0.3,0.5,0.4
					C24.3,28.1,24.4,28.1,24.4,28.2C24.4,28.2,24.4,28.2,24.4,28.2z M24.7,27.9l-0.1-0.1c-0.2-0.1-0.4-0.2-0.4-0.3
					c0,0,0-0.2-0.1-0.3c0-0.1,0.1-0.4,0.1-0.4l0,0.1c0.1-0.2,0.3-0.3,0.5-0.3l0.1,0l0-0.1c0-0.2,0.2-0.3,0.3-0.3l0.5-0.1l-0.2-0.2
					c-0.1-0.1-0.2-0.3-0.2-0.4c0,0,0-0.2,0-0.2c0-0.1,0.1-0.2,0.3-0.2l0.1,0l-0.1-0.4c0-0.3,0.1-0.5,0.3-0.6c0.2-0.1,0.3,0,0.5,0.1
					l0.1,0.1l0.1-0.1c0.1-0.1,0.2-0.2,0.3-0.2c0.1,0,0.4,0.1,0.5,0.5l0,0.1c0,0,0.2-0.1,0.2-0.1c0.1,0,0.2,0.1,0.2,0.1l0.1-0.1
					l0-0.2l0,0c0-0.1,0-0.2,0.1-0.3c0.2-0.2,0.3-0.2,0.5-0.2l0.2,0l-0.1-0.2l0-0.3c0,0,0-0.1,0-0.1c0-0.1,0.1-0.2,0.2-0.3l0.1-0.1
					l-0.1-0.1c-0.1-0.2-0.2-0.3-0.2-0.5c0-0.2,0.1-0.4,0.2-0.5c0.1-0.1,0.4-0.2,0.7-0.1l0.1,0.1l0.1-0.1c0-0.1,0.1-0.2,0.2-0.2
					l0.1,0l0-0.1L30,20.8c0-0.1,0-0.3,0.3-0.4c0.3-0.1,0.6,0,0.9,0.3l0.1,0.1l0.1,0c0.1,0,0.2,0,0.3,0c0.2,0.1,0.3,0.3,0.4,0.6
					l0,0.1l0.1,0l0.1,0l0.1,0.1l0.1,0l0.1-0.1l0.2-0.2c0.1-0.1,0.2-0.1,0.3,0l0.1,0l0-0.1c0.1-0.4,0.3-0.7,0.6-0.7
					c0.1,0,0.3,0.1,0.4,0.2l0,0l0.1,0c0.1,0,0.2,0,0.2,0.1l0.1,0.1l0.1-0.1c0.2-0.3,0.5-0.4,0.7-0.3c0.2,0,0.4,0.2,0.4,0.6
					c0,0,0,0.2,0,0.2l0.1,0c0.1,0,0.2,0.1,0.3,0.3l0.1,0.2c0,0.1-0.1,0.3-0.3,0.4L36,22.4l0,0.1l0.1,0.4l0.2-0.2
					c0.2-0.1,0.3-0.2,0.5-0.2c0.2,0,0.3,0.1,0.5,0.2c0.1,0.1,0.2,0.3,0.2,0.4l0,0.2l0.2,0l0.1,0c0,0,0.2,0.1,0.2,0.1l0.1,0.1
					l0.1-0.1c0.2-0.2,0.4-0.4,0.7-0.3c0.2,0,0.2,0.1,0.3,0.2l0.1,0.1l0.1,0c0.4-0.1,0.6-0.1,0.8,0.2c0.1,0.1,0.1,0.2,0.1,0.3
					c0,0,0,0.1,0,0.1c0,0.1-0.1,0.2-0.3,0.4l-0.1,0.1l0.1,0.5L40,25c0.2-0.1,0.4-0.1,0.5,0c0.1,0,0.2,0.1,0.3,0.3l0.1,0.3
					c0,0-0.1,0.2-0.1,0.2l0,0.1l0.1,0.1L41,26c0,0,0,0.1,0,0.2l0,0.2l0.2,0c0.4-0.1,0.6,0,0.7,0.3l0.1,0.4c0,0.2-0.1,0.4-0.4,0.6
					l-0.1,0.1l0,0.1c0,0,0.1,0.2,0.1,0.2c0,0,0,0.2,0,0.2c-0.2,0.3-0.6,0.2-1,0.2l-0.1,0l-0.1,0.2c0,0.1-0.1,0.2-0.3,0.3l-0.1,0.1
					l0.1,0.2c0,0,0,0.1,0,0.1c0,0,0,0.1,0,0.1l0,0.3l0.3-0.2c0.4-0.2,0.7-0.3,0.9,0c0.1,0.1,0.2,0.2,0.2,0.4v0.1l0.1,0
					c0.4,0.1,0.6,0.3,0.6,0.6c0,0,0,0.1,0,0.1c0,0.2-0.1,0.3-0.2,0.4c-0.2,0.1-0.3,0.1-0.5,0.1l-0.1,0l0,0.1c0,0.2-0.1,0.3-0.2,0.3
					c-0.2,0.1-0.4,0-0.5,0l-0.1,0l-0.1,0.1l-0.1,0.1l0,0.1l0,0.1c-0.1,0.2-0.2,0.2-0.4,0.2l-0.1,0l0,0.1c0,0.1-0.1,0.1-0.1,0.2
					c0,0-0.2,0-0.2,0l-0.1,0L39,32.4l0.1,0.1c0.1,0.1,0.1,0.2,0.1,0.3c0,0.1-0.1,0.3-0.1,0.3c-0.1,0.1-0.2,0.2-0.6,0.2l-0.1,0
					l-0.1,0.1c-0.1,0.1-0.2,0.2-0.4,0.2c-0.2,0-0.3-0.1-0.5-0.2l-0.1-0.1l-0.1,0.1c-0.1,0.1-0.2,0.1-0.3,0.1c-0.3,0-0.4-0.3-0.6-0.6
					l0,0l-0.1,0L36,32.4c0,0-0.1-0.2-0.2-0.6l0-0.2l-0.2,0.1c-0.3,0.2-0.6,0.5-0.9,0.8c-0.3,0.5-0.4,1.1-0.4,1.6
					c0,0.6,0.1,1.1,0.2,1.3l0,0c0.2,0.3,0.4,0.7,1.3,1l0.1,0c0.8,0.3,1.1,0.5,1.3,0.8l0,0l0.4,0.1l0.1,0c0.1-0.1,0.3-0.1,0.5-0.1
					c0.4,0,0.7,0.1,0.9,0.5c0.2,0.2,0.2,0.7,0,1c-0.2,0.3-0.5,0.5-1,0.5c-0.2,0-0.4-0.1-0.6-0.1l-0.1,0l-0.1,0
					c-0.1,0.1-0.3,0.1-0.5,0.1c-0.2,0-0.3-0.1-0.4-0.1l-0.1,0l-0.1,0c-0.1,0.1-0.3,0.1-0.5,0.1c-0.1,0-0.3-0.1-0.4-0.1l-0.1,0
					l-0.1,0c-0.1,0-0.2,0.1-0.5,0.1c-0.2,0-0.3-0.1-0.4-0.1l-0.1,0l-0.1,0c-0.1,0.1-0.3,0.1-0.5,0.1c-0.1,0-0.3-0.1-0.4-0.1l-0.1,0
					l-0.1,0c-0.1,0-0.2,0.1-0.5,0.1c-0.1,0-0.3,0-0.4-0.1l-0.1,0l-0.1,0c-0.1,0.1-0.3,0.1-0.5,0.1c-0.1,0-0.3-0.1-0.4-0.1l-0.1,0
					l-0.1,0c-0.1,0-0.2,0.1-0.5,0.1c-0.2,0-0.3-0.1-0.4-0.1l-0.1,0l-0.1,0c-0.1,0.1-0.3,0.1-0.5,0.1c-0.1,0-0.3-0.1-0.4-0.1l-0.1,0
					l-0.1,0c-0.2,0.1-0.3,0.1-0.5,0.1c-0.2,0-0.3-0.1-0.5-0.1l-0.1,0l-0.1,0c-0.1,0.1-0.3,0.1-0.5,0.1c-0.4,0-0.7-0.2-1-0.5
					c-0.2-0.2-0.2-0.7,0-1.1c0.1-0.2,0.4-0.5,1-0.5c0.2,0,0.4,0,0.6,0.1l0.1,0l0.1,0c0.1-0.1,0.3-0.1,0.5-0.1l0.1,0l0,0
					c0.4-0.3,1.2-0.7,1.6-0.9l0.2-0.1c0.5-0.3,0.9-0.8,1-1.5l0-0.1L31.2,34c-0.3-0.6-0.5-0.8-0.6-1c-0.1-0.2-0.5-0.8-0.9-1.1
					l-0.2-0.1l-0.1,0.2c-0.2,0.5-0.3,0.7-0.5,0.8c0,0-0.1,0-0.2,0c0,0-0.1-0.2-0.1-0.2l-0.1,0.2c-0.1,0.3-0.3,0.5-0.7,0.6
					c-0.2,0-0.4,0-0.5-0.2l-0.1-0.1l-0.1,0.1c-0.4,0.2-0.7,0.3-0.9,0.1c-0.1-0.1-0.1-0.2-0.1-0.3c0-0.2,0.1-0.4,0.3-0.6l-0.2-0.2
					c-0.4,0.3-0.7,0.3-0.9,0.1c-0.1-0.1-0.1-0.2-0.2-0.3l0-0.1l-0.1,0c-0.4,0-0.6-0.1-0.7-0.4c0,0,0-0.1,0-0.2c0,0,0-0.1,0-0.2
					c0,0,0.3-0.2,0.3-0.2l-0.4-0.1c-0.1,0-0.3-0.1-0.4-0.2c-0.1-0.1-0.1-0.2-0.1-0.3l0.1-0.2l-0.1-0.1c-0.3-0.1-0.5-0.3-0.5-0.6
					c0,0,0-0.1,0-0.1c0-0.1,0.1-0.2,0.2-0.3C23.7,29,23.9,29,24,29l0.2,0l0-0.2c0-0.1,0.1-0.3,0.3-0.4c0,0,0.3,0,0.3,0l0.1,0
					l-0.1-0.1c0,0-0.1-0.2-0.1-0.3C24.6,28.1,24.7,27.9,24.7,27.9z"/>
			</g>
		</g>
		<path class="st0" d="M31.2,38.7c0.1,0.2,0.4,0.3,0.6,0.3c0.3,0,0.4-0.1,0.4-0.1c0-0.1,0.1-0.1,0.2,0c0,0,0.2,0.1,0.4,0.1
			c0.1,0,0.2,0,0.3,0c0,0-0.1-0.1-0.1-0.1L32.4,38c-0.1-0.2-0.4-0.3-0.6-0.3c-0.3,0-0.4,0.1-0.4,0.1c0,0.1-0.1,0.1-0.2,0
			c0,0-0.2-0.1-0.4-0.1c-0.1,0-0.2,0-0.3,0c0,0,0.1,0.1,0.1,0.1L31.2,38.7z"/>
		<path class="st0" d="M26.9,38.7c-0.1-0.1-0.1-0.5,0-0.7c0.1-0.2,0.3-0.3,0.7-0.3c0.3,0,0.6,0.1,0.7,0.3l0.6,0.9
			c0,0,0.1,0.1,0.1,0.1c-0.1,0-0.2,0.1-0.3,0.1c-0.3,0-0.5-0.1-0.5-0.1c-0.1,0-0.1,0-0.2,0c0,0-0.1,0.1-0.4,0.1
			C27.2,39,27,38.9,26.9,38.7z"/>
		<path class="st0" d="M30.2,25.6c0.1-0.1,0.3-0.2,0.5-0.3c0.2-0.1,0.5-0.2,0.7-0.3c-0.2-0.5-0.6-0.5-0.7-0.5l-0.2,0c0,0,0,0,0,0
			c0,0-0.2-0.1-0.2-0.1c0,0,0,0.2,0,0.2c0,0,0,0.2,0,0.2l0,0.1C30.1,24.9,30,25.1,30.2,25.6z"/>
		<path class="st0" d="M33.3,24.4C33.3,24.4,33.3,24.4,33.3,24.4C33.3,24.4,33.3,24.4,33.3,24.4L33.3,24.4z"/>
		<path class="st0" d="M27.3,27.4l0,0.1l-0.2,0.1c0,0-0.1,0-0.1,0c0,0,0,0,0,0c-0.1,0-0.2,0.1-0.3,0.2c0,0.2,0.1,0.2,0.2,0.3
			c0,0,0.1,0.2,0.2,0.2c0,0,0,0.1,0,0.1c0.2,0,0.3,0,0.6,0.1c0,0,0.1,0,0.1-0.1c0.2-0.1,0.5,0.1,0.6,0.2c0.1-0.1,0.1-0.3,0.3-0.2
			c0.2,0.1,0.4,0.2,0.5,0.4c0-0.1,0.1-0.1,0.1-0.1c0,0,0,0,0-0.1c0-0.1,0-0.2,0.1-0.2c0,0,0.1-0.1,0.1-0.1c0,0,0,0,0,0
			c-0.1-0.1-0.2-0.2-0.2-0.3c-0.3,0.1-0.7,0.2-1.1,0.1c-0.2-0.1-0.3-0.2-0.3-0.4c-0.2-0.1-0.3-0.3-0.4-0.4
			C27.4,27.2,27.4,27.3,27.3,27.4z"/>
		<path class="st0" d="M26.6,29c-0.1,0-0.2,0-0.2,0.1c0,0.1,0,0.1,0,0.2c0,0,0,0,0,0.1l0,0.2l0.1,0.3c0.1,0.2,0.3,0.3,0.4,0.4
			l0.5-0.9c-0.1-0.1-0.2-0.2-0.2-0.4c0-0.1,0-0.1,0.1-0.2c-0.3-0.1-0.5,0.1-0.6,0.2c0,0-0.1,0.1-0.1,0.1L26.6,29z"/>
		<path class="st0" d="M35.4,27.9C35.4,27.8,35.4,27.8,35.4,27.9c0.2-0.2,0.5-0.4,0.7-0.5c-0.1-0.2-0.2-0.4-0.2-0.5
			c-0.1,0.2-0.3,0.3-0.5,0.4c0,0,0.1,0.1,0.1,0.1c0,0,0,0.1,0,0.1C35.5,27.6,35.5,27.7,35.4,27.9C35.4,27.8,35.4,27.8,35.4,27.9z"/>
		<path class="st0" d="M37.7,28.5C37.7,28.5,37.7,28.5,37.7,28.5C37.7,28.5,37.7,28.5,37.7,28.5L37.7,28.5z"/>
		<path class="st0" d="M36.5,28.4c0,0.1-0.4,0.3-0.8,0.4c-0.2,0.1-0.3,0.1-0.5,0.2c0,0,0,0,0,0c-0.1,0.1-0.2,0.2-0.3,0.4
			c0.2,0.1,0.7,0.2,0.8,0.2l0-0.1c0-0.1,0-0.2,0.1-0.2l0.3,0c0.2,0.1,0.5,0.1,0.7,0l0-0.1L36.6,29c0,0,0,0,0-0.1c0,0,0,0,0.1,0
			l0.3,0c0.1,0,0.2,0,0.3,0c0,0,0,0,0.1,0c0.1,0,0.1,0,0.1-0.1l0-0.1l0-0.2c0-0.1,0.1-0.2,0.2-0.2c0.2-0.1,0.3-0.2,0.2-0.4
			c0-0.1-0.3,0-0.4,0c0,0-0.3,0-0.3,0L37,27.7c0-0.1,0-0.1-0.1-0.1c-0.1,0-0.2,0.1-0.3,0.1c-0.1,0.1-0.2,0.1-0.3,0.1l-0.1-0.1l0,0
			c0,0-0.2,0-0.5,0.4l-0.3,0.2c0,0-0.1,0-0.2-0.1c-0.2,0-0.3,0.4-0.4,0.8c0.2-0.1,0.6-0.2,0.9-0.3C36,28.4,36.5,28.3,36.5,28.4z"/>
		<path class="st0" d="M27.8,26.3l-0.1,0l-0.1,0c0,0-0.1,0-0.1,0c0,0,0,0,0,0l0,0.2c0,0,0,0,0,0c0,0.3,0.1,0.7,0.4,0.8c0,0,0,0,0,0
			c0,0,0.1,0,0.2-0.1c0.3-0.3,0.5-0.8,0.5-1C28.3,26.2,28,26.3,27.8,26.3z"/>
		<path class="st0" d="M40.3,26.2c0,0-0.1,0-0.1,0.1c0.1,0.1,0.3,0.2,0.3,0.4c0,0,0,0,0,0.1c0,0.4-0.6,0.4-1,0.4
			c0,0.1,0.1,0.2,0.1,0.3c0,0,0,0.1,0,0.1c-0.2,0.5-1,0.4-1.4,0.4c0,0,0,0,0,0.1c0,0.1,0,0.1,0,0.1c0.1,0,0.2,0.1,0.2,0.1
			c0,0,0,0,0,0.1c0.4,0,0.7,0,0.9,0.1c0.1-0.1,0.2-0.1,0.3-0.1c0.2,0,0.4,0,0.4-0.1l0-0.1c0-0.1,0-0.2,0.1-0.3c0.1-0.1,0.2,0,0.5,0
			c0.2,0.1,0.6,0.1,0.7,0c0,0,0-0.1-0.1-0.2c-0.1-0.1-0.1-0.2-0.1-0.3l0.2-0.1c0.3-0.2,0.4-0.3,0.3-0.6c-0.1-0.1-0.2-0.1-0.4-0.1
			c-0.1,0-0.3,0.1-0.4-0.1l0-0.2c0-0.1,0-0.1,0-0.2c0,0-0.1-0.1-0.3-0.1C40.4,26.1,40.4,26.1,40.3,26.2z"/>
		<path class="st0" d="M35.8,26.5c0,0.1,0.1,0.1,0.1,0.1c0-0.1,0.1-0.2,0.1-0.3c0.2-0.3,0.6-0.5,0.7-0.4c0.2-0.1,0.5-0.2,0.8-0.2
			c0.1-0.1,0.2-0.4,0.4-0.5c0,0,0-0.1-0.1-0.2c-0.1-0.1-0.3,0-0.5,0.1c-0.1,0.1-0.2,0.1-0.3,0.1c0,0-0.1-0.1-0.1-0.1
			c0-0.1-0.1-0.2-0.2-0.3c-0.1,0-0.1,0.1-0.2,0.1c0,0.1,0.1,0.1,0.1,0.2c0,0,0,0.1,0,0.1c-0.1,0.2-0.2,0.3-0.3,0.4
			c0,0.1,0,0.2,0,0.2C36.2,26,36.1,26.3,35.8,26.5z"/>
		<path class="st0" d="M34.7,25c0.1-0.4-0.1-0.6-0.1-0.8l0-0.1c0-0.1,0-0.1-0.1-0.1c-0.1,0-0.2,0-0.2,0.1c0,0-0.1,0-0.1,0.1
			c-0.2,0.1-0.5,0.2-0.6,0.6C34,24.7,34.6,24.9,34.7,25C34.7,25,34.7,25,34.7,25z"/>
		<path class="st0" d="M38.1,25.9C38.1,25.9,38,26,38.1,25.9L37.8,26c0,0,0,0,0,0c-0.1,0-0.5-0.1-0.8,0.1c0,0.6,0.3,0.8,0.8,1
			c0.3-0.2,0.3-0.5,0.3-0.7c0-0.1,0-0.1,0-0.1l0-0.1l0-0.1C38,26.1,38.1,25.9,38.1,25.9z"/>
		<path class="st0" d="M35,29.9c0.1,0,0.1-0.1,0.1-0.1c-0.1,0-0.3-0.1-0.4-0.1c-0.1,0.2-0.2,0.3-0.3,0.5c-0.1,0.3-0.1,0.7-0.1,1
			c0,0,0,0.1,0,0.1c0.1-0.1,0.2-0.3,0.4-0.4c-0.1-0.2-0.2-0.5,0-0.7L35,29.9z"/>
		<path class="st0" d="M37.1,29.4c0.1-0.1,0.1-0.1,0.2-0.2c0,0,0,0,0,0c0,0,0-0.1,0-0.1c-0.1,0-0.2,0-0.3,0c0,0,0,0.1,0,0.1
			c0,0.1,0,0.1-0.1,0.2c-0.3,0.3-0.7,0.2-0.9,0.1c0,0,0,0,0,0c0,0.1,0,0.2-0.2,0.3c-0.1,0-0.2,0-0.4,0c0,0.2-0.1,0.3-0.3,0.3
			L35,30.3c-0.1,0.1-0.1,0.2,0,0.3c0.1-0.1,0.3-0.3,0.4-0.3c0,0,0.2-0.1,0.4-0.2c0.1,0,0.4-0.2,0.5-0.1c0.1,0.1-0.3,0.3-0.4,0.3
			c-0.2,0.1-0.3,0.1-0.3,0.2c-0.1,0.2-0.2,0.4-0.2,0.5c0.1,0,0.3,0,0.4,0l0.2-0.1c0.1,0,0.3-0.1,0.4-0.1c0,0,0,0,0,0l-0.1-0.1
			c0,0-0.1-0.1-0.1-0.2c0,0,0-0.1,0-0.1l0.3-0.1c0.3,0,0.5-0.1,0.5-0.3c0,0,0,0,0,0c0-0.1,0-0.1-0.1-0.1c0,0-0.1-0.1-0.1-0.2
			c0,0,0,0,0-0.1L37.1,29.4z"/>
		<path class="st0" d="M39.6,25.2c0-0.1-0.1-0.1-0.1-0.2c-0.2,0-0.3,0.1-0.5,0.3c-0.1,0.1-0.2,0.2-0.3,0.2l-0.2-0.1
			c-0.1-0.1-0.2-0.1-0.3-0.1c-0.1,0-0.2,0.1-0.3,0.3c0.1,0,0.2-0.1,0.4,0c0.1,0.1,0.1,0.3,0,0.4c0,0,0,0.1,0,0.1c0,0.1,0,0.2,0,0.3
			c0.3-0.2,0.8-0.5,0.8-0.5c0.1,0-0.3,0.5-0.8,0.8c-0.1,0.1-0.2,0.1-0.2,0.1c-0.1,0.1-0.1,0.2-0.3,0.3c0,0.1,0,0.2-0.1,0.3
			c0.1,0,0.1,0,0.2,0.1l0.1,0c0.2,0,1,0.1,1.1-0.2c0-0.1-0.1-0.2-0.1-0.3C39.1,27.1,39,27,39,26.9c0-0.1,0.1-0.1,0.3-0.1
			c0.7,0,0.8-0.1,0.8-0.2c0-0.2-0.1-0.2-0.2-0.2l-0.1-0.1c-0.1,0,0-0.1,0-0.1c0-0.1,0.2-0.2,0.3-0.3c0,0,0.1-0.1,0.1-0.1
			c0,0,0,0,0.1,0c0.2-0.1,0.3-0.3,0.2-0.5c0-0.1-0.1-0.1-0.1-0.1c-0.2-0.1-0.4,0.1-0.6,0.1c0,0-0.2,0-0.2,0
			C39.6,25.4,39.6,25.3,39.6,25.2z"/>
		<path class="st0" d="M39.4,28.8c-0.1-0.2-0.5-0.3-1-0.2c0,0.1-0.1,0.4,0,0.7c0,0.2,0.1,0.4,0.2,0.5c0,0,0,0,0,0.1
			c0.6-0.1,0.8-0.5,0.8-0.6l0-0.1l0.1-0.1c0,0,0.1-0.1,0.1-0.1c0,0-0.1-0.1-0.1-0.1C39.5,28.9,39.4,28.8,39.4,28.8z"/>
		<path class="st0" d="M34.2,29.1C34.2,29.1,34.3,29.1,34.2,29.1c0.1-0.1,0.2-0.1,0.3-0.1c0-0.1,0.1-0.3,0.2-0.6
			c-0.2,0.1-0.4,0.2-0.5,0.2C34.1,28.8,34.2,28.9,34.2,29.1C34.2,29.1,34.2,29.1,34.2,29.1z"/>
		<path class="st0" d="M35.3,27.5L35.3,27.5L35,27.4c0,0-0.1,0-0.1-0.1c0,0,0,0,0.1-0.1l0.2-0.2c0.1-0.1,0.5-0.3,0.5-0.4l-0.1-0.1
			c0,0-0.1-0.1-0.1-0.1c0-0.1,0-0.2,0.1-0.2c0.2-0.2,0.4-0.4,0.3-0.6l-0.1,0l-0.2,0c-0.1-0.1-0.1-0.2-0.1-0.3c0-0.1,0-0.3-0.1-0.3
			c0,0-0.1,0-0.4,0.2L35,25.3c-0.1,0-0.2,0-0.2,0l-0.1,0c-0.2,0-0.2,0.4-0.3,0.5L34.4,26c-0.1,0.1-0.1,0.1-0.2,0c0,0-0.1,0-0.1,0
			c-0.1,0-0.2,0.1-0.2,0.2c0,0,0,0.1,0,0.2c0,0.2,0.1,0.4,0.1,0.6c0,0.1,0.1,0.1,0.1,0.2c0,0,0,0.1-0.1,0.1l-0.1,0c0,0-0.1,0-0.1,0
			c0,0.1-0.1,0.1-0.1,0.2c0,0.2,0.1,0.5,0.2,0.7c0-0.1,0-0.2,0.1-0.2c0.1-0.3,0.6-1.1,0.7-1.1c0.1,0-0.4,0.9-0.5,1.2
			c0,0.2-0.1,0.3-0.1,0.4C34.5,28.2,35.3,27.8,35.3,27.5z"/>
		<path class="st0" d="M30.6,28.4c0-0.2,0.1-0.3,0.2-0.4c-0.1-0.1-0.1-0.2-0.1-0.4c0-0.1,0.1-0.3,0.2-0.4c-0.1-0.1-0.2-0.1-0.3,0
			c-0.1,0-0.2,0.1-0.2,0c0,0,0,0,0-0.1c-0.1-0.2-0.2-0.4-0.3-0.5l-0.1,0c-0.2,0.1-0.2,0.4-0.2,0.6c0,0.1,0,0.2-0.1,0.3l-0.1,0.1
			c-0.1,0-0.1,0-0.1,0.1c0,0.1,0.1,0.3,0.2,0.4c0.1,0.1,0.1,0.1,0.1,0.2c0,0-0.2,0.2-0.2,0.2c0,0,0,0.1,0,0.2c0,0,0,0,0,0.1
			c0.1,0.1,0.3,0.4,0.3,0.7c0,0,0,0,0,0l0.2,0c0,0,0,0,0.1,0.1c0-0.1-0.1-0.2-0.1-0.4c-0.1-0.6,0-0.8,0-0.9c0.1,0,0.1,0.2,0.2,0.9
			c0.1,0.4,0.1,0.6,0.2,0.7c0.1,0,0.1,0.1,0.2,0.1c0.1-0.1,0.4-0.3,0.4-0.5l0-0.1c0,0,0,0,0,0c0-0.1,0-0.1,0-0.2
			c0-0.1,0-0.2,0.1-0.3C31,28.9,30.6,28.8,30.6,28.4z"/>
		<path class="st0" d="M32.2,33.1c0-0.1,0-0.1,0-0.3c0-0.2,0-0.5-0.1-1c-0.2-1.1-0.8-1.3-1.1-1.4c0,0,0,0,0,0
			c0.1,0.2,0.1,0.4,0.1,0.7c0,0,0,0.1,0,0.1C31.2,32.2,32,32.9,32.2,33.1z"/>
		<path class="st0" d="M29.2,30.1c0.2,0.1,0.4,0.3,0.5,0.4c0,0,0,0,0,0c0,0,0,0,0,0c0.2,0.2,0.5,0.2,0.5,0.2l0-0.1
			c0-0.6-0.2-0.8-0.2-0.8c0,0-0.1,0.1-0.1,0.1c0,0.1-0.1,0.1-0.2,0.1c-0.1,0-0.1-0.1-0.1-0.1c0-0.4-0.2-0.7-0.3-0.8
			c0,0-0.1,0.1-0.1,0.3c0,0.1-0.1,0.1-0.2,0.1c-0.1,0-0.1-0.1-0.1-0.1c0-0.2-0.1-0.4-0.4-0.5c0,0,0,0.1,0,0.1c0,0.1-0.1,0.2-0.3,0.2
			l-0.1-0.1c-0.1-0.1-0.3-0.2-0.4-0.2c0,0-0.1,0-0.1,0.1c-0.1,0.2,0,0.3,0.1,0.4l0.1,0.2c0,0.1-0.1,0.2-0.2,0.2c0,0-0.1,0.1-0.1,0.1
			c0,0.1,0.1,0.2,0.3,0.2l0.2,0.1c0.1,0.1,0,0.2-0.1,0.3c0,0-0.1,0.1-0.1,0.1c0.1,0.2,0.3,0.3,0.5,0.3c0,0,0,0,0,0c0,0,0,0,0,0
			c0.1,0,0.1,0,0.2,0c0.1,0,0.3,0,0.3,0.1L29,31c0,0-0.1,0.1-0.1,0.1c0.1,0.2,0.5,0.1,1,0c0-0.1-0.2-0.3-0.3-0.4c0,0,0,0,0,0
			c-0.2-0.1-0.3-0.2-0.5-0.4c0,0-0.4-0.4-0.4-0.5C28.7,29.7,29.2,30.1,29.2,30.1z"/>
		<path class="st0" d="M32.4,30C32.4,30,32.4,30,32.4,30c0,0.2,0.1,0.6,0.3,1c0,0,0.4,0.7,0.5,0.8c0.1-0.3,0.2-0.7,0.2-0.9
			c0-0.1,0-0.1,0-0.2c0-0.2,0-0.4-0.1-0.6l-0.1,0C33,30.1,32.8,30.1,32.4,30z"/>
		<path class="st0" d="M33.7,26.9c-0.1-0.2-0.2-0.4-0.2-0.6c0-0.1,0-0.2,0-0.3c0-0.1-0.1-0.2-0.2-0.3c0,0,0,0-0.1,0.1
			c-0.1,0.1-0.1,0.2-0.3,0.1l-0.2-0.2c-0.2-0.2-0.4-0.5-0.6-0.4c-0.2,0-0.2,0.3-0.2,0.6c0,0.2,0,0.3-0.1,0.3c-0.1,0-0.2,0.1-0.2,0.2
			c0,0.2,0.1,0.3,0.2,0.4c0,0,0,0,0,0c0.3,0.1,0.5,0.4,0.6,0.7c0.1-0.1,0.4-0.2,0.5-0.1c0.2,0.2,0.3,0.6,0.3,0.8l0,0
			c0.1,0,0.1,0,0.2,0c-0.1-0.2-0.3-0.6-0.3-0.9c0-0.2,0-0.3,0.1-0.4C33.6,26.9,33.7,26.9,33.7,26.9z"/>
		<path class="st0" d="M33.5,29.4c0.1-0.5,0.2-0.8,0.2-0.8l-0.1,0c-0.1,0-0.2,0-0.3,0c0,0-0.1-0.1-0.1-0.1c0-0.1-0.1-0.6-0.2-0.7
			c0,0-0.2,0.1-0.2,0.1c-0.1,0.1-0.2,0.1-0.3,0.1c0,0-0.1-0.1-0.1-0.1c-0.1-0.3-0.4-0.6-0.5-0.6c-0.1,0-0.1,0.2-0.1,0.2
			c0,0.1,0,0.1-0.1,0.1c-0.1,0-0.1,0-0.2,0c0,0-0.2-0.2-0.4,0c-0.2,0.2,0,0.5,0,0.5c0,0,0,0.1,0,0.1c0,0,0,0.1-0.1,0.1
			c-0.1,0.1-0.2,0.2-0.2,0.3c0,0.1,0.2,0.2,0.4,0.2c0.1,0,0.3,0,0.3,0.2c0,0.1,0,0.2-0.1,0.2c-0.1,0.1-0.1,0.1-0.1,0.3
			c0,0.1,0.1,0.1,0.1,0.1c0.1,0.1,0.4,0,0.5-0.1l0.3-0.1c0,0,0.1,0,0.1,0c0,0,0,0,0,0.1c0,0,0,0.2,0,0.2l0.1,0.1
			c0.3,0.1,0.4,0.1,0.6,0.1l0,0c0,0,0-0.1-0.1-0.1c0,0,0,0,0,0c-0.1-0.2-0.2-0.4-0.4-0.5c-0.3-0.2-0.7-0.5-0.6-0.6
			c0-0.1,0.5,0.2,0.8,0.4c0.2,0.1,0.3,0.3,0.4,0.3C33.4,29.3,33.4,29.3,33.5,29.4z"/>
		<path class="st0" d="M33.4,37.5C33.4,37.5,33.4,37.5,33.4,37.5c0-0.1,0-0.3-0.1-0.4c0-0.1-0.1-0.1-0.2-0.1c-0.2,0-0.3,0.2-0.4,0.3
			c0.1,0,0.1,0,0.2,0C33.1,37.4,33.3,37.4,33.4,37.5z"/>
		<path class="st0" d="M36.6,38c-0.1-0.2-0.4-0.3-0.6-0.3c-0.3,0-0.4,0.1-0.4,0.1c0,0.1-0.1,0.1-0.2,0c0,0-0.2-0.1-0.4-0.1
			c-0.1,0-0.2,0-0.3,0.1c0,0,0.1,0.1,0.1,0.1l0.6,0.9c0.1,0.2,0.4,0.3,0.6,0.3c0.3,0,0.4-0.1,0.4-0.1c0-0.1,0.1-0.1,0.2,0
			c0,0,0.2,0.1,0.4,0.1c0.1,0,0.3,0,0.3-0.1c0,0-0.1-0.1-0.1-0.1C37.2,38.9,36.6,38,36.6,38z"/>
		<path class="st0" d="M30.7,37.4C30.7,37.4,30.8,37.4,30.7,37.4c0.3,0,0.5,0.1,0.6,0.1c0.1,0,0.1-0.1,0.2-0.1c0-0.1,0-0.1,0-0.2
			C31.3,37.2,31,37.2,30.7,37.4z"/>
		<path class="st0" d="M27.6,32.4c0-0.1,0.3-0.3,0.5-0.5c0.3-0.2,0.4-0.3,0.8-0.4c-0.1,0-0.2-0.1-0.2-0.2c0,0,0-0.1,0-0.1
			c0-0.1,0-0.1,0.1-0.2c-0.1,0-0.1,0-0.2,0c-0.1,0-0.1,0-0.2,0l0.1,0.2c0,0.1,0.1,0.1,0.1,0.2c0,0,0,0.1-0.1,0.1c-0.1,0-0.1,0-0.2,0
			c-0.1-0.1-0.5-0.3-0.7-0.1c0,0,0,0-0.1,0c0,0,0.1,0.1,0.1,0.1c0,0,0.1,0.1,0.1,0.2c0,0,0,0.1,0,0.1c-0.1,0.1-0.2,0.1-0.3,0
			c-0.2,0-0.3,0-0.4,0.1c-0.1,0.2-0.1,0.2,0,0.3c0,0.1,0.1,0.2,0.1,0.3l-0.1,0.1c-0.2,0.2-0.4,0.4-0.2,0.6c0.1,0,0.4-0.1,0.5-0.2
			c0,0,0.3-0.1,0.3-0.1c0.2,0,0.3,0.2,0.3,0.3c0,0.1,0,0.1,0.2,0.1c0.3-0.1,0.4-0.3,0.5-0.5c0.1-0.2,0.1-0.3,0.2-0.4
			c0.1-0.1,0.1-0.1,0.2,0c0.1,0,0.1,0.1,0.2,0.2c0,0,0,0,0,0c0.1-0.1,0.3-0.4,0.4-0.8c0,0,0,0,0,0c-0.2,0-0.4,0.1-0.5,0.1
			C28.5,31.9,27.6,32.4,27.6,32.4z"/>
		<path class="st0" d="M27.2,31.4c0,0,0-0.1,0-0.1c0,0,0,0,0,0c0-0.1,0.1-0.1,0.1-0.2c-0.1,0-0.2-0.1-0.2-0.2
			c-0.2-0.1-0.2-0.3-0.2-0.5c-0.1,0-0.2-0.1-0.3-0.2c0,0,0,0,0,0c-0.1-0.1-0.4-0.1-0.4,0c0,0,0,0.2,0,0.2c0,0.2,0,0.3-0.1,0.4
			c-0.1,0.1-0.3,0-0.4-0.1c-0.2-0.1-0.3-0.2-0.4-0.1l0,0.2l0,0.3L25,31.2c-0.1,0-0.2,0.1-0.2,0.1c0,0,0,0.1,0,0.1
			c0.1,0.2,0.2,0.2,0.4,0.2c0,0,0.3,0.1,0.3,0.1l0.1,0.2c0,0.1,0,0.2,0.1,0.2c0.2,0.2,0.5-0.1,0.7-0.3l0.2-0.1c0,0,0.1,0,0.1,0.1
			l0,0c0,0,0-0.1,0.1-0.1C26.8,31.5,27,31.4,27.2,31.4z"/>
		<path class="st0" d="M41.1,29.9c0,0-0.1,0-0.1,0c-0.1,0-0.1-0.1-0.1-0.3c0-0.1,0.1-0.2,0-0.3c-0.1-0.1-0.5,0.1-0.7,0.2
			c-0.1,0.1-0.2,0.1-0.3,0.1c-0.1,0-0.1-0.1-0.1-0.2c0-0.1,0-0.1-0.1-0.2c0,0,0,0,0,0c0,0,0,0,0,0c0,0.1-0.1,0.3-0.3,0.5
			c0.4,0,1,0.2,1,0.3c0,0.1-1,0-1.3,0c-0.1,0-0.1,0-0.2,0c-0.1,0-0.1,0-0.2,0.1c0,0.1,0.1,0.1,0.1,0.2l0.2,0c0.2,0,0.4-0.1,0.6,0
			c0.2,0.1,0.2,0.2,0.2,0.3c0,0.1,0,0.2-0.1,0.2c0,0,0,0,0,0c0.1,0,0.2,0.1,0.3,0.2c0,0,0-0.1,0-0.1c0,0,0.1-0.1,0.1-0.1
			c0.1-0.1,0.2,0,0.3,0c0.1,0,0.3,0.1,0.4,0.1c0.1,0,0.1-0.1,0.1-0.2c0-0.1,0-0.2,0.1-0.2l0.2,0c0.1,0,0.3,0.1,0.4,0
			c0,0,0.1-0.1,0.1-0.2C41.7,30.1,41.6,30,41.1,29.9z"/>
		<path class="st0" d="M25.8,30.5C25.8,30.5,25.8,30.5,25.8,30.5C25.8,30.5,25.8,30.4,25.8,30.5c0-0.1,0-0.1,0-0.2
			c0-0.1,0-0.3,0.1-0.3c-0.1,0-0.1,0-0.2,0c-0.2,0-1,0-1-0.1c0-0.1,0.9-0.2,1.2-0.1c0.1,0,0.3,0.1,0.4,0.1l-0.1-0.2c0,0,0-0.1,0-0.2
			c0,0,0,0,0-0.1c0,0,0,0,0,0c-0.2-0.3-0.4-0.5-0.5-0.5c-0.1,0-0.1,0-0.1,0.2c0,0.1,0,0.2-0.2,0.2c-0.1,0-0.2,0-0.3-0.1
			c-0.1-0.1-0.3-0.3-0.5-0.3c-0.1,0-0.1,0,0,0.2c0,0.1,0,0.3-0.1,0.3l-0.3,0c-0.1,0-0.3-0.1-0.4,0c0,0,0,0-0.1,0.1
			c0,0.2,0.1,0.3,0.4,0.4l0.2,0.1c0.1,0.1,0,0.2-0.1,0.3c-0.1,0.2-0.1,0.2-0.1,0.2c0.2,0.2,0.3,0.1,0.5-0.1l0.2-0.1
			c0.1,0,0.1,0,0.1,0C25.3,30.2,25.6,30.4,25.8,30.5z"/>
		<path class="st0" d="M35.7,31.3c-0.3,0-0.5,0.1-0.6,0.1c0,0-0.1,0-0.2,0c0,0-0.1-0.1-0.1-0.1c0,0,0,0,0,0c0-0.1,0.1-0.2,0.1-0.4
			c-0.3,0.3-0.7,0.8-0.8,1c0,0.1-0.1,0.1-0.2,0c0,0-0.1-0.1-0.1-0.1c0,0,0,0,0-0.1c0.1-0.1,0.1-0.4,0.1-0.6c0-0.3,0-0.7,0.2-1.1
			c0.1-0.3,0.3-0.6,0.4-0.8c-0.1,0-0.2,0.1-0.3,0.1c-0.3,0.1-0.4,0.2-0.4,0.1l-0.1-0.3c0,0,0-0.1,0-0.1c0,0.2-0.1,0.3-0.1,0.6
			c0,0.1-0.1,0.1-0.2,0.1c0,0,0,0-0.1,0c0,0,0,0,0,0c0.1,0.4,0.2,0.7,0.2,1c0,0.1,0,0.1,0,0.2c0,0-0.2,1.2-0.4,1.3
			c-0.1,0-0.1,0-0.2-0.1l-0.2-0.3l-0.4-0.7c-0.3-0.6-0.3-1.1-0.3-1.4l0,0c-0.2,0.1-0.4,0.2-0.7,0.1c0,0,0,0,0,0
			c-0.1,0.2-0.2,0.3-0.3,0.4l0.1,0c0.3,0.1,1,0.3,1.3,1.6c0.1,0.4,0.1,0.8,0.1,1.1c0,0.3,0,0.5-0.1,0.6c0,0-0.1,0.1-0.2,0
			c-0.1,0-1.4-0.9-1.4-2.2c0-0.9-0.3-1.1-0.4-1.1c0,0,0,0,0,0c0,0.1,0,0.3,0,0.4c0,0.2-0.1,0.3-0.2,0.3c-0.1,0-0.2,0-0.3,0
			c0,0.1,0.1,0.2,0.1,0.2c0,0,0,0,0,0.1c0,0.1-0.1,0.1-0.2,0.2c-0.2,0.1-0.3,0.1-0.4,0.1c0.7,0.3,1.3,1.2,1.4,1.4
			c0,0.1,0.3,0.5,0.5,0.9c0.5,0.8,0.5,0.8,0.5,0.9c-0.1,0.9-0.5,1.6-1.2,1.9l-0.2,0.1c-0.4,0.2-1,0.5-1.4,0.8c0,0,0,0,0,0
			c0.1-0.1,0.2-0.1,0.5-0.1c0.2,0,0.4,0.1,0.5,0.1c0,0,0,0,0-0.1c0.3-0.6,1-0.5,1.3-0.5c0-0.1,0-0.2,0.1-0.3c0-0.1,0.1-0.2,0.2-0.3
			c0.2-0.3,0.4-1,0.5-1c0.1,0,0.1,0.5-0.3,1.1c-0.1,0.1-0.1,0.2-0.2,0.3c-0.1,0.1-0.1,0.2-0.1,0.3c0,0,0,0,0,0c0,0,0,0,0,0
			c0,0.1,0,0.2,0,0.2c0.2,0,0.3,0.1,0.5,0.1c0,0,0,0,0,0c0,0,0,0,0,0c0.2-0.4,0.4-0.7,0.8-0.7c0.2,0,0.3,0.1,0.4,0.2
			c0.1,0.1,0.2,0.3,0.2,0.4c0.1,0,0.1,0,0.2,0c0.2,0,0.4,0.1,0.5,0.2c0.1-0.1,0.3-0.1,0.6-0.1c0.2,0,0.3,0,0.4,0.1l0,0
			c-0.1-0.3-0.3-0.4-0.6-0.5c-0.4-0.2-0.8-0.4-1.1-1.1c-0.1-0.3-0.2-0.8-0.2-1.2c0-0.3,0-1.2,0.1-1.2c0.1,0,0.2,0.9,0.2,1.2
			c0,0.4,0.1,0.8,0.2,1.1c0.2,0.6,0.6,0.8,1,0.9c0.3,0.1,0.6,0.2,0.7,0.6c0,0,0,0.1,0.1,0.2c0.1,0,0.2,0,0.3,0
			c0.2,0,0.4,0.1,0.5,0.2c0.1,0,0.2-0.1,0.4-0.1c-0.1-0.1-0.4-0.3-1.1-0.5l-0.1-0.1c-1-0.4-1.3-0.9-1.4-1.2l0,0
			c-0.2-0.3-0.6-2.1,0.2-3.2C34.9,31.7,35.5,31.4,35.7,31.3C35.7,31.3,35.7,31.3,35.7,31.3L35.7,31.3z"/>
		<path class="st0" d="M39.6,31.2c-0.1,0-0.2-0.1-0.2-0.1l0-0.2c0-0.1,0.1-0.1-0.1-0.2c0,0-0.2,0-0.3,0l-0.3,0
			c-0.1,0-0.1-0.1-0.2-0.2c0,0,0,0-0.1,0c-0.3,0.1-0.8,0.1-1.2-0.1c-0.2,0.1-0.4,0.2-0.6,0.2c0,0,0,0,0,0c0,0.1,0.1,0.1,0.1,0.2
			c0.4-0.1,0.7-0.1,0.8,0c0.1,0.1,0.1,0.1,0.1,0.2c0,0,0,0.1,0,0.1c0.1,0,0.2,0,0.2,0c0.4,0,0.6,0.1,0.7,0.2c0,0.1,0.1,0.1,0.1,0.2
			c0,0.1,0,0.2-0.1,0.2c0,0,0.1,0,0.1,0c0.1,0,0.2,0,0.2,0.1l0.1,0c0.1,0,0.2,0,0.3,0c0,0,0,0,0-0.1l0.1-0.2l0.3,0
			c0.2,0,0.2,0,0.2,0C39.8,31.3,39.8,31.3,39.6,31.2z"/>
		<path class="st0" d="M38.7,32.6l-0.1-0.2c0,0,0,0,0,0c0-0.1,0.1-0.2,0.1-0.2c0,0,0,0,0,0c0,0-0.2-0.1-0.3-0.1
			c-0.2,0-0.3-0.1-0.3-0.2c0,0,0-0.1,0-0.1c0-0.1,0-0.1,0.1-0.2c0-0.1,0-0.1,0-0.1c0,0,0,0,0,0c-0.1,0-0.3-0.1-0.5-0.1
			c-0.3,0-0.4,0-0.5-0.2l0-0.1c0,0,0-0.1,0-0.1c-0.1,0-0.4-0.1-1,0.1c0.2,0.1,0.4,0.2,0.6,0.3c0.2,0.1,0.4,0.5,0.4,0.5
			c-0.1,0.1-0.4-0.2-0.5-0.3c-0.2-0.1-0.5-0.3-0.7-0.4c0,0.3,0.1,0.7,0.2,0.8c0,0,0.1-0.1,0.2-0.1c0.1,0,0.1,0.1,0.2,0.3
			c0.1,0.2,0.2,0.5,0.3,0.5c0.1,0,0.1,0,0.2-0.1c0,0,0.1-0.2,0.2-0.1l0.2,0.1c0.1,0.1,0.2,0.2,0.3,0.2c0.1,0,0.1-0.1,0.2-0.1
			c0,0,0.1-0.1,0.2-0.1l0.1,0c0.2,0.1,0.3,0.1,0.4,0c0,0,0,0,0-0.1C38.9,32.7,38.8,32.7,38.7,32.6z"/>
		<path class="st0" d="M34.3,21.5c0.1,0,0.2,0,0.3,0.1c0.1,0.2,0.1,0.3,0.1,0.5c0,0.3-0.1,0.5-0.3,0.7c0.1,0,0.2,0.1,0.3,0.2
			c0,0,0,0.1,0,0.1c0,0.1-0.1,0.3-0.1,0.5c0.1-0.1,0.2,0,0.3,0c0,0,0,0,0,0c0.1-0.2,0.2-0.6,0.5-0.7l0.2,0c0,0,0-0.1,0-0.1
			c0,0,0,0-0.1,0c-0.1,0-0.1,0-0.1-0.1c0-0.1,0-0.1,0.1-0.2c0.2-0.1,0.5-0.4,0.4-0.5c-0.1-0.2-0.2-0.2-0.3-0.2c0,0-0.1-0.1-0.1-0.1
			c-0.1-0.1-0.1-0.1,0-0.3c0-0.3,0-0.4-0.1-0.5c-0.2,0-0.3,0.1-0.5,0.3c-0.1,0.1-0.2,0.2-0.3,0.2l-0.2-0.1c0,0-0.1-0.1-0.1-0.1
			c0,0.1,0,0.1,0,0.2C34.3,21.4,34.3,21.5,34.3,21.5z"/>
		<path class="st0" d="M32.9,23c0.2,0.2,0.3,0.4,0.3,0.6c0,0.2-0.1,0.5-0.2,0.6l0,0c0.1,0,0.1,0,0.1,0c0,0,0.1,0,0.1,0
			c0-0.1,0.1-0.5,0.2-0.9c0.1-0.4,0.1-0.7,0.2-0.7c0.1,0,0.1,0.3,0.1,0.7c0,0.4-0.1,0.8-0.2,1c0.2-0.2,0.4-0.3,0.5-0.3
			c0,0,0.1-0.1,0.2-0.1c0.2-0.3,0.3-0.6,0.3-0.7c0,0-0.1-0.1-0.2-0.1c-0.1,0-0.2,0-0.2-0.1c0-0.1,0-0.2,0.1-0.2
			c0.2-0.3,0.4-0.6,0.2-0.9c0,0-0.1,0-0.1,0.1c-0.1,0-0.1,0.1-0.2,0c0,0-0.1-0.1,0-0.2c0-0.1,0.1-0.4,0-0.6
			c-0.1-0.1-0.1-0.1-0.2-0.1c-0.1,0-0.2,0.3-0.3,0.5c-0.1,0.2-0.1,0.3-0.2,0.3l-0.3,0c-0.1,0-0.1,0-0.2,0c-0.1,0.1,0,0.4,0.1,0.6
			c0.1,0.2,0.2,0.3,0.1,0.4c0,0-0.1,0.1-0.1,0.1c-0.1,0-0.2,0-0.3,0.1c0,0,0,0.1,0,0.1C32.7,22.9,32.8,22.9,32.9,23z"/>
		<path class="st0" d="M35.8,23.2c0,0,0-0.1-0.1-0.1l-0.1,0c-0.2,0.1-0.3,0.4-0.4,0.5c-0.1,0.1-0.1,0.2-0.2,0.2l-0.1,0
			c-0.1,0-0.2,0-0.2,0.1c0.1,0.1,0.1,0.2,0.1,0.2c0,0,0,0,0,0c0.1,0.2,0.1,0.4,0.2,0.5c0.1-0.1,0.2-0.2,0.3-0.3
			c0.3-0.3,0.6-0.5,0.6-0.4c0,0.1-0.2,0.3-0.4,0.6c-0.1,0.1-0.1,0.2-0.2,0.2c0.1,0,0.2,0,0.3,0c0.2,0.1,0.2,0.3,0.2,0.5
			c0,0,0,0,0,0.1c0,0,0,0,0,0c0,0,0.1,0,0.1,0c0.1,0,0.2-0.1,0.3-0.3c0-0.1,0-0.1-0.1-0.2c0,0-0.1-0.1-0.1-0.2c0,0,0.1-0.1,0.1-0.1
			c0.1-0.1,0.2-0.1,0.3-0.2c0,0,0,0,0,0c0.2-0.1,0.3-0.2,0.3-0.3c0-0.1,0-0.1-0.1-0.2c-0.1,0-0.1-0.1-0.1-0.2l0.2-0.2
			c0.1-0.1,0.3-0.2,0.3-0.3c0-0.1,0-0.1-0.1-0.2c-0.1-0.1-0.2-0.1-0.2-0.1c-0.2,0-0.3,0.2-0.5,0.3L36,23.4
			C35.8,23.4,35.8,23.3,35.8,23.2z"/>
		<path class="st0" d="M37.1,24.9c0,0,0.1-0.1,0.1-0.1c0.2-0.1,0.4-0.2,0.7-0.2c0.1-0.1,0.2-0.1,0.3-0.2c0.3-0.1,0.6-0.2,0.6-0.2
			c0,0.1-0.2,0.2-0.5,0.4c-0.1,0-0.1,0.1-0.2,0.1c0.1,0.1,0.2,0.2,0.2,0.3c0.2,0,0.3,0.1,0.3,0.2c0,0,0,0,0,0c0,0,0.1-0.1,0.1-0.1
			c0.2-0.2,0.4-0.5,0.8-0.4c0-0.1,0-0.2-0.1-0.3c0,0,0-0.1,0-0.1c0,0,0-0.1,0.1-0.1c0.1-0.1,0.3-0.2,0.3-0.3c0,0,0-0.1,0-0.1
			c-0.1-0.2-0.3-0.1-0.5,0l-0.2,0l-0.1-0.2c0-0.1-0.1-0.1-0.2-0.2c-0.1,0-0.3,0.2-0.4,0.3L38,24l-0.2-0.1c0,0-0.1-0.1-0.1-0.1
			c-0.1,0-0.3,0.2-0.3,0.3l-0.1,0.1l-0.1,0c0,0.1-0.1,0.3-0.3,0.4C37,24.7,37,24.8,37.1,24.9z"/>
		<path class="st0" d="M26,28.2c0.1,0.2,0,0.4-0.1,0.5c0.1,0.1,0.1,0.1,0.2,0.2c0,0,0,0,0,0c0.1-0.2,0.4-0.2,0.5-0.2
			c0,0,0.1-0.1,0.1-0.1c0,0,0,0,0,0c0,0,0-0.1,0-0.1c0,0,0,0,0,0c-0.1-0.1-0.4-0.2-0.4-0.5c0,0,0-0.1,0-0.1c0-0.2,0.2-0.3,0.3-0.4
			c0-0.1-0.1-0.2-0.1-0.3c0,0,0-0.1,0-0.1c0,0,0,0,0,0c0,0-0.2,0.1-0.2,0.1c-0.2,0.1-0.3,0.1-0.4,0l-0.1-0.1l-0.2-0.3
			c-0.1-0.1-0.3-0.2-0.5-0.2c-0.1,0-0.1,0.1,0,0.2c0,0.1,0,0.2-0.1,0.2l-0.2,0c-0.2-0.1-0.3-0.1-0.4,0.1c-0.1,0.1-0.1,0.2,0,0.3
			c0.1,0.2,0.5,0.3,0.6,0.3c0.1,0,0.1,0.1,0.1,0.1c0,0.1,0,0.1-0.1,0.1c0,0-0.1,0.1-0.1,0.2l0,0.1c0,0.1,0.1,0,0.3-0.1
			C25.6,28.1,25.9,28,26,28.2z"/>
		<path class="st0" d="M31.7,22.9c-0.1,0-0.1,0.3-0.1,0.5c0,0.2,0,0.3,0,0.3c-0.1,0.1-0.2,0.1-0.2,0c-0.1,0-0.1,0-0.1,0.1
			c0,0.1,0.1,0.2,0.3,0.5c0.1,0.1,0.1,0.2,0.1,0.2c0,0,0,0.1-0.1,0.1c0,0.1,0.1,0.2,0.1,0.2c0,0,0.1,0,0.2,0.1c0,0,0.1,0.1,0.1,0.2
			c0.1-0.1,0.1-0.1,0.2-0.1c0-0.1-0.1-0.2-0.1-0.4C32,24.4,32,24,32,24c0.1,0,0.2,0.4,0.3,0.7c0,0.2,0.1,0.3,0.1,0.4
			c0.1,0,0.3,0.1,0.4,0.2c0-0.1,0-0.3,0.1-0.4c0.1-0.1,0.2-0.1,0.3-0.2c0-0.1,0.1-0.2,0.1-0.3l-0.2,0c-0.2,0-0.4,0-0.4-0.2l0.1-0.2
			c0.2-0.3,0.2-0.6,0-0.8l-0.1,0.1c-0.1,0.1-0.1,0.1-0.2,0.1l-0.2-0.2C32.1,23.1,31.9,22.8,31.7,22.9z"/>
		<path class="st0" d="M29.8,24l-0.2,0.3c-0.1,0.1-0.1,0.1-0.1,0.1c0,0,0.1,0.1,0.4,0.1c0-0.1,0-0.4,0.2-0.5c0.1-0.1,0.3,0,0.4,0
			c0-0.1-0.1-0.2-0.2-0.3c-0.1-0.1-0.4-0.5-0.3-0.6c0.1-0.1,0.4,0.3,0.5,0.5c0.1,0.2,0.2,0.4,0.2,0.5c0.1,0,0.2,0,0.3,0.1
			c-0.1-0.1-0.2-0.3-0.2-0.5c0,0,0-0.1,0-0.1c0.1-0.2,0.3-0.2,0.4-0.2c0,0,0-0.1,0-0.1c0-0.1,0-0.2,0-0.3c0-0.1,0-0.1,0-0.2
			c-0.1-0.1-0.2,0-0.3,0c0,0-0.1,0.1-0.2,0c-0.1,0-0.1-0.1-0.1-0.3c0-0.2,0-0.7-0.3-0.7c-0.1,0-0.1,0.1-0.2,0.2
			c-0.1,0.1-0.1,0.2-0.2,0.2c-0.1,0-0.2-0.1-0.2-0.2c-0.3-0.3-0.5-0.5-0.7-0.3c-0.2,0.1-0.1,0.4,0.1,0.7l0.1,0.2
			c0,0.1-0.1,0.1-0.2,0.1c-0.1,0-0.2,0.1-0.2,0.2c0,0.2,0.2,0.3,0.6,0.4C29.6,23.8,29.8,23.8,29.8,24z"/>
		<path class="st0" d="M26.1,26.7C26.1,26.7,26.1,26.7,26.1,26.7c-0.1-0.1-0.2-0.3-0.2-0.3c0,0,0,0,0,0c0.1-0.1,0.2-0.2,0.3-0.2
			c0.1,0,0.1,0,0.2-0.1c0-0.1-0.1-0.2-0.2-0.2c-0.6-0.3-0.7-0.4-0.6-0.5c0-0.1,0.1-0.1,0.2-0.1l0.2-0.1c0.1-0.1,0-0.2,0-0.3
			c-0.1-0.3-0.1-0.5,0.1-0.6c0.1,0,0.1,0,0.3,0.2l0.2,0.2c0.2,0,0.2-0.1,0.3-0.2c0-0.1,0.1-0.2,0.1-0.2c0.1,0,0.2,0.4,0.2,0.5
			c0,0.2,0,0.3,0.2,0.3c0.1,0,0.2-0.1,0.3-0.1c0-0.1,0.1-0.1,0.1-0.1c0.1,0,0.1,0.3,0.1,0.5c0,0.2,0,0.3,0.1,0.4
			c0.1,0,0.2,0.1,0.4,0c0.2,0.1,0.4,0.2,0.5,0.2c0,0,0.1,0,0.1,0c0,0,0,0,0,0c0,0.1,0,0.1,0,0.2c-0.5-0.2-0.9-0.1-1.1,0l-0.1,0
			l-0.1,0l-0.3,0.1c0,0,0,0,0,0c-0.1-0.1-0.3-0.3-0.5-0.4c-0.2-0.3-0.3-0.6-0.4-0.6c-0.2,0.1,0.1,0.5,0.2,0.7
			c0.2,0.3,0.5,0.6,0.7,0.7l0,0c0,0.1,0,0.2,0,0.4c-0.2,0.1-0.2,0.2-0.3,0.3c0,0,0,0,0,0c0,0-0.1,0-0.1,0c0,0,0,0,0,0
			c0-0.1-0.1-0.2-0.1-0.3c0-0.1-0.1-0.3-0.2-0.3c-0.1-0.1-0.3,0-0.4,0c0,0-0.1,0-0.2,0L26.1,26.7z"/>
		<path class="st0" d="M28.5,25l-0.1,0.3l-0.1,0.2c0,0.2,0.1,0.2,0.4,0.2c0.2,0,0.3,0,0.4,0.2c0,0.1,0,0.2,0,0.3c0,0,0,0,0.1,0
			c0.2,0.1,0.4,0.2,0.5,0.5c0,0,0.1,0,0.1-0.1l0.3,0c0.2,0.1,0.3,0.4,0.4,0.5c0.1-0.1,0.4-0.1,0.6,0.2c0.1,0,0.2,0,0.3,0
			c0-0.1,0.1-0.1,0.1-0.2c-0.1-0.1-0.2-0.2-0.2-0.4c-0.3,0.1-0.6,0.1-1,0c-0.3-0.1-0.5-0.3-0.5-0.5c0-0.1,0-0.2,0.1-0.3l0,0
			c0,0,0,0,0,0c-0.3-0.4-0.2-0.8-0.1-1c-0.3,0-0.6-0.1-0.6-0.4c0,0,0,0-0.1,0l-0.2-0.1c-0.3-0.2-0.5-0.3-0.7-0.1
			c-0.1,0.1,0,0.2,0.2,0.5L28.5,25z"/>
		<path class="st0" d="M30.5,21.8c0.4,0.1,0.5,0.6,0.5,0.9c0.1,0,0.2,0,0.4,0c0-0.1,0.1-0.1,0.2-0.1c0.1,0,0.3,0,0.4,0
			c0-0.3,0.1-0.8,0-0.8c0,0-0.1,0-0.1,0.1c0,0-0.1,0.1-0.2,0c-0.1,0-0.1-0.1-0.1-0.1c0-0.3,0-0.7-0.1-0.7c-0.1,0-0.1,0-0.2,0
			c-0.1,0.1-0.2,0.1-0.2,0.1L31,21c-0.1-0.1-0.4-0.5-0.6-0.4c-0.2,0.1,0,0.4,0.1,0.6c0.1,0.2,0.1,0.2,0,0.3
			c-0.1,0.1-0.1,0.1-0.2,0.1c-0.1,0-0.2,0-0.2,0.1c0,0.1,0,0.2,0.1,0.2C30.2,21.9,30.3,21.7,30.5,21.8z"/>
		<path class="st0" d="M33.3,24.4L33.3,24.4C33.3,24.4,33.3,24.4,33.3,24.4C33.3,24.4,33.3,24.4,33.3,24.4z"/>
		<path class="st0" d="M37.7,28.5L37.7,28.5C37.7,28.5,37.7,28.5,37.7,28.5C37.7,28.5,37.7,28.5,37.7,28.5z"/>
		<path class="st1" d="M35.2,67.3c0,0.1-0.3,0.2-0.5,0.2c-0.3,0-0.6,0-0.6-0.2c0-0.1,0.3-0.1,0.6-0.1C34.8,67.2,35.2,67.2,35.2,67.3
			L35.2,67.3z"/>
		<path class="st0" d="M27.1,56.2C27.1,56.2,27.1,56.2,27.1,56.2l-0.1,0c0,0-0.1,0-0.1-0.1c0,0-0.4-0.4-0.8-0.4
			c-0.3,0-0.6,0.1-0.9,0.2c-0.3,0.1-0.5,0.2-0.7,0.2h-0.7c-0.1,0-0.1-0.1-0.1-0.1v-4c-0.1,0.1-0.3,0.2-0.3,0.2c0,0.1,0,3.8,0,4.1
			c0.3,0,3.2,0,3.2,0c0,0,0.1,0,0.1,0c0,0,0.2,0.2,0.5,0.3l0.1,0c0.3,0,0.5-0.3,0.5-0.3c0,0,0.1,0,0.1,0c0,0,2.9,0,3.2,0
			c0-0.3,0-3.9,0-4.1c-0.1,0-0.2-0.1-0.3-0.2v4c0,0.1-0.1,0.1-0.1,0.1h-0.7c-0.3,0-0.5-0.1-0.7-0.2c-0.3-0.1-0.6-0.2-0.9-0.2
			c-0.5,0-0.8,0.4-0.8,0.4c0,0-0.1,0.1-0.1,0.1L27.1,56.2C27.1,56.2,27.1,56.2,27.1,56.2z"/>
		<path class="st0" d="M31.3,56.5c0,0.1-0.1,0.1-0.1,0.1c0,0-3.2,0-3.3,0c-0.1,0.1-0.3,0.3-0.7,0.3c0,0-0.2,0-0.2,0
			c-0.3,0-0.6-0.2-0.7-0.3c-0.1,0-3.3,0-3.3,0c-0.1,0-0.1-0.1-0.1-0.1v-4.2c-0.1,0-0.2,0-0.3,0c0,0.3,0,4.4,0,4.6c0.3,0,3.7,0,3.7,0
			c0,0,0.1,0,0.1,0c0,0,0.2,0.2,0.5,0.2c0.1,0,0.3,0,0.4,0c0.3-0.1,0.5-0.2,0.5-0.2c0,0,0.1-0.1,0.1-0.1c0,0,3.4,0,3.7,0
			c0-0.3,0-4.4,0-4.6c-0.1,0-0.2,0-0.3,0V56.5z"/>
		<path class="st0" d="M25.9,51.3c-0.5,0-0.8,0.2-1,0.4c-0.2,0.1-0.3,0.3-0.6,0.3c0,0-0.4,0-0.6,0c0,0.3,0,3.7,0,4
			c0.2,0,0.6,0,0.6,0c0.2,0,0.4-0.1,0.6-0.2c0.3-0.1,0.6-0.3,1-0.3c0.4,0,0.8,0.3,0.9,0.4c0-0.4,0-4,0-4
			C27,51.8,26.8,51.3,25.9,51.3z M26.4,54.6C26.4,54.7,26.4,54.7,26.4,54.6c-0.1,0-0.4,0-0.7,0.1l-0.4,0.2L25.1,55
			c-0.3,0.1-0.6,0.2-0.6,0.2c0,0-0.1,0-0.1-0.1c0,0,0-0.1,0.1-0.1c0.1,0,0.3,0,0.6-0.2l0.2-0.1l0.5-0.2C26,54.5,26.4,54.6,26.4,54.6
			C26.4,54.6,26.4,54.6,26.4,54.6z M26.4,53.8C26.4,53.8,26.4,53.8,26.4,53.8c-0.1,0-0.4,0-0.7,0.1L25.3,54l-0.2,0.1
			c-0.3,0.1-0.6,0.2-0.6,0.2c0,0-0.1,0-0.1-0.1c0,0,0-0.1,0.1-0.1c0.1,0,0.3,0,0.6-0.2l0.2-0.1l0.5-0.2C26,53.6,26.4,53.7,26.4,53.8
			C26.4,53.7,26.4,53.8,26.4,53.8z M26.4,52.9C26.4,53,26.4,53,26.4,52.9c-0.1,0-0.4,0-0.7,0.1l-0.4,0.2l-0.2,0.1
			c-0.3,0.1-0.6,0.2-0.6,0.2c0,0-0.1,0-0.1-0.1c0,0,0-0.1,0.1-0.1c0.1,0,0.3,0,0.6-0.2l0.2-0.1l0.5-0.2C26,52.8,26.4,52.9,26.4,52.9
			C26.4,52.9,26.4,52.9,26.4,52.9z M26.4,52.1C26.4,52.1,26.4,52.1,26.4,52.1c-0.1,0-0.4,0-0.7,0.1l-0.4,0.2l-0.2,0.1
			c-0.3,0.1-0.6,0.2-0.6,0.2c0,0-0.1,0-0.1-0.1c0,0,0-0.1,0.1-0.1c0.1,0,0.3,0,0.6-0.2l0.2-0.1l0.5-0.2C26,52,26.4,52,26.4,52.1
			C26.4,52,26.4,52.1,26.4,52.1z"/>
		<path class="st0" d="M27.2,56.2l-0.1,0c0,0,0,0,0,0c0,0,0,0,0,0l-0.1,0c0,0-0.1,0-0.1-0.1c0,0-0.4-0.4-0.8-0.4
			c-0.3,0-0.6,0.1-0.9,0.2c-0.3,0.1-0.5,0.2-0.7,0.2h-0.7c-0.1,0-0.1-0.1-0.1-0.1v-4c-0.1,0.1-0.3,0.2-0.3,0.2c0,0.1,0,3.8,0,4.1
			c0.3,0,3.2,0,3.2,0c0,0,0.1,0,0.1,0c0,0,0.2,0.2,0.5,0.3l0.1,0c0.3,0,0.5-0.3,0.5-0.3c0,0,0.1,0,0.1,0c0,0,2.9,0,3.2,0
			c0-0.3,0-3.9,0-4.1c-0.1,0-0.2-0.1-0.3-0.2v4c0,0.1-0.1,0.1-0.1,0.1h-0.7c-0.3,0-0.5-0.1-0.7-0.2c-0.3-0.1-0.6-0.2-0.9-0.2
			c-0.5,0-0.8,0.4-0.8,0.4C27.3,56.2,27.3,56.2,27.2,56.2z"/>
		<path class="st0" d="M31.6,52.3c-0.1,0-0.2,0-0.3,0v4.2c0,0.1-0.1,0.1-0.1,0.1c0,0-3.2,0-3.3,0c-0.1,0.1-0.3,0.3-0.7,0.3
			c0,0-0.2,0-0.2,0c-0.3,0-0.6-0.2-0.7-0.3c-0.1,0-3.3,0-3.3,0c-0.1,0-0.1-0.1-0.1-0.1v-4.2c-0.1,0-0.2,0-0.3,0c0,0.3,0,4.4,0,4.6
			c0.3,0,3.7,0,3.7,0c0,0,0.1,0,0.1,0c0,0,0.2,0.2,0.5,0.2c0.1,0,0.3,0,0.4,0c0.3-0.1,0.5-0.2,0.5-0.2c0,0,0.1-0.1,0.1-0.1
			c0,0,3.4,0,3.7,0C31.6,56.7,31.6,52.5,31.6,52.3z"/>
		<path class="st0" d="M29.8,51.9c-0.2,0-0.4-0.1-0.6-0.3c-0.2-0.2-0.5-0.4-1-0.4c-0.9,0-1,0.5-1,0.5c0,0,0,3.7,0,4.1
			c0.2-0.2,0.5-0.4,0.9-0.4c0.4,0,0.7,0.1,1,0.3c0.2,0.1,0.4,0.2,0.6,0.2c0,0,0.4,0,0.6,0c0-0.3,0-3.7,0-4
			C30.2,51.9,29.8,51.9,29.8,51.9z M29.8,55.1c-0.1,0-0.3,0-0.6-0.2l-0.2-0.1l-0.4-0.2c-0.3-0.1-0.5,0-0.6,0c0,0-0.1,0-0.1,0
			c0,0,0-0.1,0-0.1c0,0,0.3-0.1,0.7,0l0.5,0.2l0.2,0.1c0.3,0.1,0.5,0.1,0.6,0.2C29.8,55,29.8,55.1,29.8,55.1
			C29.8,55.1,29.8,55.1,29.8,55.1z M29.8,54.3c-0.1,0-0.3,0-0.6-0.2L28.9,54l-0.4-0.2c-0.3-0.1-0.5,0-0.6,0c0,0-0.1,0-0.1,0
			c0,0,0-0.1,0-0.1c0,0,0.3-0.1,0.7,0l0.5,0.2l0.2,0.1c0.3,0.1,0.5,0.1,0.6,0.2C29.8,54.2,29.8,54.2,29.8,54.3
			C29.8,54.3,29.8,54.3,29.8,54.3z M29.8,53.5c-0.1,0-0.3,0-0.6-0.2l-0.2-0.1L28.5,53c-0.3-0.1-0.5,0-0.6,0c0,0-0.1,0-0.1,0
			c0,0,0-0.1,0-0.1c0,0,0.3-0.1,0.7,0l0.5,0.2l0.2,0.1c0.3,0.1,0.5,0.1,0.6,0.2C29.8,53.3,29.8,53.4,29.8,53.5
			C29.8,53.4,29.8,53.5,29.8,53.5z M29.8,52.6c-0.1,0-0.3,0-0.6-0.2l-0.2-0.1l-0.4-0.2c-0.3-0.1-0.5,0-0.6,0c0,0-0.1,0-0.1-0.1
			c0,0,0,0,0-0.1c0,0,0.3-0.1,0.7,0l0.5,0.2l0.2,0.1c0.3,0.1,0.5,0.1,0.6,0.2C29.8,52.5,29.8,52.5,29.8,52.6
			C29.8,52.6,29.8,52.6,29.8,52.6z"/>
		<path class="st0" d="M38.6,56.2l0.1,0c0,0,0.1,0,0.1-0.1c0,0,0.4-0.4,0.8-0.4c0.3,0,0.6,0.1,0.9,0.2c0.3,0.1,0.5,0.2,0.7,0.2H42
			c0.1,0,0.1-0.1,0.1-0.1v-4c0.1,0.1,0.3,0.2,0.3,0.2c0,0.1,0,3.8,0,4.1c-0.3,0-3.2,0-3.2,0c0,0-0.1,0-0.1,0c0,0-0.2,0.2-0.5,0.3
			l-0.1,0c-0.3,0-0.5-0.3-0.5-0.3c0,0-0.1,0-0.1,0c0,0-2.9,0-3.2,0c0-0.3,0-3.9,0-4.1c0.1,0,0.2-0.1,0.3-0.2v4
			c0,0.1,0.1,0.1,0.1,0.1h0.7c0.3,0,0.5-0.1,0.7-0.2c0.3-0.1,0.6-0.2,0.9-0.2c0.5,0,0.8,0.4,0.8,0.4c0,0,0.1,0.1,0.1,0.1L38.6,56.2
			C38.6,56.2,38.6,56.2,38.6,56.2C38.6,56.2,38.6,56.2,38.6,56.2z"/>
		<path class="st0" d="M42.8,56.5c0,0.1-0.1,0.1-0.1,0.1c0,0-3.2,0-3.3,0c-0.1,0.1-0.3,0.3-0.7,0.3c0,0-0.2,0-0.2,0
			c-0.3,0-0.6-0.2-0.7-0.3c-0.1,0-3.3,0-3.3,0c-0.1,0-0.1-0.1-0.1-0.1v-4.2c-0.1,0-0.2,0-0.3,0c0,0.3,0,4.4,0,4.6c0.3,0,3.7,0,3.7,0
			c0,0,0.1,0,0.1,0c0,0,0.2,0.2,0.5,0.2c0.1,0,0.3,0,0.4,0c0.3-0.1,0.5-0.2,0.5-0.2c0,0,0.1-0.1,0.1-0.1c0,0,3.4,0,3.7,0
			c0-0.3,0-4.4,0-4.6c-0.1,0-0.2,0-0.3,0V56.5z"/>
		<path class="st0" d="M38.7,56.2l-0.1,0c0,0,0,0,0,0c0,0,0,0,0,0l-0.1,0c0,0-0.1,0-0.1-0.1c0,0-0.4-0.4-0.8-0.4
			c-0.3,0-0.6,0.1-0.9,0.2c-0.3,0.1-0.5,0.2-0.7,0.2h-0.7c-0.1,0-0.1-0.1-0.1-0.1v-4c-0.1,0.1-0.3,0.2-0.3,0.2c0,0.1,0,3.8,0,4.1
			c0.3,0,3.2,0,3.2,0c0,0,0.1,0,0.1,0c0,0,0.2,0.2,0.5,0.3l0.1,0c0.3,0,0.5-0.3,0.5-0.3c0,0,0.1,0,0.1,0c0,0,2.9,0,3.2,0
			c0-0.3,0-3.9,0-4.1c-0.1,0-0.2-0.1-0.3-0.2v4c0,0.1-0.1,0.1-0.1,0.1h-0.7c-0.3,0-0.5-0.1-0.7-0.2c-0.3-0.1-0.6-0.2-0.9-0.2
			c-0.5,0-0.8,0.4-0.8,0.4C38.8,56.2,38.8,56.2,38.7,56.2z"/>
		<path class="st0" d="M43.1,52.3c-0.1,0-0.2,0-0.3,0v4.2c0,0.1-0.1,0.1-0.1,0.1c0,0-3.2,0-3.3,0c-0.1,0.1-0.3,0.3-0.7,0.3
			c0,0-0.2,0-0.2,0c-0.3,0-0.6-0.2-0.7-0.3c-0.1,0-3.3,0-3.3,0c-0.1,0-0.1-0.1-0.1-0.1v-4.2c-0.1,0-0.2,0-0.3,0c0,0.3,0,4.4,0,4.6
			c0.3,0,3.7,0,3.7,0c0,0,0.1,0,0.1,0c0,0,0.2,0.2,0.5,0.2c0.1,0,0.3,0,0.4,0c0.3-0.1,0.5-0.2,0.5-0.2c0,0,0.1-0.1,0.1-0.1
			c0,0,3.4,0,3.7,0C43.1,56.7,43.1,52.5,43.1,52.3z"/>
		<path class="st0" d="M37.4,51.3c-0.5,0-0.8,0.2-1,0.4c-0.2,0.1-0.3,0.3-0.6,0.3c0,0-0.4,0-0.6,0c0,0.3,0,3.7,0,4
			c0.2,0,0.6,0,0.6,0c0.2,0,0.4-0.1,0.6-0.2c0.3-0.1,0.6-0.3,1-0.3c0.4,0,0.8,0.3,0.9,0.4c0-0.4,0-4,0-4
			C38.4,51.8,38.3,51.3,37.4,51.3z M35.9,52.5c0.1,0,0.3,0,0.6-0.2l0.2-0.1l0.5-0.2c0.3-0.1,0.7,0,0.7,0c0,0,0.1,0,0,0.1
			c0,0,0,0-0.1,0c-0.1,0-0.4,0-0.6,0l-0.4,0.2l-0.2,0.1c-0.3,0.1-0.6,0.2-0.6,0.2C35.9,52.6,35.8,52.6,35.9,52.5
			C35.8,52.5,35.9,52.5,35.9,52.5z M35.9,53.3c0.1,0,0.3,0,0.6-0.2l0.2-0.1l0.5-0.2c0.3-0.1,0.7,0,0.7,0c0,0,0.1,0,0,0.1
			c0,0,0,0.1-0.1,0c-0.1,0-0.4,0-0.6,0l-0.4,0.2l-0.2,0.1c-0.3,0.1-0.6,0.2-0.6,0.2C35.9,53.5,35.8,53.4,35.9,53.3
			C35.8,53.4,35.9,53.3,35.9,53.3z M37.8,54.7c-0.1,0-0.4,0-0.6,0l-0.4,0.2L36.5,55c-0.3,0.1-0.6,0.2-0.6,0.2c0,0-0.1,0-0.1-0.1
			c0,0,0-0.1,0.1-0.1c0.1,0,0.3,0,0.6-0.2l0.2-0.1l0.5-0.2c0.3-0.1,0.7,0,0.7,0C37.9,54.6,37.9,54.6,37.8,54.7
			C37.9,54.7,37.9,54.7,37.8,54.7z M37.8,53.8c-0.1,0-0.4,0-0.6,0L36.8,54l-0.2,0.1c-0.3,0.1-0.6,0.2-0.6,0.2c0,0-0.1,0-0.1-0.1
			c0,0,0-0.1,0.1-0.1c0.1,0,0.3,0,0.6-0.2l0.2-0.1l0.5-0.2c0.3-0.1,0.7,0,0.7,0C37.9,53.7,37.9,53.8,37.8,53.8
			C37.9,53.8,37.9,53.8,37.8,53.8z"/>
		<path class="st0" d="M39.7,55.4c-0.4,0-0.8,0.3-0.9,0.4c0-0.4,0-4.1,0-4.1c0,0,0.2-0.5,1-0.5c0.5,0,0.8,0.2,1,0.4
			c0.2,0.1,0.3,0.3,0.6,0.3c0,0,0.4,0,0.6,0c0,0.3,0,3.7,0,4c-0.2,0-0.6,0-0.6,0c-0.2,0-0.4-0.1-0.6-0.2
			C40.4,55.6,40,55.4,39.7,55.4z M39.3,52.9C39.2,52.9,39.2,52.9,39.3,52.9c0,0.1,0,0.1,0,0.1c0.1,0,0.4,0,0.6,0l0.4,0.2l0.2,0.1
			c0.3,0.1,0.6,0.2,0.6,0.2c0,0,0.1,0,0.1-0.1c0,0,0-0.1-0.1-0.1c-0.1,0-0.3,0-0.6-0.2l-0.2-0.1L40,52.9
			C39.6,52.8,39.3,52.9,39.3,52.9z M39.3,52C39.2,52,39.2,52,39.3,52c0,0.1,0,0.1,0,0.1c0.1,0,0.4,0,0.6,0l0.4,0.2l0.2,0.1
			c0.3,0.1,0.6,0.2,0.6,0.2c0,0,0.1,0,0.1-0.1c0,0,0-0.1-0.1-0.1c-0.1,0-0.3,0-0.6-0.2l-0.2-0.1L40,52C39.6,51.9,39.3,52,39.3,52z
			 M39.3,53.7C39.2,53.7,39.2,53.8,39.3,53.7c0,0.1,0,0.1,0,0.1c0.1,0,0.4,0,0.6,0l0.4,0.2l0.2,0.1c0.3,0.1,0.6,0.2,0.6,0.2
			c0,0,0.1,0,0.1-0.1c0,0,0-0.1-0.1-0.1c-0.1,0-0.3,0-0.6-0.2l-0.2-0.1L40,53.7C39.7,53.7,39.4,53.7,39.3,53.7z M39.3,54.6
			C39.2,54.6,39.2,54.6,39.3,54.6c0,0.1,0,0.1,0,0.1c0.1,0,0.4,0,0.6,0l0.4,0.2l0.2,0.1c0.3,0.1,0.6,0.2,0.6,0.2c0,0,0.1,0,0.1-0.1
			c0,0,0-0.1-0.1-0.1c-0.1,0-0.3,0-0.6-0.2l-0.2-0.1L40,54.6C39.7,54.5,39.4,54.5,39.3,54.6z"/>
		<g>
			<path class="st0" d="M30,64c0,0-0.1-0.1-0.2-0.2c0,0.1-0.1,0.1-0.2,0.2l-0.2,0.1c-0.3,0-0.6,0.1-0.7,0.4c0,0.1-0.1,0.2-0.1,0.3
				c0,0.2,0,0.3,0.1,0.3c0,0,0.1,0,0.1-0.1c-0.1-0.3,0.1-0.6,0.1-0.6c0,0,0,0.2,0,0.3c0,0.1,0,0.1,0,0.1c0.1,0,0.1-0.1,0.1-0.1
				c0-0.2,0.2-0.4,0.4-0.4l0.2,0.1c0.2,0.1,0.5,0.2,0.7,0.1C30.1,64.4,30,64.1,30,64z"/>
		</g>
		<g>
			<path class="st0" d="M34.1,65.4C34.1,65.4,34,65.4,34.1,65.4C34,65.3,34,65.3,34.1,65.4c-0.3-0.1-1.1-0.2-1.2-0.2
				c0,0-0.1,0-0.4,0.1c-0.2,0.1-0.4,0.3-0.5,0.4c0,0,0.1,0.1,0.1,0.1c0.1-0.1,0.2-0.3,0.4-0.3c0.2-0.1,0.4-0.1,0.5,0
				c0.1,0-0.2,0.1-0.4,0.3c-0.1,0.1-0.2,0.2-0.2,0.2c0,0,0,0,0,0c0.1,0,0.2,0,0.3-0.1c0,0,0.3-0.1,0.3-0.1c0.1,0,1.6,0,2,0
				c0,0,0-0.1,0.1-0.1C34.9,65.7,34.5,65.6,34.1,65.4z"/>
		</g>
		<path class="st1" d="M34.6,68c0,0.1-0.4,0.2-0.6,0.2c-0.4,0-0.7,0-0.7-0.2c0-0.1,0.3-0.1,0.7-0.1C34.2,67.9,34.6,67.9,34.6,68
			L34.6,68z M34,68.6c0-0.1-0.4-0.1-0.6-0.1c-0.3,0-0.6,0-0.6,0.1c0,0.1,0.3,0.2,0.6,0.2C33.6,68.8,34,68.7,34,68.6L34,68.6z
			 M33.3,69.3c0-0.1-0.3-0.1-0.4-0.1c-0.2,0-0.5,0-0.5,0.1c0,0.1,0.2,0.1,0.5,0.1C33,69.4,33.3,69.4,33.3,69.3L33.3,69.3z
			 M27.6,61.3L27.6,61.3c-0.2,0.1-0.2,0.1-0.2,0.2c0,0.1,0.1,0.1,0.2,0.1l0.1,0c0.1,0,0.1-0.1,0.1-0.2
			C27.7,61.3,27.6,61.3,27.6,61.3z M32,60.1c0,0-0.1-0.1-0.1,0l-0.8,0.3c-0.1,0-0.1,0.1-0.1,0.2c0,0.1,0.1,0.1,0.2,0.1l0.7-0.4
			C32,60.2,32,60.1,32,60.1L32,60.1z M32.1,60.8c0,0-0.1-0.1-0.1-0.1l-0.6,0.1c-0.1,0-0.1,0.1-0.1,0.2c0,0.1,0.1,0.1,0.2,0.1
			l0.6-0.2C32.1,60.9,32.1,60.8,32.1,60.8L32.1,60.8z M32.1,61.5C32.1,61.5,32,61.5,32.1,61.5l-0.6-0.1c-0.1,0-0.1,0.1-0.1,0.2
			c0,0.1,0.1,0.1,0.1,0.1l0.5-0.1C32.1,61.6,32.1,61.6,32.1,61.5L32.1,61.5z M32,62.2C32,62.2,31.9,62.2,32,62.2l-0.4-0.2
			c-0.1,0-0.1,0.1-0.1,0.1c0,0.1,0,0.1,0.1,0.1L32,62.2C31.9,62.3,32,62.3,32,62.2L32,62.2z M35,59.8c0,0.1,0,0.2,0.1,0.2
			c0,0,0.4,0.1,0.7,0.3c0.1,0,0.1,0,0.2,0c0-0.1,0-0.1,0-0.2c-0.4-0.2-0.8-0.3-0.8-0.3C35.1,59.6,35,59.7,35,59.8L35,59.8z
			 M35.2,60.4c0,0.1,0,0.1,0.1,0.2c0,0,0.3,0.1,0.6,0.2c0.1,0,0.1,0,0.1,0c0-0.1,0-0.1,0-0.1c-0.3-0.2-0.6-0.2-0.6-0.3
			C35.2,60.3,35.2,60.4,35.2,60.4L35.2,60.4z M35.2,61c0,0.1,0,0.1,0.1,0.1c0,0,0.3,0.1,0.4,0.1c0,0,0.1,0,0.1,0s0-0.1,0-0.1
			C35.5,61,35.4,61,35.3,61C35.3,60.9,35.2,61,35.2,61L35.2,61z M35.2,61.6c0,0.1,0,0.1,0.1,0.1c0,0,0.2,0,0.2,0.1c0,0,0.1,0,0.1,0
			c0,0,0-0.1,0-0.1c-0.1,0-0.2-0.1-0.3-0.1C35.3,61.5,35.2,61.5,35.2,61.6L35.2,61.6z M36.6,60.8c0,0.1,0,0.2,0.1,0.2
			c0,0,0.2,0.1,0.4,0.3c0,0,0.1,0,0.2,0c0,0,0-0.1,0-0.2c-0.3-0.3-0.4-0.4-0.4-0.4C36.7,60.7,36.6,60.7,36.6,60.8L36.6,60.8z
			 M36.5,61.5c0,0.1,0,0.1,0.1,0.2c0,0,0.1,0,0.3,0.2c0,0,0.1,0,0.1,0c0,0,0-0.1,0-0.1c-0.3-0.2-0.3-0.3-0.3-0.3
			C36.6,61.4,36.5,61.4,36.5,61.5L36.5,61.5z M36.3,62c0,0,0,0.1,0,0.1c0,0,0.1,0.1,0.2,0.1c0,0,0.1,0,0.1,0c0,0,0-0.1,0-0.1
			c0,0-0.2-0.2-0.2-0.2C36.4,61.9,36.3,61.9,36.3,62L36.3,62z M36.1,62.4c0,0,0,0.1,0,0.1c0,0,0,0,0.1,0.1c0,0,0.1,0,0.1,0
			c0,0,0-0.1,0-0.1c-0.1-0.1-0.1-0.1-0.1-0.1C36.2,62.4,36.1,62.4,36.1,62.4L36.1,62.4z M37.5,62.2c0,0,0,0.1,0,0.1
			c0,0,0.1,0,0.1,0.1c0,0,0.1,0.1,0.1,0c0,0,0.1-0.1,0-0.1c0,0-0.1-0.1-0.1-0.2C37.6,62.2,37.5,62.2,37.5,62.2L37.5,62.2z
			 M37.2,62.6c0,0,0,0.1,0,0.1c0,0,0.1,0.1,0.1,0.1c0,0,0.1,0.1,0.1,0c0,0,0-0.1,0-0.1c0,0,0-0.1-0.1-0.1
			C37.3,62.6,37.2,62.6,37.2,62.6L37.2,62.6z M27.7,62.5c0.1-0.1-0.2-0.3-0.1-0.5c0.1-0.2,0.7-0.4,0.7-0.5c0-0.1-0.8,0.1-0.9,0.4
			C27.3,62.2,27.6,62.6,27.7,62.5L27.7,62.5z M28.6,61c0.1,0.1,0.2-0.1,0.2-0.1c0,0,0.1,0,0.1,0C29,60.9,29,61,29,61
			c0,0,0,0.1,0.1,0.1c0.1,0,0.3-0.3,0-0.5c-0.1,0-0.2-0.1-0.3,0C28.6,60.7,28.5,60.9,28.6,61L28.6,61z M37.4,60.7
			c-2.1-2.6-5.1-1.3-5.3-1.3c-0.6,0.1-1.1,0.4-1.4,0.6l-0.3,0.2l-1.1,0.1c-0.3,0.1-0.8,0.3-1.3,0.6l-0.4,0.2
			c-0.7,0.4-0.8,0.7-0.8,0.7c0,0,0,0.1-0.1,0.1c-0.1,0-0.2,0.1-0.2,0.2c0,0,0,0,0,0c0,0,0,0,0,0l0.1-0.1c0.1,0,0.2,0,0.2,0.1
			c0,0.1,0,0.2-0.1,0.2l-0.1,0.1c0.1,0.2,0.3,0.2,0.3,0.2c0,0,0.1,0,0.1,0c0.1,0,0.5-0.2,0.7,0.3l0,0.2c0,0.1-0.1,0.1-0.2,0.2
			c0.1,0,0.3,0,0.4,0c0,0,0.1,0,0.1,0l0.2,0c0.4-0.1,0.8-0.1,1.1-0.1c0.4,0.1,0.9,0.4,1,0.6c0.1,0.2,0.3,0.8,0.3,1
			c0,0.1-0.1,0.4-0.4,0.5c-0.2,0.1-0.4,0.1-0.6,0.1c0,0-0.2,0-0.2,0c0,0-0.1,0.2-0.2,0.3c0,0,0.1,0,0.2,0c0.1-0.1,0.2-0.2,0.3-0.2
			c0,0,0,0.1,0,0.2c0.2,0,0.3,0,0.3,0l0.1,0c0.2,0,0.5,0,0.6-0.1l0.2-0.1c0,0,0.5-0.4,0.5-0.4l0.5-0.4l0.2-0.2
			c0.1-0.1,0.1-0.7,0-1.4c0-0.1,0-0.1,0.1-0.2c0.1,0,0.1,0,0.2,0.1c0,0.3,0.1,0.8,0,1.2c0,0,0,0,0,0c0.4,0.3,0.8,0.4,1.2,0.5
			c-0.1-0.2-0.2-0.4-0.3-0.6c-0.1-0.2-0.1-0.3-0.1-0.5c0-0.5,0.3-0.9,0.6-1.2c0.2-0.3,0.4-0.5,0.4-0.7c0,0,0,0,0-0.1c0,0,0,0,0,0
			c0-0.1,0.1-0.1,0.1-0.1c0.1,0,0.2,0,0.2,0.1c0.1,0.4-0.2,0.7-0.4,1c-0.3,0.4-0.6,0.8-0.4,1.4c0.1,0.4,0.3,0.7,0.6,0.8c0,0,0,0,0,0
			c0,0,0.1,0,0.1,0.1c0.5,0.2,1,0.3,1,0.3c0,0,0.1,0,0.1,0.1c0,0,0,0.1,0,0.1c0,0,0,0.2-0.2,0.4c0,0,0,0.1,0,0.1
			c0,0-0.1,0.1-0.1,0.1l-0.5,0.4c-0.4,0.3-1,0.7-1.7,1.2c-0.8,0.7-1.3,1.6-1.2,2c0,0.1,0.1,0.2,0.3,0.2c1.4,0.1,2.2-0.7,2.9-1.5
			l0.2-0.2c0.5-0.5,0.8-1.1,1.1-1.5c0.2-0.3,0.2-0.4,0.3-0.5c0.6-0.4,1.4-1.6,1.6-3C38.2,62.4,38,61.5,37.4,60.7z"/>
		<path class="st0" d="M40.9,66.2c0.3,0,0.5,0,0.8-0.1c0.2-0.1,0.4-0.3,0.5-0.4c0.2,0.3,0.6,0.9,0.8,1.1c-0.3,0.4-0.6,0.7-1,1
			L40.9,66.2z"/>
		<path class="st0" d="M23.5,65.6c0.1,0.2,0.3,0.3,0.5,0.4c0.3,0.1,0.5,0.1,0.8,0.1l-1.2,1.6c-0.4-0.3-0.7-0.7-1-1
			C22.9,66.5,23.3,65.9,23.5,65.6z"/>
		<path class="st0" d="M27.2,75.3c0.1-0.1,0.1-0.1,0.2-0.2l0.2-0.2c0.3-0.2,0.6-0.5,0.9-0.8c0.6,0.3,1.1,0.5,1.4,0.9
			c0.2,0.3,0.3,0.6,0.1,0.8c0,0-0.1,0.1-0.2,0.1l-0.4,0.4h-0.2c-1.1,0-1.9-0.4-2.1-0.8C27.1,75.6,27.2,75.4,27.2,75.3z"/>
		<path class="st0" d="M38.1,74.9l0.2,0.2c0.1,0.1,0.2,0.1,0.2,0.2c0.1,0.1,0.1,0.3,0,0.4c-0.2,0.4-0.9,0.8-2.1,0.8c0,0,0,0,0,0h0
			h-0.2L35.9,76c0,0-0.1-0.1-0.2-0.2c-0.1-0.1-0.1-0.6,0.1-0.8c0.3-0.4,0.8-0.6,1.4-0.9C37.4,74.4,37.8,74.7,38.1,74.9z"/>
		<path class="st0" d="M23.9,63.2C23.9,63.2,23.9,63.2,23.9,63.2L23.9,63.2z"/>
		<path class="st0" d="M27.7,73.4l-0.1,0c-2.6-1-4.8-2.4-5.8-3.7c-1.1-1.4-1-2.6-0.6-3.3l0.4-0.8l0.3-0.7c0,0.4,0,0.8,0.2,1.3
			c0.5,1.3,2.4,2.7,3.7,3.5c0.6,0.3,1.2,0.6,1.8,0.9c1.6,0.7,2.8,1.3,2.8,2.7v1.7c0,0.1,0,0.1,0,0.2c0-0.1-0.1-0.2-0.2-0.3
			C29.6,74.2,28.7,73.9,27.7,73.4z M25.1,69.9c0-0.1,0.1-0.1,0.1-0.2c-0.2-0.1-0.4-0.3-0.6-0.4c0,0-0.1,0.1-0.1,0.2
			c0,0,0.1,0.1,0.1,0.1c-0.2,0.4-0.4,0.8-0.6,1.3c0,0-0.1-0.1-0.1-0.1c0,0-0.1,0.1-0.1,0.2c0.3,0.2,0.7,0.4,1,0.6
			c0.1-0.1,0.2-0.2,0.3-0.4c0,0,0,0,0,0c0,0-0.1-0.1-0.1-0.1c-0.1,0.1-0.2,0.2-0.3,0.2c-0.1,0-0.3-0.1-0.4-0.2
			c0-0.1,0.4-0.9,0.6-1.2C24.9,69.8,25,69.9,25.1,69.9L25.1,69.9z M23.5,70c0.1-0.1,0.2-0.3,0.2-0.4c0,0-0.1-0.1-0.1-0.1
			c0,0-0.1,0.1-0.1,0.1c0,0-0.2-0.2-0.3-0.2c0.1-0.2,0.2-0.4,0.3-0.5c0.1,0.1,0.3,0.2,0.3,0.3c0,0.1-0.1,0.2-0.1,0.3
			c0,0,0.1,0.1,0.1,0.1c0.1-0.1,0.1-0.3,0.2-0.4c-0.3-0.2-0.6-0.5-0.9-0.7c0,0.1-0.1,0.1-0.1,0.2c0,0,0.1,0.1,0.1,0.1
			c-0.2,0.4-0.4,0.8-0.6,1.2c0,0-0.1-0.1-0.1-0.1c0,0.1-0.1,0.1-0.1,0.1c0.3,0.3,0.6,0.5,0.9,0.7c0.1-0.1,0.2-0.3,0.3-0.4
			c0,0,0,0,0,0c0,0-0.1-0.1-0.1-0.1c0,0-0.2,0.2-0.2,0.2c-0.1,0-0.3-0.2-0.4-0.3c0-0.1,0.2-0.4,0.3-0.5c0.1,0.1,0.2,0.1,0.2,0.2
			c0,0,0,0.1-0.1,0.2C23.4,70,23.5,70,23.5,70L23.5,70z M28.7,71.6c-0.4-0.2-0.9-0.4-1.3-0.6c-0.1,0.1-0.1,0.3-0.2,0.4
			c0.1,0,0.1,0.1,0.2,0.1c0.1-0.1,0.1-0.2,0.2-0.2c0.1,0,0.2,0.1,0.3,0.1c-0.2,0.4-0.4,0.9-0.6,1.3c-0.1,0-0.1-0.1-0.2-0.1
			c0,0.1,0,0.1-0.1,0.2c0.2,0.1,0.5,0.2,0.7,0.3c0-0.1,0-0.1,0.1-0.2c-0.1,0-0.1-0.1-0.2-0.1c0.2-0.4,0.4-0.9,0.6-1.3
			c0.1,0,0.2,0.1,0.3,0.2c0,0.1-0.1,0.2-0.1,0.3c0,0,0.1,0.1,0.2,0.1C28.6,71.9,28.7,71.7,28.7,71.6L28.7,71.6z M27.2,70.9
			c-0.2-0.1-0.4-0.2-0.6-0.3c0,0,0,0.1-0.1,0.1c0.1,0,0.1,0.1,0.2,0.1c-0.2,0.4-0.5,1.4-0.9,1.1c-0.3-0.2-0.2-0.4,0-0.8
			c0.1-0.2,0.2-0.4,0.3-0.6c0.1,0,0.1,0.1,0.2,0.1c0-0.1,0-0.1,0.1-0.2c-0.2-0.1-0.4-0.2-0.6-0.3c0,0.1-0.1,0.1-0.1,0.2
			c0,0,0.1,0,0.1,0.1c0,0.1-0.1,0.3-0.2,0.4c-0.2,0.4-0.4,0.8-0.2,1.1c0,0.1,0.1,0.1,0.2,0.2c0.1,0.1,0.3,0.1,0.4,0.1
			c0.5,0,0.7-0.6,1-1.2c0,0,0.1,0,0.1,0.1C27.1,71,27.2,70.9,27.2,70.9L27.2,70.9z M22.9,68.4c0,0,0.1,0.1,0.1,0.1
			c0-0.1,0-0.1,0.1-0.2c-0.1-0.1-0.3-0.3-0.4-0.4c0,0.1-0.1,0.1-0.1,0.2c0,0.1,0.1,0.1,0.2,0.1c-0.1,0.2-0.7,0.7-0.7,0.8
			c0,0,0,0,0,0c0,0,0.2-1.2,0.2-1.4c0,0.1,0.1,0.1,0.1,0.2c0-0.1,0.1-0.1,0.1-0.2c-0.2-0.2-0.3-0.4-0.4-0.6c0,0-0.1,0.1-0.1,0.1
			c0,0,0.1,0.1,0.1,0.1c0,0.2-0.3,1.7-0.3,1.8c0,0.1,0.1,0.1,0.1,0.2C22.2,69.1,22.8,68.5,22.9,68.4L22.9,68.4z"/>
		<path class="st0" d="M44,69.7c-1,1.3-3.2,2.7-5.8,3.7l-0.1,0c-1.1,0.4-2,0.8-2.5,1.4c-0.1,0.1-0.1,0.2-0.2,0.3c0-0.1,0-0.1,0-0.2
			v-1.7c0-1.4,1.3-2,2.8-2.7c0.6-0.3,1.2-0.5,1.8-0.9c1.4-0.8,3.2-2.2,3.7-3.5c0.2-0.5,0.3-0.9,0.2-1.3l0.3,0.7l0.4,0.8
			C45,67.1,45.2,68.2,44,69.7z M38.6,71.8C38.6,71.8,38.6,71.8,38.6,71.8c0-0.3,0-0.5,0.1-0.8c0,0,0,0,0,0c0.1,0.2,0.2,0.4,0.3,0.6
			C38.8,71.6,38.7,71.7,38.6,71.8L38.6,71.8z M40,71.6c0,0.1,0.1,0.2,0,0.3c0,0.1-0.4,0.3-0.5,0.3c-0.1-0.2-0.1-0.3-0.2-0.5
			c0.1,0,0.4-0.2,0.4-0.2c0,0,0.1,0.1,0.1,0.1c0.1,0,0.1-0.1,0.2-0.1c-0.1-0.2-0.1-0.3-0.2-0.5c-0.1,0-0.1,0.1-0.2,0.1
			c0,0.1,0,0.1,0,0.2c0,0.1-0.3,0.2-0.4,0.2c-0.1-0.2-0.2-0.4-0.3-0.6c0.1-0.1,0.3-0.2,0.5-0.2c0.1,0,0.1,0.1,0.2,0.2
			c0.1,0,0.1-0.1,0.2-0.1c0,0-0.2-0.3-0.2-0.4c-0.3,0.2-0.7,0.4-1,0.5c0,0.6-0.1,1.2-0.2,1.8c0,0-0.1,0.1-0.1,0.1
			c0,0.1,0,0.1,0.1,0.2c0.2-0.1,0.4-0.2,0.6-0.2c0-0.1,0-0.1-0.1-0.2c-0.1,0-0.1,0.1-0.2,0.1c0-0.2,0-0.4,0-0.6
			c0.1-0.1,0.3-0.1,0.4-0.2c0.1,0.2,0.1,0.4,0.2,0.5c-0.1,0-0.1,0.1-0.2,0.1c0,0.1,0.1,0.1,0.1,0.2c0.4-0.2,0.8-0.4,1.1-0.6
			c0-0.1-0.1-0.3-0.1-0.4C40.1,71.5,40,71.6,40,71.6L40,71.6z M41.3,69.5c0,0,0.1-0.1,0.1-0.1c0-0.1-0.1-0.1-0.1-0.2
			c-0.2,0.1-0.3,0.2-0.5,0.3c0,0.1,0.1,0.1,0.1,0.2c0.1,0,0.1-0.1,0.2-0.1c0.1,0.2,0.1,1,0.1,1.1c0,0.1,0,0.1,0,0.2c0,0,0,0,0,0
			c0,0-0.2-0.2-0.2-0.2l-0.4-0.5c-0.1-0.1-0.1-0.1-0.2-0.2c0.1,0,0.1-0.1,0.2-0.1c0-0.1,0-0.1-0.1-0.2c-0.2,0.1-0.4,0.2-0.7,0.4
			c0,0.1,0,0.1,0.1,0.2c0,0,0.1,0,0.1-0.1c0.1,0.1,0.2,0.2,0.3,0.3c0.2,0.2,0.4,0.4,0.6,0.6c0.1,0.1,0.2,0.2,0.3,0.3
			c0.1,0,0.1-0.1,0.2-0.1c0-0.4-0.1-0.8-0.1-1.3C41.3,69.9,41.3,69.7,41.3,69.5L41.3,69.5z M42.8,70.1c-0.4,0.3-0.8-0.2-0.9-0.6
			c0-0.2,0-0.4,0.1-0.6c0,0,0.1-0.1,0.1-0.1c0.1-0.1,0.2-0.1,0.2-0.1C42.9,68.8,43.3,69.8,42.8,70.1L42.8,70.1z M43,68.7
			c-0.2-0.2-0.5-0.3-0.9,0c-0.1,0.1-0.1,0.1-0.2,0.2c-0.2,0.2-0.2,0.4-0.2,0.6c0,0.1,0,0.2,0,0.3c0,0.1,0.1,0.3,0.2,0.4
			c0.2,0.3,0.5,0.4,0.9,0.3C43.4,70.1,43.5,69.2,43,68.7L43,68.7z"/>
		<path class="st0" d="M38.7,76C38.7,76,38.7,76.1,38.7,76l0,2.4c0,0.7-1.2,1-2.3,1h-7.2c-1.1,0-2.3-0.3-2.3-1v-2.4c0,0,0,0,0-0.1
			c0.4,0.5,1.3,0.8,2.3,0.8h7.2h0C37.5,76.8,38.3,76.5,38.7,76z M36.4,78.1c0-0.2,0-0.5,0-0.7c0.1,0,0.2,0,0.3,0
			c0.2,0.1,0.3,0.3,0.1,0.5C36.7,78.1,36.6,78.1,36.4,78.1L36.4,78.1z M37.2,78.6c-0.1-0.1-0.2-0.4-0.3-0.5c0,0,0,0,0,0
			c0.3-0.1,0.5-0.5,0.2-0.8c-0.2-0.2-0.7-0.1-1.1-0.1c0,0.1,0,0.1,0,0.2v0c0.1,0,0.1,0,0.2,0v1.4c-0.1,0-0.1,0-0.2,0
			c0,0.1,0,0.1,0,0.2v0h0.7c0-0.1,0-0.1,0-0.2c-0.1,0-0.1,0-0.2,0c0-0.2,0-0.4,0-0.5c0.1,0,0.2,0,0.2,0c0.2,0.1,0.3,0.5,0.4,0.7
			c0,0,0.4,0,0.4,0l0-0.2c-0.1,0-0.1,0-0.2,0C37.2,78.8,37.2,78.7,37.2,78.6L37.2,78.6z M33.2,78.6c0,0.1-0.2,0.2-0.3,0.2
			c-0.1,0-0.2,0-0.2,0c0,0,0-0.1,0-0.1c0-0.1,0-0.4,0-0.5C32.9,78.1,33.3,78.2,33.2,78.6L33.2,78.6z M32.6,77.4c0.2,0,0.3,0,0.4,0.1
			c0,0,0.1,0.1,0,0.2c0,0.2-0.2,0.3-0.5,0.3C32.6,77.8,32.6,77.6,32.6,77.4L32.6,77.4z M33.1,78L33.1,78L33.1,78
			c0.3-0.1,0.5-0.5,0.1-0.7c-0.2-0.1-0.7-0.1-1.1-0.1v0.2c0.1,0,0.1,0,0.2,0v1.4c-0.1,0-0.1,0-0.2,0c0,0.1,0,0.1,0,0.2
			c0.4,0,0.9,0.1,1.1-0.1c0.2-0.1,0.3-0.4,0.2-0.6C33.3,78.1,33.2,78.1,33.1,78L33.1,78z M30.8,78.1c0-0.2,0-0.5,0-0.7
			c0.1,0,0.2,0,0.3,0c0.2,0.1,0.3,0.3,0.1,0.5C31.2,78.1,31,78.1,30.8,78.1L30.8,78.1z M31.6,78.6c-0.1-0.1-0.2-0.4-0.3-0.5
			c0,0,0,0,0,0c0.3-0.1,0.5-0.5,0.2-0.8c-0.2-0.2-0.7-0.1-1.1-0.1c0,0.1,0,0.1,0,0.2v0c0.1,0,0.1,0,0.2,0v1.4c-0.1,0-0.1,0-0.2,0
			c0,0.1,0,0.1,0,0.2v0H31c0-0.1,0-0.1,0-0.2c-0.1,0-0.1,0-0.2,0c0-0.2,0-0.4,0-0.5c0.1,0,0.2,0,0.2,0c0.2,0.1,0.3,0.5,0.4,0.7
			c0,0,0.4,0,0.4,0l0-0.2c-0.1,0-0.1,0-0.2,0C31.7,78.8,31.7,78.7,31.6,78.6L31.6,78.6z M29,78.3c0.1-0.2,0.2-0.5,0.2-0.7
			c0,0,0,0,0,0l0.2,0.7H29L29,78.3z M29.4,77.2c-0.1,0-0.2,0-0.2,0c-0.2,0.5-0.4,1-0.6,1.6c0,0-0.1,0-0.2,0V79H29v-0.2
			c-0.1,0-0.1,0-0.2,0c0-0.1,0.1-0.2,0.1-0.3c0.2,0,0.4,0,0.6,0c0,0.1,0.1,0.2,0.1,0.3c-0.1,0-0.1,0-0.2,0V79h0.7v-0.2
			c-0.1,0-0.1,0-0.2,0C29.8,78.3,29.6,77.7,29.4,77.2L29.4,77.2z M34.8,78.8c-0.5,0.1-0.6-0.5-0.5-0.9c0-0.2,0.1-0.4,0.3-0.5
			c0,0,0.1,0,0.1,0c0.1,0,0.2,0,0.3,0.1C35.3,77.7,35.3,78.7,34.8,78.8L34.8,78.8z M34.7,77.2c-0.1,0-0.1,0-0.2,0
			c-0.2,0.1-0.4,0.2-0.5,0.4c0,0.1-0.1,0.2-0.1,0.3c0,0.1,0,0.3,0,0.4c0.1,0.4,0.3,0.6,0.7,0.7c0.7,0.1,1.1-0.7,0.9-1.3
			C35.4,77.4,35.1,77.2,34.7,77.2L34.7,77.2z"/>
		<path class="st0" d="M45.1,50.1c0,0,0,0.1,0,0.1c0,0.1,0,0.1,0,0.1H20.7c0,0,0-0.1,0-0.1c0-0.1,0-0.1,0-0.1H45.1z M45.1,50.1
			c0-4.2,0-9.3,0-9.3H32.9l0,0h0H20.7c0,0,0,5.1,0,9.3 M31.1,46.9c0.1,0,0.3,0.1,0.3,0.3c0,0.1-0.1,0.3-0.3,0.3
			c-0.1,0-0.3-0.1-0.3-0.3C30.8,47,30.9,46.9,31.1,46.9L31.1,46.9z M29.2,47.5c0.1-0.1,0.3,0,0.3,0.1c0.1,0.1,0,0.3-0.1,0.3
			c-0.1,0.1-0.3,0-0.3-0.1C29.1,47.7,29.1,47.6,29.2,47.5L29.2,47.5z M30.2,47.2c0.1,0,0.1,0.1,0.1,0.1c0,0.1-0.1,0.1-0.1,0.1
			c-0.1,0-0.1-0.1-0.1-0.1C30.1,47.3,30.1,47.2,30.2,47.2L30.2,47.2z M31.9,46.9c0.1,0,0.1,0.1,0.1,0.1c0,0.1-0.1,0.1-0.1,0.1
			c-0.1,0-0.1-0.1-0.1-0.1C31.8,47,31.9,46.9,31.9,46.9L31.9,46.9z M34.9,47.2c0,0.1-0.1,0.3-0.3,0.3c-0.1,0-0.3-0.1-0.3-0.3
			c0-0.1,0.1-0.3,0.3-0.3C34.8,46.9,34.9,47,34.9,47.2L34.9,47.2z M36.6,47.8c-0.1,0.1-0.2,0.2-0.3,0.1c-0.1-0.1-0.2-0.2-0.1-0.3
			c0.1-0.1,0.2-0.2,0.3-0.1C36.6,47.6,36.6,47.7,36.6,47.8L36.6,47.8z M35.6,47.4c0,0.1-0.1,0.1-0.1,0.1c-0.1,0-0.1-0.1-0.1-0.1
			c0-0.1,0.1-0.1,0.1-0.1C35.6,47.2,35.6,47.3,35.6,47.4L35.6,47.4z M33.9,47.1c0,0.1-0.1,0.1-0.1,0.1c-0.1,0-0.1-0.1-0.1-0.1
			c0-0.1,0.1-0.1,0.1-0.1C33.8,46.9,33.9,47,33.9,47.1L33.9,47.1z M32.8,43.9c0.1,0,0.3,0.1,0.3,0.3c0,0.1-0.1,0.3-0.3,0.3
			c-0.1,0-0.3-0.1-0.3-0.3C32.6,44,32.7,43.9,32.8,43.9L32.8,43.9z M32.8,43.2c0.1,0,0.3,0.1,0.3,0.3c0,0.1-0.1,0.3-0.3,0.3
			c-0.1,0-0.3-0.1-0.3-0.3C32.6,43.3,32.7,43.2,32.8,43.2L32.8,43.2z M32.8,42.5c0.1,0,0.3,0.1,0.3,0.3c0,0.1-0.1,0.3-0.3,0.3
			c-0.1,0-0.3-0.1-0.3-0.3C32.6,42.6,32.7,42.5,32.8,42.5L32.8,42.5z M31.6,42.5c0.1,0,0.3,0.1,0.3,0.3c0,0.1-0.1,0.3-0.3,0.3
			c-0.1,0-0.3-0.1-0.3-0.3C31.3,42.7,31.5,42.5,31.6,42.5L31.6,42.5z M30.8,42.3c0.1,0,0.3,0.1,0.3,0.3c0,0.1-0.1,0.3-0.3,0.3
			c-0.1,0-0.3-0.1-0.3-0.3C30.5,42.4,30.6,42.3,30.8,42.3L30.8,42.3z M29.9,42.1c0.1,0,0.3,0.1,0.3,0.3c0,0.1-0.1,0.3-0.3,0.3
			c-0.1,0-0.3-0.1-0.3-0.3C29.6,42.2,29.7,42.1,29.9,42.1L29.9,42.1z M29,42.2c0.1,0,0.3,0.1,0.3,0.3c0,0.1-0.1,0.3-0.3,0.3
			c-0.1,0-0.3-0.1-0.3-0.3C28.7,42.3,28.9,42.2,29,42.2L29,42.2z M28.2,42.7c0.1,0,0.3,0.1,0.3,0.3c0,0.1-0.1,0.3-0.3,0.3
			c-0.1,0-0.3-0.1-0.3-0.3C28,42.8,28.1,42.7,28.2,42.7L28.2,42.7z M27.8,43.5c0.1,0,0.3,0.1,0.3,0.3c0,0.1-0.1,0.3-0.3,0.3
			c-0.1,0-0.3-0.1-0.3-0.3C27.5,43.6,27.6,43.5,27.8,43.5L27.8,43.5z M27.8,44.4c0.1,0,0.3,0.1,0.3,0.3s-0.1,0.3-0.3,0.3
			c-0.1,0-0.3-0.1-0.3-0.3S27.6,44.4,27.8,44.4L27.8,44.4z M28.1,45.2c0.1,0,0.3,0.1,0.3,0.3c0,0.1-0.1,0.3-0.3,0.3
			c-0.1,0-0.3-0.1-0.3-0.3C27.9,45.3,28,45.2,28.1,45.2L28.1,45.2z M34.4,42.8c0,0.1-0.1,0.3-0.3,0.3c-0.1,0-0.3-0.1-0.3-0.3
			c0-0.1,0.1-0.3,0.3-0.3C34.2,42.5,34.4,42.7,34.4,42.8L34.4,42.8z M35.2,42.5c0,0.1-0.1,0.3-0.3,0.3c-0.1,0-0.3-0.1-0.3-0.3
			c0-0.1,0.1-0.3,0.3-0.3C35.1,42.3,35.2,42.4,35.2,42.5L35.2,42.5z M36.1,42.3c0,0.1-0.1,0.3-0.3,0.3c-0.1,0-0.3-0.1-0.3-0.3
			c0-0.1,0.1-0.3,0.3-0.3C36,42.1,36.1,42.2,36.1,42.3L36.1,42.3z M37,42.4c0,0.1-0.1,0.3-0.3,0.3c-0.1,0-0.3-0.1-0.3-0.3
			c0-0.1,0.1-0.3,0.3-0.3C36.8,42.2,37,42.3,37,42.4L37,42.4z M37.7,42.9c0,0.1-0.1,0.3-0.3,0.3c-0.1,0-0.3-0.1-0.3-0.3
			c0-0.1,0.1-0.3,0.3-0.3C37.6,42.7,37.7,42.8,37.7,42.9L37.7,42.9z M38.2,43.7c0,0.1-0.1,0.3-0.3,0.3c-0.1,0-0.3-0.1-0.3-0.3
			c0-0.1,0.1-0.3,0.3-0.3C38.1,43.5,38.2,43.6,38.2,43.7L38.2,43.7z M38.2,44.6c0,0.1-0.1,0.3-0.3,0.3c-0.1,0-0.3-0.1-0.3-0.3
			s0.1-0.3,0.3-0.3C38.1,44.4,38.2,44.5,38.2,44.6L38.2,44.6z M37.8,45.5c0,0.1-0.1,0.3-0.3,0.3c-0.1,0-0.3-0.1-0.3-0.3
			c0-0.1,0.1-0.3,0.3-0.3C37.7,45.2,37.8,45.3,37.8,45.5L37.8,45.5z M35.3,49.6c0,0,0.2-0.1,0.2-0.1c0.5-0.3,0.7-0.6,0.7-0.8
			c0-0.4-1.5-1-3.4-1c-2,0-3.4,0.5-3.4,1c0,0.2,0.2,0.5,0.8,0.8c0,0,0.2,0.1,0.2,0.1c0,0-0.2,0-0.3,0c-0.6-0.2-1-0.5-1-0.9
			c0-0.8,1.9-1.2,3.7-1.2c1.8,0,3.7,0.4,3.7,1.2c0,0.4-0.4,0.7-1,0.9C35.6,49.5,35.3,49.6,35.3,49.6L35.3,49.6z M32.8,46.6
			c-1.1,0-2.2,0.2-3,0.4c-0.3,0.1-0.6,0.3-0.7,0.4c0,0-0.1,0-0.1,0c-0.1,0-0.1-0.1-0.1-0.2c0-0.2-0.1-0.6-0.4-1.2
			c0-0.1,0-0.1,0.1-0.1c0.2,0.2,0.5,0.8,0.6,1c0,0,0,0,0,0s0,0,0,0c0.1-0.1,0.3-0.2,0.6-0.3c0.8-0.3,1.9-0.5,3.1-0.5h0
			c1.2,0,2.3,0.2,3.1,0.5c0.3,0.1,0.4,0.2,0.6,0.3c0,0,0,0,0,0s0,0,0,0c0-0.2,0.4-0.8,0.6-1c0-0.1,0.1,0,0.1,0.1
			c-0.3,0.5-0.4,1-0.4,1.2c0,0.1,0,0.1-0.1,0.2c0,0-0.1,0-0.1,0c-0.2-0.1-0.4-0.2-0.7-0.4C35.1,46.8,34,46.6,32.8,46.6L32.8,46.6
			L32.8,46.6z M33.4,41.8c0,0.1-0.1,0.1-0.1,0.1H33v0.3c0,0.1-0.1,0.1-0.1,0.1c-0.1,0-0.1-0.1-0.1-0.1v-0.3h-0.3
			c-0.1,0-0.1-0.1-0.1-0.1c0-0.1,0.1-0.1,0.1-0.1h0.3v-0.3c0-0.1,0.1-0.1,0.1-0.1c0.1,0,0.1,0.1,0.1,0.1v0.3h0.3
			C33.3,41.6,33.4,41.7,33.4,41.8z M32.8,48.1c1,0,3,0.2,3,0.8c0,0.6-2,0.8-3,0.8c-1,0-3-0.2-3-0.8C29.8,48.3,31.8,48.1,32.8,48.1z
			 M37.5,44.1c0,0.8-0.6,1.7-0.9,2l0,0l0,0l0,0c-0.1,0.2-0.4,0.5-0.9,0.3c-0.2-0.1-0.4-0.1-0.6-0.4c-0.1-0.1-0.1-0.3,0-0.5
			c0,0,0.1-0.1,0.2-0.1c0,0,0.1,0.1,0,0.2c-0.1,0.1,0,0.2,0.1,0.3c0.1,0,0.2,0,0.2,0c0,0-0.2-0.1,0-0.2c0.1-0.1,0.4-0.3,0-0.5
			c-0.3-0.1-0.5,0.3-0.5,0.3c0,0.1-0.1,0,0,0c0.1-0.3,0.3-0.4,0.4-0.7c0-0.2-0.1-0.4-0.2-0.5c0,0-0.1,0-0.1,0
			c-0.1,0-0.3,0.2-0.4,0.4c-0.1,0.3,0.1,0.5,0.1,0.8c0,0.1,0,0.1-0.1,0c0-0.1-0.1-0.5-0.4-0.5c-0.4,0-0.3,0.4-0.2,0.5
			c0.1,0.2-0.1,0.2-0.1,0.2c0,0,0.1,0.1,0.2,0.1c0.1,0,0.2-0.1,0.2-0.2c0-0.1,0-0.1,0.1-0.1c0.1,0,0.1,0.1,0.1,0.1
			c0.1,0.2,0,0.4-0.2,0.4c-0.2,0.2-0.5,0.2-0.7,0.1c-0.6-0.1-0.6-0.4-0.6-0.4c0.1,0.1,0.4,0.1,0.4,0.1c0,0,0,0,0,0
			c0,0,0.1,0,0.1-0.1v-0.6c0,0,0-0.1-0.1-0.1c0,0,0,0,0,0l-0.4,0.2l0.1-0.3c0,0,0,0,0,0c0-0.1,0-0.1-0.1-0.1l-0.3,0l-0.3,0
			c0,0-0.1,0-0.1,0.1c0,0,0,0,0,0l0.1,0.3l-0.4-0.2c0,0,0,0,0,0c0,0-0.1,0-0.1,0.1v0.6c0,0,0,0.1,0.1,0.1c0,0,0,0,0,0
			c0,0,0.3-0.1,0.4-0.1c0,0,0,0.4-0.6,0.4c-0.2,0-0.5,0-0.7-0.1c-0.1-0.1-0.2-0.2-0.2-0.4c0-0.1,0.1-0.1,0.1-0.1
			c0,0,0.1,0.1,0.1,0.1c0,0.1,0.1,0.2,0.2,0.2c0.1,0,0.2-0.1,0.2-0.1c0,0-0.2,0-0.1-0.2c0.1-0.1,0.2-0.5-0.2-0.5
			c-0.3,0-0.4,0.4-0.4,0.5c0,0.1,0,0.1-0.1,0c-0.1-0.3,0.1-0.5,0.1-0.8c0-0.2-0.3-0.3-0.4-0.4c0,0-0.1,0-0.1,0
			c-0.1,0.1-0.3,0.3-0.2,0.5c0.1,0.3,0.3,0.4,0.4,0.7c0,0.1,0,0.1,0,0c0-0.1-0.3-0.5-0.5-0.3c-0.4,0.2-0.1,0.4,0,0.5
			c0.1,0.1,0,0.2,0,0.2c0,0,0.1,0.1,0.2,0c0.1-0.1,0.2-0.2,0.1-0.3c0-0.1,0-0.1,0-0.2c0,0,0.2,0,0.2,0.1c0.1,0.2,0.1,0.3,0,0.5
			c-0.1,0.2-0.3,0.3-0.6,0.4c-0.4,0.1-0.7-0.1-0.9-0.3l0,0l0,0l0,0c-0.3-0.4-0.9-1.2-0.9-2c0-0.8,0.7-1.4,1.6-1.4
			c0.4,0,0.8,0.1,1.1,0.3c0.4,0.1,0.8,0.3,1.2,0.2v-0.8c0-0.1,0.1-0.1,0.1-0.1c0.1,0,0.1,0.1,0.1,0.1v2.1h1v-2.1
			c0-0.1,0.1-0.1,0.1-0.1c0.1,0,0.1,0.1,0.1,0.1v0.8c0.4,0,0.8-0.1,1.2-0.2c0.4-0.1,0.7-0.3,1.1-0.3C36.9,42.8,37.5,43.3,37.5,44.1z
			 M32.8,49.4c1.8,0,2.7-0.4,2.7-0.5c0-0.2-0.9-0.5-2.7-0.5c-1.8,0-2.7,0.4-2.7,0.5C30.1,49,31,49.4,32.8,49.4z M32.1,43.6
			c-0.1,0-0.2,0-0.3,0c0.1,0,0.2,0.1,0.3,0.1V43.6z M37.1,44.8c0.1-0.2,0.1-0.4,0.1-0.6c0-0.6-0.6-1.1-1.3-1.1c-0.3,0-0.7,0.1-1,0.3
			c-0.1,0.1-0.3,0.1-0.4,0.1c0,0,0.1,0,0.1,0c0.5,0,0.9,0.2,1.2,0.4c0.5,0,0.9,0.1,1.1,0.5C37,44.5,37.1,44.6,37.1,44.8z M33.6,43.6
			v0.1c0.1-0.1,0.2-0.1,0.3-0.1C33.8,43.6,33.7,43.6,33.6,43.6z M36.7,44.5c-0.2-0.2-0.5-0.4-1-0.3c0,0-0.1,0-0.1-0.1
			c-0.1-0.2-0.5-0.4-1-0.4c-0.2,0-0.7,0-0.9,0.4c0,0,0,0,0,0v0.4c0.1-0.1,0.3-0.2,0.4-0.3c0,0,0.2-0.1,0.3-0.1c0.1,0,0.2,0,0.2,0.1
			c0,0-0.2,0.1-0.4,0.3c-0.1,0.1-0.3,0.3-0.3,0.4c0.1,0,0.2,0,0.2,0.1c0.1-0.1,0.2-0.2,0.4-0.2c0,0,0.1,0,0.1,0c0,0,0,0,0-0.1
			c0.1-0.4,0.5-0.6,0.7-0.6c0.1,0,0.2,0,0.2,0c0.2,0.1,0.4,0.4,0.4,0.7c0,0,0,0.1,0,0.1c0,0,0,0,0,0.1c0,0,0.1,0,0.1,0
			c0.3,0.1,0.3,0.3,0.4,0.4c0,0,0,0,0,0.1c0,0.2-0.1,0.3-0.2,0.4c0,0,0,0,0,0c0,0,0,0.1,0,0.1c0,0.1,0,0.2-0.1,0.2c0,0,0,0,0.1,0
			c0.2,0,0.3-0.2,0.4-0.5c0.2-0.6-0.5-1.1-0.4-1.2c0,0,0.1,0,0.1,0c0.3,0.2,0.7,0.5,0.6,1c0-0.1,0.1-0.1,0.1-0.2c0,0,0,0,0,0
			C36.9,45.1,36.9,44.8,36.7,44.5z M31.2,43.4c-0.1,0-0.3-0.1-0.4-0.1c-0.4-0.1-0.7-0.3-1-0.3c-0.7,0-1.3,0.5-1.3,1.1
			c0,0.2,0.1,0.4,0.1,0.6c0-0.1,0.1-0.3,0.2-0.4c0.2-0.3,0.6-0.5,1.2-0.5c0.2-0.2,0.7-0.4,1.2-0.4C31.1,43.4,31.2,43.4,31.2,43.4z
			 M33.1,47c0,0.1-0.1,0.3-0.3,0.3s-0.3-0.1-0.3-0.3c0-0.1,0.1-0.3,0.3-0.3S33.1,46.9,33.1,47z M32.1,44.1
			C32.1,44.1,32,44.1,32.1,44.1c-0.3-0.3-0.7-0.4-0.9-0.4c-0.5,0-0.9,0.2-1,0.4c0,0-0.1,0.1-0.1,0.1c-0.5,0-0.8,0.1-1,0.3
			c-0.2,0.3-0.2,0.6-0.1,0.8c0,0,0,0,0,0c0,0.1,0.1,0.1,0.1,0.2c0-0.5,0.3-0.9,0.6-1c0,0,0.1,0,0.1,0c0.1,0.1-0.6,0.6-0.4,1.2
			c0.1,0.4,0.3,0.5,0.5,0.5l0,0c-0.1-0.1-0.1-0.2-0.1-0.2c0,0,0-0.1,0-0.1c0,0,0,0,0,0c-0.1-0.1-0.2-0.2-0.2-0.4c0,0,0,0,0-0.1
			c0-0.1,0.1-0.3,0.4-0.4c0,0,0.1,0,0.1,0c0,0,0,0,0-0.1c0,0,0-0.1,0-0.1c0-0.3,0.2-0.6,0.4-0.7c0,0,0.1-0.1,0.2,0
			c0.2,0.1,0.6,0.2,0.7,0.6c0,0,0,0,0,0.1c0,0,0.1,0,0.1,0c0.2,0,0.3,0.1,0.4,0.2c0-0.1,0.1-0.1,0.2-0.1c-0.1-0.1-0.2-0.2-0.3-0.4
			c-0.2-0.1-0.4-0.2-0.4-0.3c0,0,0.1-0.1,0.2-0.1c0.1,0,0.2,0.1,0.3,0.1c0.2,0.1,0.3,0.2,0.4,0.3V44.1z"/>
		<g>
			<path class="st0" d="M45.8,40.1H20v13c0,3.8,1.1,7.1,2.6,9.9c-0.4,0.2-0.8,0.5-1.2,1.3l-0.5,1l-0.4,0.8c-0.1,0.3-0.3,0.8-0.3,1.4
				c0,0.9,0.3,1.7,1,2.5c1.1,1.4,3.4,2.8,6.1,3.9c0,0,0.2,0.1,0.4,0.2c-0.2,0.2-0.5,0.4-0.5,0.4l-0.2,0.2c0,0-0.2,0.2-0.2,0.2
				c0,0-0.1,0.1-0.1,0.1c-0.3,0.3-0.4,0.7-0.4,1.2v2.4c0,1,1.1,1.6,2.9,1.6h7.2c1.8,0,2.9-0.6,2.9-1.6v-2.4c0-0.5-0.1-0.9-0.4-1.2
				c0,0,0-0.1,0-0.1c-0.1-0.1-0.1-0.1-0.2-0.2c0,0,0,0,0,0s-0.4-0.4-0.7-0.6c0.2-0.1,0.4-0.2,0.4-0.2c2.7-1.1,5-2.5,6.1-3.9
				c0.7-0.8,1-1.7,1-2.5c0-0.6-0.2-1.1-0.3-1.4l-0.3-0.7l-0.5-1c-0.3-0.6-0.7-1-1.2-1.2c1.5-2.8,2.6-6.1,2.6-10V40.1z M44.1,64.5
				l0.5,1l0.3,0.8c0.1,0.3,0.3,0.7,0.3,1.2c0,0.8-0.3,1.6-0.9,2.4c-1.1,1.3-3.3,2.8-6,3.8L37.4,74l1,0.9c0,0,0.2,0.1,0.2,0.1
				c0,0,0,0.1,0,0.1c0.2,0.3,0.3,0.6,0.3,1v2.4c0,0.8-1,1.3-2.6,1.3h-7.2c-1.6,0-2.6-0.5-2.6-1.3v-2.4c0-0.4,0.1-0.7,0.3-1
				c0,0,0.1-0.1,0.1-0.1c0,0,0.2-0.1,0.2-0.1l0.2-0.2c0,0,0.8-0.7,0.8-0.7l-0.9-0.3c-2.7-1.1-4.9-2.5-6-3.8
				c-0.6-0.8-0.9-1.6-0.9-2.4c0-0.5,0.2-1,0.3-1.2l0.4-0.8l0.5-1c0.4-0.7,0.7-1,1.1-1.1c0,0.1,0.1,0.2,0.1,0.3
				c-0.2,0.1-0.4,0.3-0.5,0.5c-0.2,0.3-0.2,0.6-0.2,0.9c0,0.3,0.1,0.7,0.2,1l0.2,0.5c0,0,0.8-1.2,1.1-1.5c0,0.1,0.1,0.2,0.1,0.2
				c0.1,0.2,0.3,0.4,0.6,0.6c0,0,0.1,0,0.1,0c0.2,0.3,0.4,0.5,0.6,0.8c-0.4,0.6-1,1.4-1,1.4l0.2,0.2c0.8,0.7,1.6,1.1,1.8,1.2
				c0.6,0.3,1.2,0.6,1.7,0.9c0.5,0.2,1,0.5,1.5,0.8c0.3,0.3,0.7,0.6,1,0.8c0.3,0.4,0.5,0.8,0.5,1.4v1.7c0,0.6-0.2,0.8-0.4,1
				l-0.4,0.5h6L35.4,76c-0.2-0.2-0.4-0.5-0.4-1v-1.7c0-0.5,0.1-0.9,0.4-1.3c0.4-0.3,0.9-0.7,1.3-1.1c0.4-0.2,0.8-0.4,1.3-0.6
				c0.6-0.3,1.2-0.5,1.7-0.9c0.6-0.3,1.2-0.8,1.8-1.2l0.2-0.2c0,0-0.5-0.8-0.9-1.4c0.2-0.3,0.4-0.5,0.6-0.8c0,0,0,0,0.1,0
				c0.3-0.1,0.5-0.3,0.6-0.6c0,0,0-0.1,0.1-0.2c0.2,0.4,1.1,1.5,1.1,1.5l0.2-0.5c0.1-0.3,0.2-0.7,0.2-1c0-0.3-0.1-0.7-0.2-0.9
				c-0.1-0.2-0.3-0.4-0.5-0.5c0-0.1,0.1-0.1,0.1-0.2C43.5,63.6,43.8,64,44.1,64.5z M25.1,66.9c1,1.3,2.1,2.4,3.2,3.4
				c-0.2-0.1-0.3-0.1-0.5-0.2c-0.6-0.3-1.1-0.5-1.7-0.9c-0.2-0.1-0.9-0.5-1.8-1.2C24.4,67.9,24.7,67.3,25.1,66.9z M35.2,76.2
				c-0.5,0-4.1,0-4.7,0c0.2-0.2,0.4-0.6,0.4-1.2v-1.7c0-0.4-0.1-0.7-0.2-0.9c1,0.8,1.7,1.2,1.8,1.2l0.3,0.2l0.3-0.2
				c0,0,0.7-0.4,1.7-1.1c-0.1,0.3-0.1,0.5-0.1,0.9v1.7C34.8,75.6,35,75.9,35.2,76.2z M37.6,70.2c1-0.9,2-2,3.1-3.3l0.7,1.1
				c-0.6,0.5-1.2,0.9-1.8,1.2c-0.6,0.3-1.1,0.6-1.7,0.8C37.9,70.1,37.8,70.1,37.6,70.2z M40.5,66.6c-1.3,1.6-2.7,3-3.9,4l-1.4,1.1
				c-1.2,0.9-2.1,1.4-2.1,1.5c0,0-0.1,0.1-0.2,0.1c-0.1,0-0.2-0.1-0.2-0.1c0,0-1-0.6-2.3-1.6l-1.1-0.9c-1.3-1.1-2.7-2.5-4.1-4.2
				l-0.2-0.2c-0.1-0.2-0.2-0.3-0.4-0.5l-0.2-0.3c-0.4-0.6-0.8-1.2-1.2-1.8l-0.2-0.3c0-0.1-0.1-0.1-0.1-0.2L22.9,63
				c-1.5-2.8-2.6-6-2.6-9.8c0,0,0-12.5,0-12.7c0.3,0,24.9,0,25.2,0c0,0.3,0,12.7,0,12.7c0,3.8-1.1,7.1-2.6,9.9l-0.1,0.3
				c0,0.1-0.1,0.1-0.1,0.2l-0.2,0.3c-0.1,0.2-0.3,0.4-0.4,0.6l-0.1,0.1c-0.2,0.4-0.5,0.7-0.7,1l-0.2,0.3c-0.1,0.2-0.3,0.3-0.4,0.5
				L40.5,66.6z"/>
		</g>
		<path class="st0" d="M25.4,28.7c-0.1,0.1-0.1,0.2-0.2,0.2c-0.1,0-0.2-0.2-0.2-0.3c0,0,0.6-0.3,0.6-0.2c0,0-0.1,0.2-0.1,0.2
			S25.5,28.6,25.4,28.7z"/>
		<path class="st0" d="M27.8,24.7L27.8,24.7c0.1,0.1,0.4,0.3,0.4,0.4c0,0,0,0.2-0.1,0.3c0,0-0.1,0-0.1,0s-0.1-0.5,0-0.4
			C28,25.1,27.9,24.8,27.8,24.7z"/>
		<path class="st0" d="M32.4,22.2c0-0.1,0-0.3,0-0.3s0.3,0.5,0.3,0.6c0,0.1-0.2,0.1-0.2,0.2c-0.1,0.1-0.1,0.2-0.1,0.2l-0.1-0.1
			C32.2,22.7,32.3,22.4,32.4,22.2z"/>
		<path class="st0" d="M28.7,23.8c0.1,0.1,0.6,0.2,0.6,0.2c0,0,0,0.1,0,0.2c-0.1,0.1-0.2-0.1-0.3-0.2C28.8,23.9,28.7,23.8,28.7,23.8
			C28.7,23.8,28.6,23.8,28.7,23.8"/>
		<path class="st0" d="M37.3,23.4c-0.1,0.1-0.3,0.4-0.3,0.4c0,0,0.1,0,0.1,0s0.4-0.3,0.4-0.4C37.6,23.4,37.3,23.4,37.3,23.4z"/>
	</g>
</g>
</svg>
